%TF.GenerationSoftware,KiCad,Pcbnew,(6.0.2)*%
%TF.CreationDate,2022-10-19T19:09:35+02:00*%
%TF.ProjectId,adapter_LQFP48,61646170-7465-4725-9f4c-51465034382e,rev?*%
%TF.SameCoordinates,Original*%
%TF.FileFunction,Legend,Bot*%
%TF.FilePolarity,Positive*%
%FSLAX46Y46*%
G04 Gerber Fmt 4.6, Leading zero omitted, Abs format (unit mm)*
G04 Created by KiCad (PCBNEW (6.0.2)) date 2022-10-19 19:09:35*
%MOMM*%
%LPD*%
G01*
G04 APERTURE LIST*
%ADD10C,0.150000*%
%ADD11C,0.120000*%
%ADD12C,3.200000*%
%ADD13R,1.700000X1.700000*%
%ADD14O,1.700000X1.700000*%
G04 APERTURE END LIST*
D10*
X132857714Y-78192380D02*
X132524380Y-79192380D01*
X132191047Y-78192380D01*
X131905333Y-79144761D02*
X131762476Y-79192380D01*
X131524380Y-79192380D01*
X131429142Y-79144761D01*
X131381523Y-79097142D01*
X131333904Y-79001904D01*
X131333904Y-78906666D01*
X131381523Y-78811428D01*
X131429142Y-78763809D01*
X131524380Y-78716190D01*
X131714857Y-78668571D01*
X131810095Y-78620952D01*
X131857714Y-78573333D01*
X131905333Y-78478095D01*
X131905333Y-78382857D01*
X131857714Y-78287619D01*
X131810095Y-78240000D01*
X131714857Y-78192380D01*
X131476761Y-78192380D01*
X131333904Y-78240000D01*
X130952952Y-79144761D02*
X130810095Y-79192380D01*
X130572000Y-79192380D01*
X130476761Y-79144761D01*
X130429142Y-79097142D01*
X130381523Y-79001904D01*
X130381523Y-78906666D01*
X130429142Y-78811428D01*
X130476761Y-78763809D01*
X130572000Y-78716190D01*
X130762476Y-78668571D01*
X130857714Y-78620952D01*
X130905333Y-78573333D01*
X130952952Y-78478095D01*
X130952952Y-78382857D01*
X130905333Y-78287619D01*
X130857714Y-78240000D01*
X130762476Y-78192380D01*
X130524380Y-78192380D01*
X130381523Y-78240000D01*
X118586095Y-86812380D02*
X118586095Y-85812380D01*
X118205142Y-85812380D01*
X118109904Y-85860000D01*
X118062285Y-85907619D01*
X118014666Y-86002857D01*
X118014666Y-86145714D01*
X118062285Y-86240952D01*
X118109904Y-86288571D01*
X118205142Y-86336190D01*
X118586095Y-86336190D01*
X117586095Y-86812380D02*
X117586095Y-85812380D01*
X117348000Y-85812380D01*
X117205142Y-85860000D01*
X117109904Y-85955238D01*
X117062285Y-86050476D01*
X117014666Y-86240952D01*
X117014666Y-86383809D01*
X117062285Y-86574285D01*
X117109904Y-86669523D01*
X117205142Y-86764761D01*
X117348000Y-86812380D01*
X117586095Y-86812380D01*
X116395619Y-85812380D02*
X116300380Y-85812380D01*
X116205142Y-85860000D01*
X116157523Y-85907619D01*
X116109904Y-86002857D01*
X116062285Y-86193333D01*
X116062285Y-86431428D01*
X116109904Y-86621904D01*
X116157523Y-86717142D01*
X116205142Y-86764761D01*
X116300380Y-86812380D01*
X116395619Y-86812380D01*
X116490857Y-86764761D01*
X116538476Y-86717142D01*
X116586095Y-86621904D01*
X116633714Y-86431428D01*
X116633714Y-86193333D01*
X116586095Y-86002857D01*
X116538476Y-85907619D01*
X116490857Y-85860000D01*
X116395619Y-85812380D01*
X118681333Y-134072380D02*
X118348000Y-135072380D01*
X118014666Y-134072380D01*
X117681333Y-135072380D02*
X117681333Y-134072380D01*
X117443238Y-134072380D01*
X117300380Y-134120000D01*
X117205142Y-134215238D01*
X117157523Y-134310476D01*
X117109904Y-134500952D01*
X117109904Y-134643809D01*
X117157523Y-134834285D01*
X117205142Y-134929523D01*
X117300380Y-135024761D01*
X117443238Y-135072380D01*
X117681333Y-135072380D01*
X116681333Y-135072380D02*
X116681333Y-134072380D01*
X116443238Y-134072380D01*
X116300380Y-134120000D01*
X116205142Y-134215238D01*
X116157523Y-134310476D01*
X116109904Y-134500952D01*
X116109904Y-134643809D01*
X116157523Y-134834285D01*
X116205142Y-134929523D01*
X116300380Y-135024761D01*
X116443238Y-135072380D01*
X116681333Y-135072380D01*
X132810095Y-81732380D02*
X132810095Y-80732380D01*
X132429142Y-80732380D01*
X132333904Y-80780000D01*
X132286285Y-80827619D01*
X132238666Y-80922857D01*
X132238666Y-81065714D01*
X132286285Y-81160952D01*
X132333904Y-81208571D01*
X132429142Y-81256190D01*
X132810095Y-81256190D01*
X131476761Y-81208571D02*
X131333904Y-81256190D01*
X131286285Y-81303809D01*
X131238666Y-81399047D01*
X131238666Y-81541904D01*
X131286285Y-81637142D01*
X131333904Y-81684761D01*
X131429142Y-81732380D01*
X131810095Y-81732380D01*
X131810095Y-80732380D01*
X131476761Y-80732380D01*
X131381523Y-80780000D01*
X131333904Y-80827619D01*
X131286285Y-80922857D01*
X131286285Y-81018095D01*
X131333904Y-81113333D01*
X131381523Y-81160952D01*
X131476761Y-81208571D01*
X131810095Y-81208571D01*
X130762476Y-81732380D02*
X130572000Y-81732380D01*
X130476761Y-81684761D01*
X130429142Y-81637142D01*
X130333904Y-81494285D01*
X130286285Y-81303809D01*
X130286285Y-80922857D01*
X130333904Y-80827619D01*
X130381523Y-80780000D01*
X130476761Y-80732380D01*
X130667238Y-80732380D01*
X130762476Y-80780000D01*
X130810095Y-80827619D01*
X130857714Y-80922857D01*
X130857714Y-81160952D01*
X130810095Y-81256190D01*
X130762476Y-81303809D01*
X130667238Y-81351428D01*
X130476761Y-81351428D01*
X130381523Y-81303809D01*
X130333904Y-81256190D01*
X130286285Y-81160952D01*
X118586095Y-119832380D02*
X118586095Y-118832380D01*
X118205142Y-118832380D01*
X118109904Y-118880000D01*
X118062285Y-118927619D01*
X118014666Y-119022857D01*
X118014666Y-119165714D01*
X118062285Y-119260952D01*
X118109904Y-119308571D01*
X118205142Y-119356190D01*
X118586095Y-119356190D01*
X117252761Y-119308571D02*
X117109904Y-119356190D01*
X117062285Y-119403809D01*
X117014666Y-119499047D01*
X117014666Y-119641904D01*
X117062285Y-119737142D01*
X117109904Y-119784761D01*
X117205142Y-119832380D01*
X117586095Y-119832380D01*
X117586095Y-118832380D01*
X117252761Y-118832380D01*
X117157523Y-118880000D01*
X117109904Y-118927619D01*
X117062285Y-119022857D01*
X117062285Y-119118095D01*
X117109904Y-119213333D01*
X117157523Y-119260952D01*
X117252761Y-119308571D01*
X117586095Y-119308571D01*
X116395619Y-118832380D02*
X116300380Y-118832380D01*
X116205142Y-118880000D01*
X116157523Y-118927619D01*
X116109904Y-119022857D01*
X116062285Y-119213333D01*
X116062285Y-119451428D01*
X116109904Y-119641904D01*
X116157523Y-119737142D01*
X116205142Y-119784761D01*
X116300380Y-119832380D01*
X116395619Y-119832380D01*
X116490857Y-119784761D01*
X116538476Y-119737142D01*
X116586095Y-119641904D01*
X116633714Y-119451428D01*
X116633714Y-119213333D01*
X116586095Y-119022857D01*
X116538476Y-118927619D01*
X116490857Y-118880000D01*
X116395619Y-118832380D01*
X132500523Y-86288571D02*
X132357666Y-86336190D01*
X132310047Y-86383809D01*
X132262428Y-86479047D01*
X132262428Y-86621904D01*
X132310047Y-86717142D01*
X132357666Y-86764761D01*
X132452904Y-86812380D01*
X132833856Y-86812380D01*
X132833856Y-85812380D01*
X132500523Y-85812380D01*
X132405285Y-85860000D01*
X132357666Y-85907619D01*
X132310047Y-86002857D01*
X132310047Y-86098095D01*
X132357666Y-86193333D01*
X132405285Y-86240952D01*
X132500523Y-86288571D01*
X132833856Y-86288571D01*
X131643380Y-85812380D02*
X131452904Y-85812380D01*
X131357666Y-85860000D01*
X131262428Y-85955238D01*
X131214809Y-86145714D01*
X131214809Y-86479047D01*
X131262428Y-86669523D01*
X131357666Y-86764761D01*
X131452904Y-86812380D01*
X131643380Y-86812380D01*
X131738618Y-86764761D01*
X131833856Y-86669523D01*
X131881475Y-86479047D01*
X131881475Y-86145714D01*
X131833856Y-85955238D01*
X131738618Y-85860000D01*
X131643380Y-85812380D01*
X130595761Y-85812380D02*
X130405285Y-85812380D01*
X130310047Y-85860000D01*
X130214809Y-85955238D01*
X130167190Y-86145714D01*
X130167190Y-86479047D01*
X130214809Y-86669523D01*
X130310047Y-86764761D01*
X130405285Y-86812380D01*
X130595761Y-86812380D01*
X130690999Y-86764761D01*
X130786237Y-86669523D01*
X130833856Y-86479047D01*
X130833856Y-86145714D01*
X130786237Y-85955238D01*
X130690999Y-85860000D01*
X130595761Y-85812380D01*
X129881475Y-85812380D02*
X129310047Y-85812380D01*
X129595761Y-86812380D02*
X129595761Y-85812380D01*
X128786237Y-85812380D02*
X128690999Y-85812380D01*
X128595761Y-85860000D01*
X128548142Y-85907619D01*
X128500523Y-86002857D01*
X128452904Y-86193333D01*
X128452904Y-86431428D01*
X128500523Y-86621904D01*
X128548142Y-86717142D01*
X128595761Y-86764761D01*
X128690999Y-86812380D01*
X128786237Y-86812380D01*
X128881475Y-86764761D01*
X128929094Y-86717142D01*
X128976713Y-86621904D01*
X129024332Y-86431428D01*
X129024332Y-86193333D01*
X128976713Y-86002857D01*
X128929094Y-85907619D01*
X128881475Y-85860000D01*
X128786237Y-85812380D01*
X132778285Y-132532380D02*
X132778285Y-131532380D01*
X132397333Y-131532380D01*
X132302095Y-131580000D01*
X132254476Y-131627619D01*
X132206857Y-131722857D01*
X132206857Y-131865714D01*
X132254476Y-131960952D01*
X132302095Y-132008571D01*
X132397333Y-132056190D01*
X132778285Y-132056190D01*
X131444952Y-132008571D02*
X131302095Y-132056190D01*
X131254476Y-132103809D01*
X131206857Y-132199047D01*
X131206857Y-132341904D01*
X131254476Y-132437142D01*
X131302095Y-132484761D01*
X131397333Y-132532380D01*
X131778285Y-132532380D01*
X131778285Y-131532380D01*
X131444952Y-131532380D01*
X131349714Y-131580000D01*
X131302095Y-131627619D01*
X131254476Y-131722857D01*
X131254476Y-131818095D01*
X131302095Y-131913333D01*
X131349714Y-131960952D01*
X131444952Y-132008571D01*
X131778285Y-132008571D01*
X130254476Y-132532380D02*
X130825904Y-132532380D01*
X130540190Y-132532380D02*
X130540190Y-131532380D01*
X130635428Y-131675238D01*
X130730666Y-131770476D01*
X130825904Y-131818095D01*
X129921142Y-131532380D02*
X129302095Y-131532380D01*
X129635428Y-131913333D01*
X129492571Y-131913333D01*
X129397333Y-131960952D01*
X129349714Y-132008571D01*
X129302095Y-132103809D01*
X129302095Y-132341904D01*
X129349714Y-132437142D01*
X129397333Y-132484761D01*
X129492571Y-132532380D01*
X129778285Y-132532380D01*
X129873523Y-132484761D01*
X129921142Y-132437142D01*
X118514666Y-104592380D02*
X118514666Y-103592380D01*
X118133714Y-103592380D01*
X118038476Y-103640000D01*
X117990857Y-103687619D01*
X117943238Y-103782857D01*
X117943238Y-103925714D01*
X117990857Y-104020952D01*
X118038476Y-104068571D01*
X118133714Y-104116190D01*
X118514666Y-104116190D01*
X117562285Y-104306666D02*
X117086095Y-104306666D01*
X117657523Y-104592380D02*
X117324190Y-103592380D01*
X116990857Y-104592380D01*
X116705142Y-103687619D02*
X116657523Y-103640000D01*
X116562285Y-103592380D01*
X116324190Y-103592380D01*
X116228952Y-103640000D01*
X116181333Y-103687619D01*
X116133714Y-103782857D01*
X116133714Y-103878095D01*
X116181333Y-104020952D01*
X116752761Y-104592380D01*
X116133714Y-104592380D01*
X118586095Y-89352380D02*
X118586095Y-88352380D01*
X118205142Y-88352380D01*
X118109904Y-88400000D01*
X118062285Y-88447619D01*
X118014666Y-88542857D01*
X118014666Y-88685714D01*
X118062285Y-88780952D01*
X118109904Y-88828571D01*
X118205142Y-88876190D01*
X118586095Y-88876190D01*
X117586095Y-89352380D02*
X117586095Y-88352380D01*
X117348000Y-88352380D01*
X117205142Y-88400000D01*
X117109904Y-88495238D01*
X117062285Y-88590476D01*
X117014666Y-88780952D01*
X117014666Y-88923809D01*
X117062285Y-89114285D01*
X117109904Y-89209523D01*
X117205142Y-89304761D01*
X117348000Y-89352380D01*
X117586095Y-89352380D01*
X116062285Y-89352380D02*
X116633714Y-89352380D01*
X116348000Y-89352380D02*
X116348000Y-88352380D01*
X116443238Y-88495238D01*
X116538476Y-88590476D01*
X116633714Y-88638095D01*
X132778285Y-135072380D02*
X132778285Y-134072380D01*
X132397333Y-134072380D01*
X132302095Y-134120000D01*
X132254476Y-134167619D01*
X132206857Y-134262857D01*
X132206857Y-134405714D01*
X132254476Y-134500952D01*
X132302095Y-134548571D01*
X132397333Y-134596190D01*
X132778285Y-134596190D01*
X131444952Y-134548571D02*
X131302095Y-134596190D01*
X131254476Y-134643809D01*
X131206857Y-134739047D01*
X131206857Y-134881904D01*
X131254476Y-134977142D01*
X131302095Y-135024761D01*
X131397333Y-135072380D01*
X131778285Y-135072380D01*
X131778285Y-134072380D01*
X131444952Y-134072380D01*
X131349714Y-134120000D01*
X131302095Y-134167619D01*
X131254476Y-134262857D01*
X131254476Y-134358095D01*
X131302095Y-134453333D01*
X131349714Y-134500952D01*
X131444952Y-134548571D01*
X131778285Y-134548571D01*
X130254476Y-135072380D02*
X130825904Y-135072380D01*
X130540190Y-135072380D02*
X130540190Y-134072380D01*
X130635428Y-134215238D01*
X130730666Y-134310476D01*
X130825904Y-134358095D01*
X129873523Y-134167619D02*
X129825904Y-134120000D01*
X129730666Y-134072380D01*
X129492571Y-134072380D01*
X129397333Y-134120000D01*
X129349714Y-134167619D01*
X129302095Y-134262857D01*
X129302095Y-134358095D01*
X129349714Y-134500952D01*
X129921142Y-135072380D01*
X129302095Y-135072380D01*
X132857714Y-108672380D02*
X132524380Y-109672380D01*
X132191047Y-108672380D01*
X131905333Y-109624761D02*
X131762476Y-109672380D01*
X131524380Y-109672380D01*
X131429142Y-109624761D01*
X131381523Y-109577142D01*
X131333904Y-109481904D01*
X131333904Y-109386666D01*
X131381523Y-109291428D01*
X131429142Y-109243809D01*
X131524380Y-109196190D01*
X131714857Y-109148571D01*
X131810095Y-109100952D01*
X131857714Y-109053333D01*
X131905333Y-108958095D01*
X131905333Y-108862857D01*
X131857714Y-108767619D01*
X131810095Y-108720000D01*
X131714857Y-108672380D01*
X131476761Y-108672380D01*
X131333904Y-108720000D01*
X130952952Y-109624761D02*
X130810095Y-109672380D01*
X130572000Y-109672380D01*
X130476761Y-109624761D01*
X130429142Y-109577142D01*
X130381523Y-109481904D01*
X130381523Y-109386666D01*
X130429142Y-109291428D01*
X130476761Y-109243809D01*
X130572000Y-109196190D01*
X130762476Y-109148571D01*
X130857714Y-109100952D01*
X130905333Y-109053333D01*
X130952952Y-108958095D01*
X130952952Y-108862857D01*
X130905333Y-108767619D01*
X130857714Y-108720000D01*
X130762476Y-108672380D01*
X130524380Y-108672380D01*
X130381523Y-108720000D01*
X132738666Y-124912380D02*
X132738666Y-123912380D01*
X132357714Y-123912380D01*
X132262476Y-123960000D01*
X132214857Y-124007619D01*
X132167238Y-124102857D01*
X132167238Y-124245714D01*
X132214857Y-124340952D01*
X132262476Y-124388571D01*
X132357714Y-124436190D01*
X132738666Y-124436190D01*
X131786285Y-124626666D02*
X131310095Y-124626666D01*
X131881523Y-124912380D02*
X131548190Y-123912380D01*
X131214857Y-124912380D01*
X130738666Y-124340952D02*
X130833904Y-124293333D01*
X130881523Y-124245714D01*
X130929142Y-124150476D01*
X130929142Y-124102857D01*
X130881523Y-124007619D01*
X130833904Y-123960000D01*
X130738666Y-123912380D01*
X130548190Y-123912380D01*
X130452952Y-123960000D01*
X130405333Y-124007619D01*
X130357714Y-124102857D01*
X130357714Y-124150476D01*
X130405333Y-124245714D01*
X130452952Y-124293333D01*
X130548190Y-124340952D01*
X130738666Y-124340952D01*
X130833904Y-124388571D01*
X130881523Y-124436190D01*
X130929142Y-124531428D01*
X130929142Y-124721904D01*
X130881523Y-124817142D01*
X130833904Y-124864761D01*
X130738666Y-124912380D01*
X130548190Y-124912380D01*
X130452952Y-124864761D01*
X130405333Y-124817142D01*
X130357714Y-124721904D01*
X130357714Y-124531428D01*
X130405333Y-124436190D01*
X130452952Y-124388571D01*
X130548190Y-124340952D01*
X118514666Y-102052380D02*
X118514666Y-101052380D01*
X118133714Y-101052380D01*
X118038476Y-101100000D01*
X117990857Y-101147619D01*
X117943238Y-101242857D01*
X117943238Y-101385714D01*
X117990857Y-101480952D01*
X118038476Y-101528571D01*
X118133714Y-101576190D01*
X118514666Y-101576190D01*
X117562285Y-101766666D02*
X117086095Y-101766666D01*
X117657523Y-102052380D02*
X117324190Y-101052380D01*
X116990857Y-102052380D01*
X116133714Y-102052380D02*
X116705142Y-102052380D01*
X116419428Y-102052380D02*
X116419428Y-101052380D01*
X116514666Y-101195238D01*
X116609904Y-101290476D01*
X116705142Y-101338095D01*
X119570285Y-81732380D02*
X119570285Y-80732380D01*
X119189333Y-80732380D01*
X119094095Y-80780000D01*
X119046476Y-80827619D01*
X118998857Y-80922857D01*
X118998857Y-81065714D01*
X119046476Y-81160952D01*
X119094095Y-81208571D01*
X119189333Y-81256190D01*
X119570285Y-81256190D01*
X117998857Y-81637142D02*
X118046476Y-81684761D01*
X118189333Y-81732380D01*
X118284571Y-81732380D01*
X118427428Y-81684761D01*
X118522666Y-81589523D01*
X118570285Y-81494285D01*
X118617904Y-81303809D01*
X118617904Y-81160952D01*
X118570285Y-80970476D01*
X118522666Y-80875238D01*
X118427428Y-80780000D01*
X118284571Y-80732380D01*
X118189333Y-80732380D01*
X118046476Y-80780000D01*
X117998857Y-80827619D01*
X117046476Y-81732380D02*
X117617904Y-81732380D01*
X117332190Y-81732380D02*
X117332190Y-80732380D01*
X117427428Y-80875238D01*
X117522666Y-80970476D01*
X117617904Y-81018095D01*
X116189333Y-81065714D02*
X116189333Y-81732380D01*
X116427428Y-80684761D02*
X116665523Y-81399047D01*
X116046476Y-81399047D01*
X132706857Y-117292380D02*
X132706857Y-116292380D01*
X132325904Y-116292380D01*
X132230666Y-116340000D01*
X132183047Y-116387619D01*
X132135428Y-116482857D01*
X132135428Y-116625714D01*
X132183047Y-116720952D01*
X132230666Y-116768571D01*
X132325904Y-116816190D01*
X132706857Y-116816190D01*
X131754476Y-117006666D02*
X131278285Y-117006666D01*
X131849714Y-117292380D02*
X131516380Y-116292380D01*
X131183047Y-117292380D01*
X130325904Y-117292380D02*
X130897333Y-117292380D01*
X130611619Y-117292380D02*
X130611619Y-116292380D01*
X130706857Y-116435238D01*
X130802095Y-116530476D01*
X130897333Y-116578095D01*
X129373523Y-117292380D02*
X129944952Y-117292380D01*
X129659238Y-117292380D02*
X129659238Y-116292380D01*
X129754476Y-116435238D01*
X129849714Y-116530476D01*
X129944952Y-116578095D01*
X119570285Y-127452380D02*
X119570285Y-126452380D01*
X119189333Y-126452380D01*
X119094095Y-126500000D01*
X119046476Y-126547619D01*
X118998857Y-126642857D01*
X118998857Y-126785714D01*
X119046476Y-126880952D01*
X119094095Y-126928571D01*
X119189333Y-126976190D01*
X119570285Y-126976190D01*
X118236952Y-126928571D02*
X118094095Y-126976190D01*
X118046476Y-127023809D01*
X117998857Y-127119047D01*
X117998857Y-127261904D01*
X118046476Y-127357142D01*
X118094095Y-127404761D01*
X118189333Y-127452380D01*
X118570285Y-127452380D01*
X118570285Y-126452380D01*
X118236952Y-126452380D01*
X118141714Y-126500000D01*
X118094095Y-126547619D01*
X118046476Y-126642857D01*
X118046476Y-126738095D01*
X118094095Y-126833333D01*
X118141714Y-126880952D01*
X118236952Y-126928571D01*
X118570285Y-126928571D01*
X117046476Y-127452380D02*
X117617904Y-127452380D01*
X117332190Y-127452380D02*
X117332190Y-126452380D01*
X117427428Y-126595238D01*
X117522666Y-126690476D01*
X117617904Y-126738095D01*
X116427428Y-126452380D02*
X116332190Y-126452380D01*
X116236952Y-126500000D01*
X116189333Y-126547619D01*
X116141714Y-126642857D01*
X116094095Y-126833333D01*
X116094095Y-127071428D01*
X116141714Y-127261904D01*
X116189333Y-127357142D01*
X116236952Y-127404761D01*
X116332190Y-127452380D01*
X116427428Y-127452380D01*
X116522666Y-127404761D01*
X116570285Y-127357142D01*
X116617904Y-127261904D01*
X116665523Y-127071428D01*
X116665523Y-126833333D01*
X116617904Y-126642857D01*
X116570285Y-126547619D01*
X116522666Y-126500000D01*
X116427428Y-126452380D01*
X132810095Y-99512380D02*
X132810095Y-98512380D01*
X132429142Y-98512380D01*
X132333904Y-98560000D01*
X132286285Y-98607619D01*
X132238666Y-98702857D01*
X132238666Y-98845714D01*
X132286285Y-98940952D01*
X132333904Y-98988571D01*
X132429142Y-99036190D01*
X132810095Y-99036190D01*
X131476761Y-98988571D02*
X131333904Y-99036190D01*
X131286285Y-99083809D01*
X131238666Y-99179047D01*
X131238666Y-99321904D01*
X131286285Y-99417142D01*
X131333904Y-99464761D01*
X131429142Y-99512380D01*
X131810095Y-99512380D01*
X131810095Y-98512380D01*
X131476761Y-98512380D01*
X131381523Y-98560000D01*
X131333904Y-98607619D01*
X131286285Y-98702857D01*
X131286285Y-98798095D01*
X131333904Y-98893333D01*
X131381523Y-98940952D01*
X131476761Y-98988571D01*
X131810095Y-98988571D01*
X130905333Y-98512380D02*
X130286285Y-98512380D01*
X130619619Y-98893333D01*
X130476761Y-98893333D01*
X130381523Y-98940952D01*
X130333904Y-98988571D01*
X130286285Y-99083809D01*
X130286285Y-99321904D01*
X130333904Y-99417142D01*
X130381523Y-99464761D01*
X130476761Y-99512380D01*
X130762476Y-99512380D01*
X130857714Y-99464761D01*
X130905333Y-99417142D01*
X119570285Y-93432380D02*
X119236952Y-94432380D01*
X118903619Y-93432380D01*
X118617904Y-94384761D02*
X118475047Y-94432380D01*
X118236952Y-94432380D01*
X118141714Y-94384761D01*
X118094095Y-94337142D01*
X118046476Y-94241904D01*
X118046476Y-94146666D01*
X118094095Y-94051428D01*
X118141714Y-94003809D01*
X118236952Y-93956190D01*
X118427428Y-93908571D01*
X118522666Y-93860952D01*
X118570285Y-93813333D01*
X118617904Y-93718095D01*
X118617904Y-93622857D01*
X118570285Y-93527619D01*
X118522666Y-93480000D01*
X118427428Y-93432380D01*
X118189333Y-93432380D01*
X118046476Y-93480000D01*
X117665523Y-94384761D02*
X117522666Y-94432380D01*
X117284571Y-94432380D01*
X117189333Y-94384761D01*
X117141714Y-94337142D01*
X117094095Y-94241904D01*
X117094095Y-94146666D01*
X117141714Y-94051428D01*
X117189333Y-94003809D01*
X117284571Y-93956190D01*
X117475047Y-93908571D01*
X117570285Y-93860952D01*
X117617904Y-93813333D01*
X117665523Y-93718095D01*
X117665523Y-93622857D01*
X117617904Y-93527619D01*
X117570285Y-93480000D01*
X117475047Y-93432380D01*
X117236952Y-93432380D01*
X117094095Y-93480000D01*
X116713142Y-94146666D02*
X116236952Y-94146666D01*
X116808380Y-94432380D02*
X116475047Y-93432380D01*
X116141714Y-94432380D01*
X118586095Y-124912380D02*
X118586095Y-123912380D01*
X118205142Y-123912380D01*
X118109904Y-123960000D01*
X118062285Y-124007619D01*
X118014666Y-124102857D01*
X118014666Y-124245714D01*
X118062285Y-124340952D01*
X118109904Y-124388571D01*
X118205142Y-124436190D01*
X118586095Y-124436190D01*
X117252761Y-124388571D02*
X117109904Y-124436190D01*
X117062285Y-124483809D01*
X117014666Y-124579047D01*
X117014666Y-124721904D01*
X117062285Y-124817142D01*
X117109904Y-124864761D01*
X117205142Y-124912380D01*
X117586095Y-124912380D01*
X117586095Y-123912380D01*
X117252761Y-123912380D01*
X117157523Y-123960000D01*
X117109904Y-124007619D01*
X117062285Y-124102857D01*
X117062285Y-124198095D01*
X117109904Y-124293333D01*
X117157523Y-124340952D01*
X117252761Y-124388571D01*
X117586095Y-124388571D01*
X116633714Y-124007619D02*
X116586095Y-123960000D01*
X116490857Y-123912380D01*
X116252761Y-123912380D01*
X116157523Y-123960000D01*
X116109904Y-124007619D01*
X116062285Y-124102857D01*
X116062285Y-124198095D01*
X116109904Y-124340952D01*
X116681333Y-124912380D01*
X116062285Y-124912380D01*
X119498857Y-75652380D02*
X119165523Y-76652380D01*
X118832190Y-75652380D01*
X118165523Y-76128571D02*
X118022666Y-76176190D01*
X117975047Y-76223809D01*
X117927428Y-76319047D01*
X117927428Y-76461904D01*
X117975047Y-76557142D01*
X118022666Y-76604761D01*
X118117904Y-76652380D01*
X118498857Y-76652380D01*
X118498857Y-75652380D01*
X118165523Y-75652380D01*
X118070285Y-75700000D01*
X118022666Y-75747619D01*
X117975047Y-75842857D01*
X117975047Y-75938095D01*
X118022666Y-76033333D01*
X118070285Y-76080952D01*
X118165523Y-76128571D01*
X118498857Y-76128571D01*
X117546476Y-76366666D02*
X117070285Y-76366666D01*
X117641714Y-76652380D02*
X117308380Y-75652380D01*
X116975047Y-76652380D01*
X116784571Y-75652380D02*
X116213142Y-75652380D01*
X116498857Y-76652380D02*
X116498857Y-75652380D01*
X119617904Y-95972380D02*
X119284571Y-96972380D01*
X118951238Y-95972380D01*
X118617904Y-96972380D02*
X118617904Y-95972380D01*
X118379809Y-95972380D01*
X118236952Y-96020000D01*
X118141714Y-96115238D01*
X118094095Y-96210476D01*
X118046476Y-96400952D01*
X118046476Y-96543809D01*
X118094095Y-96734285D01*
X118141714Y-96829523D01*
X118236952Y-96924761D01*
X118379809Y-96972380D01*
X118617904Y-96972380D01*
X117617904Y-96972380D02*
X117617904Y-95972380D01*
X117379809Y-95972380D01*
X117236952Y-96020000D01*
X117141714Y-96115238D01*
X117094095Y-96210476D01*
X117046476Y-96400952D01*
X117046476Y-96543809D01*
X117094095Y-96734285D01*
X117141714Y-96829523D01*
X117236952Y-96924761D01*
X117379809Y-96972380D01*
X117617904Y-96972380D01*
X116665523Y-96686666D02*
X116189333Y-96686666D01*
X116760761Y-96972380D02*
X116427428Y-95972380D01*
X116094095Y-96972380D01*
X132706857Y-114752380D02*
X132706857Y-113752380D01*
X132325904Y-113752380D01*
X132230666Y-113800000D01*
X132183047Y-113847619D01*
X132135428Y-113942857D01*
X132135428Y-114085714D01*
X132183047Y-114180952D01*
X132230666Y-114228571D01*
X132325904Y-114276190D01*
X132706857Y-114276190D01*
X131754476Y-114466666D02*
X131278285Y-114466666D01*
X131849714Y-114752380D02*
X131516380Y-113752380D01*
X131183047Y-114752380D01*
X130325904Y-114752380D02*
X130897333Y-114752380D01*
X130611619Y-114752380D02*
X130611619Y-113752380D01*
X130706857Y-113895238D01*
X130802095Y-113990476D01*
X130897333Y-114038095D01*
X129944952Y-113847619D02*
X129897333Y-113800000D01*
X129802095Y-113752380D01*
X129564000Y-113752380D01*
X129468761Y-113800000D01*
X129421142Y-113847619D01*
X129373523Y-113942857D01*
X129373523Y-114038095D01*
X129421142Y-114180952D01*
X129992571Y-114752380D01*
X129373523Y-114752380D01*
X132905333Y-75652380D02*
X132572000Y-76652380D01*
X132238666Y-75652380D01*
X131905333Y-76652380D02*
X131905333Y-75652380D01*
X131667238Y-75652380D01*
X131524380Y-75700000D01*
X131429142Y-75795238D01*
X131381523Y-75890476D01*
X131333904Y-76080952D01*
X131333904Y-76223809D01*
X131381523Y-76414285D01*
X131429142Y-76509523D01*
X131524380Y-76604761D01*
X131667238Y-76652380D01*
X131905333Y-76652380D01*
X130905333Y-76652380D02*
X130905333Y-75652380D01*
X130667238Y-75652380D01*
X130524380Y-75700000D01*
X130429142Y-75795238D01*
X130381523Y-75890476D01*
X130333904Y-76080952D01*
X130333904Y-76223809D01*
X130381523Y-76414285D01*
X130429142Y-76509523D01*
X130524380Y-76604761D01*
X130667238Y-76652380D01*
X130905333Y-76652380D01*
X132810095Y-91892380D02*
X132810095Y-90892380D01*
X132429142Y-90892380D01*
X132333904Y-90940000D01*
X132286285Y-90987619D01*
X132238666Y-91082857D01*
X132238666Y-91225714D01*
X132286285Y-91320952D01*
X132333904Y-91368571D01*
X132429142Y-91416190D01*
X132810095Y-91416190D01*
X131476761Y-91368571D02*
X131333904Y-91416190D01*
X131286285Y-91463809D01*
X131238666Y-91559047D01*
X131238666Y-91701904D01*
X131286285Y-91797142D01*
X131333904Y-91844761D01*
X131429142Y-91892380D01*
X131810095Y-91892380D01*
X131810095Y-90892380D01*
X131476761Y-90892380D01*
X131381523Y-90940000D01*
X131333904Y-90987619D01*
X131286285Y-91082857D01*
X131286285Y-91178095D01*
X131333904Y-91273333D01*
X131381523Y-91320952D01*
X131476761Y-91368571D01*
X131810095Y-91368571D01*
X130381523Y-90892380D02*
X130572000Y-90892380D01*
X130667238Y-90940000D01*
X130714857Y-90987619D01*
X130810095Y-91130476D01*
X130857714Y-91320952D01*
X130857714Y-91701904D01*
X130810095Y-91797142D01*
X130762476Y-91844761D01*
X130667238Y-91892380D01*
X130476761Y-91892380D01*
X130381523Y-91844761D01*
X130333904Y-91797142D01*
X130286285Y-91701904D01*
X130286285Y-91463809D01*
X130333904Y-91368571D01*
X130381523Y-91320952D01*
X130476761Y-91273333D01*
X130667238Y-91273333D01*
X130762476Y-91320952D01*
X130810095Y-91368571D01*
X130857714Y-91463809D01*
X118514666Y-99512380D02*
X118514666Y-98512380D01*
X118133714Y-98512380D01*
X118038476Y-98560000D01*
X117990857Y-98607619D01*
X117943238Y-98702857D01*
X117943238Y-98845714D01*
X117990857Y-98940952D01*
X118038476Y-98988571D01*
X118133714Y-99036190D01*
X118514666Y-99036190D01*
X117562285Y-99226666D02*
X117086095Y-99226666D01*
X117657523Y-99512380D02*
X117324190Y-98512380D01*
X116990857Y-99512380D01*
X116467047Y-98512380D02*
X116371809Y-98512380D01*
X116276571Y-98560000D01*
X116228952Y-98607619D01*
X116181333Y-98702857D01*
X116133714Y-98893333D01*
X116133714Y-99131428D01*
X116181333Y-99321904D01*
X116228952Y-99417142D01*
X116276571Y-99464761D01*
X116371809Y-99512380D01*
X116467047Y-99512380D01*
X116562285Y-99464761D01*
X116609904Y-99417142D01*
X116657523Y-99321904D01*
X116705142Y-99131428D01*
X116705142Y-98893333D01*
X116657523Y-98702857D01*
X116609904Y-98607619D01*
X116562285Y-98560000D01*
X116467047Y-98512380D01*
X132706857Y-112212380D02*
X132706857Y-111212380D01*
X132325904Y-111212380D01*
X132230666Y-111260000D01*
X132183047Y-111307619D01*
X132135428Y-111402857D01*
X132135428Y-111545714D01*
X132183047Y-111640952D01*
X132230666Y-111688571D01*
X132325904Y-111736190D01*
X132706857Y-111736190D01*
X131754476Y-111926666D02*
X131278285Y-111926666D01*
X131849714Y-112212380D02*
X131516380Y-111212380D01*
X131183047Y-112212380D01*
X130325904Y-112212380D02*
X130897333Y-112212380D01*
X130611619Y-112212380D02*
X130611619Y-111212380D01*
X130706857Y-111355238D01*
X130802095Y-111450476D01*
X130897333Y-111498095D01*
X129992571Y-111212380D02*
X129373523Y-111212380D01*
X129706857Y-111593333D01*
X129564000Y-111593333D01*
X129468761Y-111640952D01*
X129421142Y-111688571D01*
X129373523Y-111783809D01*
X129373523Y-112021904D01*
X129421142Y-112117142D01*
X129468761Y-112164761D01*
X129564000Y-112212380D01*
X129849714Y-112212380D01*
X129944952Y-112164761D01*
X129992571Y-112117142D01*
X132810095Y-96972380D02*
X132810095Y-95972380D01*
X132429142Y-95972380D01*
X132333904Y-96020000D01*
X132286285Y-96067619D01*
X132238666Y-96162857D01*
X132238666Y-96305714D01*
X132286285Y-96400952D01*
X132333904Y-96448571D01*
X132429142Y-96496190D01*
X132810095Y-96496190D01*
X131476761Y-96448571D02*
X131333904Y-96496190D01*
X131286285Y-96543809D01*
X131238666Y-96639047D01*
X131238666Y-96781904D01*
X131286285Y-96877142D01*
X131333904Y-96924761D01*
X131429142Y-96972380D01*
X131810095Y-96972380D01*
X131810095Y-95972380D01*
X131476761Y-95972380D01*
X131381523Y-96020000D01*
X131333904Y-96067619D01*
X131286285Y-96162857D01*
X131286285Y-96258095D01*
X131333904Y-96353333D01*
X131381523Y-96400952D01*
X131476761Y-96448571D01*
X131810095Y-96448571D01*
X130381523Y-96305714D02*
X130381523Y-96972380D01*
X130619619Y-95924761D02*
X130857714Y-96639047D01*
X130238666Y-96639047D01*
X118586095Y-122372380D02*
X118586095Y-121372380D01*
X118205142Y-121372380D01*
X118109904Y-121420000D01*
X118062285Y-121467619D01*
X118014666Y-121562857D01*
X118014666Y-121705714D01*
X118062285Y-121800952D01*
X118109904Y-121848571D01*
X118205142Y-121896190D01*
X118586095Y-121896190D01*
X117252761Y-121848571D02*
X117109904Y-121896190D01*
X117062285Y-121943809D01*
X117014666Y-122039047D01*
X117014666Y-122181904D01*
X117062285Y-122277142D01*
X117109904Y-122324761D01*
X117205142Y-122372380D01*
X117586095Y-122372380D01*
X117586095Y-121372380D01*
X117252761Y-121372380D01*
X117157523Y-121420000D01*
X117109904Y-121467619D01*
X117062285Y-121562857D01*
X117062285Y-121658095D01*
X117109904Y-121753333D01*
X117157523Y-121800952D01*
X117252761Y-121848571D01*
X117586095Y-121848571D01*
X116062285Y-122372380D02*
X116633714Y-122372380D01*
X116348000Y-122372380D02*
X116348000Y-121372380D01*
X116443238Y-121515238D01*
X116538476Y-121610476D01*
X116633714Y-121658095D01*
X118514666Y-114752380D02*
X118514666Y-113752380D01*
X118133714Y-113752380D01*
X118038476Y-113800000D01*
X117990857Y-113847619D01*
X117943238Y-113942857D01*
X117943238Y-114085714D01*
X117990857Y-114180952D01*
X118038476Y-114228571D01*
X118133714Y-114276190D01*
X118514666Y-114276190D01*
X117562285Y-114466666D02*
X117086095Y-114466666D01*
X117657523Y-114752380D02*
X117324190Y-113752380D01*
X116990857Y-114752380D01*
X116228952Y-113752380D02*
X116419428Y-113752380D01*
X116514666Y-113800000D01*
X116562285Y-113847619D01*
X116657523Y-113990476D01*
X116705142Y-114180952D01*
X116705142Y-114561904D01*
X116657523Y-114657142D01*
X116609904Y-114704761D01*
X116514666Y-114752380D01*
X116324190Y-114752380D01*
X116228952Y-114704761D01*
X116181333Y-114657142D01*
X116133714Y-114561904D01*
X116133714Y-114323809D01*
X116181333Y-114228571D01*
X116228952Y-114180952D01*
X116324190Y-114133333D01*
X116514666Y-114133333D01*
X116609904Y-114180952D01*
X116657523Y-114228571D01*
X116705142Y-114323809D01*
X118514666Y-117292380D02*
X118514666Y-116292380D01*
X118133714Y-116292380D01*
X118038476Y-116340000D01*
X117990857Y-116387619D01*
X117943238Y-116482857D01*
X117943238Y-116625714D01*
X117990857Y-116720952D01*
X118038476Y-116768571D01*
X118133714Y-116816190D01*
X118514666Y-116816190D01*
X117562285Y-117006666D02*
X117086095Y-117006666D01*
X117657523Y-117292380D02*
X117324190Y-116292380D01*
X116990857Y-117292380D01*
X116752761Y-116292380D02*
X116086095Y-116292380D01*
X116514666Y-117292380D01*
X132810095Y-89352380D02*
X132810095Y-88352380D01*
X132429142Y-88352380D01*
X132333904Y-88400000D01*
X132286285Y-88447619D01*
X132238666Y-88542857D01*
X132238666Y-88685714D01*
X132286285Y-88780952D01*
X132333904Y-88828571D01*
X132429142Y-88876190D01*
X132810095Y-88876190D01*
X131476761Y-88828571D02*
X131333904Y-88876190D01*
X131286285Y-88923809D01*
X131238666Y-89019047D01*
X131238666Y-89161904D01*
X131286285Y-89257142D01*
X131333904Y-89304761D01*
X131429142Y-89352380D01*
X131810095Y-89352380D01*
X131810095Y-88352380D01*
X131476761Y-88352380D01*
X131381523Y-88400000D01*
X131333904Y-88447619D01*
X131286285Y-88542857D01*
X131286285Y-88638095D01*
X131333904Y-88733333D01*
X131381523Y-88780952D01*
X131476761Y-88828571D01*
X131810095Y-88828571D01*
X130905333Y-88352380D02*
X130238666Y-88352380D01*
X130667238Y-89352380D01*
X119570285Y-129992380D02*
X119570285Y-128992380D01*
X119189333Y-128992380D01*
X119094095Y-129040000D01*
X119046476Y-129087619D01*
X118998857Y-129182857D01*
X118998857Y-129325714D01*
X119046476Y-129420952D01*
X119094095Y-129468571D01*
X119189333Y-129516190D01*
X119570285Y-129516190D01*
X118236952Y-129468571D02*
X118094095Y-129516190D01*
X118046476Y-129563809D01*
X117998857Y-129659047D01*
X117998857Y-129801904D01*
X118046476Y-129897142D01*
X118094095Y-129944761D01*
X118189333Y-129992380D01*
X118570285Y-129992380D01*
X118570285Y-128992380D01*
X118236952Y-128992380D01*
X118141714Y-129040000D01*
X118094095Y-129087619D01*
X118046476Y-129182857D01*
X118046476Y-129278095D01*
X118094095Y-129373333D01*
X118141714Y-129420952D01*
X118236952Y-129468571D01*
X118570285Y-129468571D01*
X117046476Y-129992380D02*
X117617904Y-129992380D01*
X117332190Y-129992380D02*
X117332190Y-128992380D01*
X117427428Y-129135238D01*
X117522666Y-129230476D01*
X117617904Y-129278095D01*
X116094095Y-129992380D02*
X116665523Y-129992380D01*
X116379809Y-129992380D02*
X116379809Y-128992380D01*
X116475047Y-129135238D01*
X116570285Y-129230476D01*
X116665523Y-129278095D01*
X132905333Y-106132380D02*
X132572000Y-107132380D01*
X132238666Y-106132380D01*
X131905333Y-107132380D02*
X131905333Y-106132380D01*
X131667238Y-106132380D01*
X131524380Y-106180000D01*
X131429142Y-106275238D01*
X131381523Y-106370476D01*
X131333904Y-106560952D01*
X131333904Y-106703809D01*
X131381523Y-106894285D01*
X131429142Y-106989523D01*
X131524380Y-107084761D01*
X131667238Y-107132380D01*
X131905333Y-107132380D01*
X130905333Y-107132380D02*
X130905333Y-106132380D01*
X130667238Y-106132380D01*
X130524380Y-106180000D01*
X130429142Y-106275238D01*
X130381523Y-106370476D01*
X130333904Y-106560952D01*
X130333904Y-106703809D01*
X130381523Y-106894285D01*
X130429142Y-106989523D01*
X130524380Y-107084761D01*
X130667238Y-107132380D01*
X130905333Y-107132380D01*
X132778285Y-127452380D02*
X132778285Y-126452380D01*
X132397333Y-126452380D01*
X132302095Y-126500000D01*
X132254476Y-126547619D01*
X132206857Y-126642857D01*
X132206857Y-126785714D01*
X132254476Y-126880952D01*
X132302095Y-126928571D01*
X132397333Y-126976190D01*
X132778285Y-126976190D01*
X131444952Y-126928571D02*
X131302095Y-126976190D01*
X131254476Y-127023809D01*
X131206857Y-127119047D01*
X131206857Y-127261904D01*
X131254476Y-127357142D01*
X131302095Y-127404761D01*
X131397333Y-127452380D01*
X131778285Y-127452380D01*
X131778285Y-126452380D01*
X131444952Y-126452380D01*
X131349714Y-126500000D01*
X131302095Y-126547619D01*
X131254476Y-126642857D01*
X131254476Y-126738095D01*
X131302095Y-126833333D01*
X131349714Y-126880952D01*
X131444952Y-126928571D01*
X131778285Y-126928571D01*
X130254476Y-127452380D02*
X130825904Y-127452380D01*
X130540190Y-127452380D02*
X130540190Y-126452380D01*
X130635428Y-126595238D01*
X130730666Y-126690476D01*
X130825904Y-126738095D01*
X129349714Y-126452380D02*
X129825904Y-126452380D01*
X129873523Y-126928571D01*
X129825904Y-126880952D01*
X129730666Y-126833333D01*
X129492571Y-126833333D01*
X129397333Y-126880952D01*
X129349714Y-126928571D01*
X129302095Y-127023809D01*
X129302095Y-127261904D01*
X129349714Y-127357142D01*
X129397333Y-127404761D01*
X129492571Y-127452380D01*
X129730666Y-127452380D01*
X129825904Y-127404761D01*
X129873523Y-127357142D01*
X118633714Y-131532380D02*
X118300380Y-132532380D01*
X117967047Y-131532380D01*
X117681333Y-132484761D02*
X117538476Y-132532380D01*
X117300380Y-132532380D01*
X117205142Y-132484761D01*
X117157523Y-132437142D01*
X117109904Y-132341904D01*
X117109904Y-132246666D01*
X117157523Y-132151428D01*
X117205142Y-132103809D01*
X117300380Y-132056190D01*
X117490857Y-132008571D01*
X117586095Y-131960952D01*
X117633714Y-131913333D01*
X117681333Y-131818095D01*
X117681333Y-131722857D01*
X117633714Y-131627619D01*
X117586095Y-131580000D01*
X117490857Y-131532380D01*
X117252761Y-131532380D01*
X117109904Y-131580000D01*
X116728952Y-132484761D02*
X116586095Y-132532380D01*
X116348000Y-132532380D01*
X116252761Y-132484761D01*
X116205142Y-132437142D01*
X116157523Y-132341904D01*
X116157523Y-132246666D01*
X116205142Y-132151428D01*
X116252761Y-132103809D01*
X116348000Y-132056190D01*
X116538476Y-132008571D01*
X116633714Y-131960952D01*
X116681333Y-131913333D01*
X116728952Y-131818095D01*
X116728952Y-131722857D01*
X116681333Y-131627619D01*
X116633714Y-131580000D01*
X116538476Y-131532380D01*
X116300380Y-131532380D01*
X116157523Y-131580000D01*
X118514666Y-109672380D02*
X118514666Y-108672380D01*
X118133714Y-108672380D01*
X118038476Y-108720000D01*
X117990857Y-108767619D01*
X117943238Y-108862857D01*
X117943238Y-109005714D01*
X117990857Y-109100952D01*
X118038476Y-109148571D01*
X118133714Y-109196190D01*
X118514666Y-109196190D01*
X117562285Y-109386666D02*
X117086095Y-109386666D01*
X117657523Y-109672380D02*
X117324190Y-108672380D01*
X116990857Y-109672380D01*
X116228952Y-109005714D02*
X116228952Y-109672380D01*
X116467047Y-108624761D02*
X116705142Y-109339047D01*
X116086095Y-109339047D01*
X132810095Y-84272380D02*
X132810095Y-83272380D01*
X132429142Y-83272380D01*
X132333904Y-83320000D01*
X132286285Y-83367619D01*
X132238666Y-83462857D01*
X132238666Y-83605714D01*
X132286285Y-83700952D01*
X132333904Y-83748571D01*
X132429142Y-83796190D01*
X132810095Y-83796190D01*
X131476761Y-83748571D02*
X131333904Y-83796190D01*
X131286285Y-83843809D01*
X131238666Y-83939047D01*
X131238666Y-84081904D01*
X131286285Y-84177142D01*
X131333904Y-84224761D01*
X131429142Y-84272380D01*
X131810095Y-84272380D01*
X131810095Y-83272380D01*
X131476761Y-83272380D01*
X131381523Y-83320000D01*
X131333904Y-83367619D01*
X131286285Y-83462857D01*
X131286285Y-83558095D01*
X131333904Y-83653333D01*
X131381523Y-83700952D01*
X131476761Y-83748571D01*
X131810095Y-83748571D01*
X130667238Y-83700952D02*
X130762476Y-83653333D01*
X130810095Y-83605714D01*
X130857714Y-83510476D01*
X130857714Y-83462857D01*
X130810095Y-83367619D01*
X130762476Y-83320000D01*
X130667238Y-83272380D01*
X130476761Y-83272380D01*
X130381523Y-83320000D01*
X130333904Y-83367619D01*
X130286285Y-83462857D01*
X130286285Y-83510476D01*
X130333904Y-83605714D01*
X130381523Y-83653333D01*
X130476761Y-83700952D01*
X130667238Y-83700952D01*
X130762476Y-83748571D01*
X130810095Y-83796190D01*
X130857714Y-83891428D01*
X130857714Y-84081904D01*
X130810095Y-84177142D01*
X130762476Y-84224761D01*
X130667238Y-84272380D01*
X130476761Y-84272380D01*
X130381523Y-84224761D01*
X130333904Y-84177142D01*
X130286285Y-84081904D01*
X130286285Y-83891428D01*
X130333904Y-83796190D01*
X130381523Y-83748571D01*
X130476761Y-83700952D01*
X132706857Y-102052380D02*
X132706857Y-101052380D01*
X132325904Y-101052380D01*
X132230666Y-101100000D01*
X132183047Y-101147619D01*
X132135428Y-101242857D01*
X132135428Y-101385714D01*
X132183047Y-101480952D01*
X132230666Y-101528571D01*
X132325904Y-101576190D01*
X132706857Y-101576190D01*
X131754476Y-101766666D02*
X131278285Y-101766666D01*
X131849714Y-102052380D02*
X131516380Y-101052380D01*
X131183047Y-102052380D01*
X130325904Y-102052380D02*
X130897333Y-102052380D01*
X130611619Y-102052380D02*
X130611619Y-101052380D01*
X130706857Y-101195238D01*
X130802095Y-101290476D01*
X130897333Y-101338095D01*
X129421142Y-101052380D02*
X129897333Y-101052380D01*
X129944952Y-101528571D01*
X129897333Y-101480952D01*
X129802095Y-101433333D01*
X129564000Y-101433333D01*
X129468761Y-101480952D01*
X129421142Y-101528571D01*
X129373523Y-101623809D01*
X129373523Y-101861904D01*
X129421142Y-101957142D01*
X129468761Y-102004761D01*
X129564000Y-102052380D01*
X129802095Y-102052380D01*
X129897333Y-102004761D01*
X129944952Y-101957142D01*
X118514666Y-107132380D02*
X118514666Y-106132380D01*
X118133714Y-106132380D01*
X118038476Y-106180000D01*
X117990857Y-106227619D01*
X117943238Y-106322857D01*
X117943238Y-106465714D01*
X117990857Y-106560952D01*
X118038476Y-106608571D01*
X118133714Y-106656190D01*
X118514666Y-106656190D01*
X117562285Y-106846666D02*
X117086095Y-106846666D01*
X117657523Y-107132380D02*
X117324190Y-106132380D01*
X116990857Y-107132380D01*
X116752761Y-106132380D02*
X116133714Y-106132380D01*
X116467047Y-106513333D01*
X116324190Y-106513333D01*
X116228952Y-106560952D01*
X116181333Y-106608571D01*
X116133714Y-106703809D01*
X116133714Y-106941904D01*
X116181333Y-107037142D01*
X116228952Y-107084761D01*
X116324190Y-107132380D01*
X116609904Y-107132380D01*
X116705142Y-107084761D01*
X116752761Y-107037142D01*
X119570285Y-84272380D02*
X119570285Y-83272380D01*
X119189333Y-83272380D01*
X119094095Y-83320000D01*
X119046476Y-83367619D01*
X118998857Y-83462857D01*
X118998857Y-83605714D01*
X119046476Y-83700952D01*
X119094095Y-83748571D01*
X119189333Y-83796190D01*
X119570285Y-83796190D01*
X117998857Y-84177142D02*
X118046476Y-84224761D01*
X118189333Y-84272380D01*
X118284571Y-84272380D01*
X118427428Y-84224761D01*
X118522666Y-84129523D01*
X118570285Y-84034285D01*
X118617904Y-83843809D01*
X118617904Y-83700952D01*
X118570285Y-83510476D01*
X118522666Y-83415238D01*
X118427428Y-83320000D01*
X118284571Y-83272380D01*
X118189333Y-83272380D01*
X118046476Y-83320000D01*
X117998857Y-83367619D01*
X117046476Y-84272380D02*
X117617904Y-84272380D01*
X117332190Y-84272380D02*
X117332190Y-83272380D01*
X117427428Y-83415238D01*
X117522666Y-83510476D01*
X117617904Y-83558095D01*
X116141714Y-83272380D02*
X116617904Y-83272380D01*
X116665523Y-83748571D01*
X116617904Y-83700952D01*
X116522666Y-83653333D01*
X116284571Y-83653333D01*
X116189333Y-83700952D01*
X116141714Y-83748571D01*
X116094095Y-83843809D01*
X116094095Y-84081904D01*
X116141714Y-84177142D01*
X116189333Y-84224761D01*
X116284571Y-84272380D01*
X116522666Y-84272380D01*
X116617904Y-84224761D01*
X116665523Y-84177142D01*
X118514666Y-112212380D02*
X118514666Y-111212380D01*
X118133714Y-111212380D01*
X118038476Y-111260000D01*
X117990857Y-111307619D01*
X117943238Y-111402857D01*
X117943238Y-111545714D01*
X117990857Y-111640952D01*
X118038476Y-111688571D01*
X118133714Y-111736190D01*
X118514666Y-111736190D01*
X117562285Y-111926666D02*
X117086095Y-111926666D01*
X117657523Y-112212380D02*
X117324190Y-111212380D01*
X116990857Y-112212380D01*
X116181333Y-111212380D02*
X116657523Y-111212380D01*
X116705142Y-111688571D01*
X116657523Y-111640952D01*
X116562285Y-111593333D01*
X116324190Y-111593333D01*
X116228952Y-111640952D01*
X116181333Y-111688571D01*
X116133714Y-111783809D01*
X116133714Y-112021904D01*
X116181333Y-112117142D01*
X116228952Y-112164761D01*
X116324190Y-112212380D01*
X116562285Y-112212380D01*
X116657523Y-112164761D01*
X116705142Y-112117142D01*
X132738666Y-122372380D02*
X132738666Y-121372380D01*
X132357714Y-121372380D01*
X132262476Y-121420000D01*
X132214857Y-121467619D01*
X132167238Y-121562857D01*
X132167238Y-121705714D01*
X132214857Y-121800952D01*
X132262476Y-121848571D01*
X132357714Y-121896190D01*
X132738666Y-121896190D01*
X131786285Y-122086666D02*
X131310095Y-122086666D01*
X131881523Y-122372380D02*
X131548190Y-121372380D01*
X131214857Y-122372380D01*
X130833904Y-122372380D02*
X130643428Y-122372380D01*
X130548190Y-122324761D01*
X130500571Y-122277142D01*
X130405333Y-122134285D01*
X130357714Y-121943809D01*
X130357714Y-121562857D01*
X130405333Y-121467619D01*
X130452952Y-121420000D01*
X130548190Y-121372380D01*
X130738666Y-121372380D01*
X130833904Y-121420000D01*
X130881523Y-121467619D01*
X130929142Y-121562857D01*
X130929142Y-121800952D01*
X130881523Y-121896190D01*
X130833904Y-121943809D01*
X130738666Y-121991428D01*
X130548190Y-121991428D01*
X130452952Y-121943809D01*
X130405333Y-121896190D01*
X130357714Y-121800952D01*
X132810095Y-94432380D02*
X132810095Y-93432380D01*
X132429142Y-93432380D01*
X132333904Y-93480000D01*
X132286285Y-93527619D01*
X132238666Y-93622857D01*
X132238666Y-93765714D01*
X132286285Y-93860952D01*
X132333904Y-93908571D01*
X132429142Y-93956190D01*
X132810095Y-93956190D01*
X131476761Y-93908571D02*
X131333904Y-93956190D01*
X131286285Y-94003809D01*
X131238666Y-94099047D01*
X131238666Y-94241904D01*
X131286285Y-94337142D01*
X131333904Y-94384761D01*
X131429142Y-94432380D01*
X131810095Y-94432380D01*
X131810095Y-93432380D01*
X131476761Y-93432380D01*
X131381523Y-93480000D01*
X131333904Y-93527619D01*
X131286285Y-93622857D01*
X131286285Y-93718095D01*
X131333904Y-93813333D01*
X131381523Y-93860952D01*
X131476761Y-93908571D01*
X131810095Y-93908571D01*
X130333904Y-93432380D02*
X130810095Y-93432380D01*
X130857714Y-93908571D01*
X130810095Y-93860952D01*
X130714857Y-93813333D01*
X130476761Y-93813333D01*
X130381523Y-93860952D01*
X130333904Y-93908571D01*
X130286285Y-94003809D01*
X130286285Y-94241904D01*
X130333904Y-94337142D01*
X130381523Y-94384761D01*
X130476761Y-94432380D01*
X130714857Y-94432380D01*
X130810095Y-94384761D01*
X130857714Y-94337142D01*
X132706857Y-119832380D02*
X132706857Y-118832380D01*
X132325904Y-118832380D01*
X132230666Y-118880000D01*
X132183047Y-118927619D01*
X132135428Y-119022857D01*
X132135428Y-119165714D01*
X132183047Y-119260952D01*
X132230666Y-119308571D01*
X132325904Y-119356190D01*
X132706857Y-119356190D01*
X131754476Y-119546666D02*
X131278285Y-119546666D01*
X131849714Y-119832380D02*
X131516380Y-118832380D01*
X131183047Y-119832380D01*
X130325904Y-119832380D02*
X130897333Y-119832380D01*
X130611619Y-119832380D02*
X130611619Y-118832380D01*
X130706857Y-118975238D01*
X130802095Y-119070476D01*
X130897333Y-119118095D01*
X129706857Y-118832380D02*
X129611619Y-118832380D01*
X129516380Y-118880000D01*
X129468761Y-118927619D01*
X129421142Y-119022857D01*
X129373523Y-119213333D01*
X129373523Y-119451428D01*
X129421142Y-119641904D01*
X129468761Y-119737142D01*
X129516380Y-119784761D01*
X129611619Y-119832380D01*
X129706857Y-119832380D01*
X129802095Y-119784761D01*
X129849714Y-119737142D01*
X129897333Y-119641904D01*
X129944952Y-119451428D01*
X129944952Y-119213333D01*
X129897333Y-119022857D01*
X129849714Y-118927619D01*
X129802095Y-118880000D01*
X129706857Y-118832380D01*
X119498857Y-91892380D02*
X119498857Y-90892380D01*
X118927428Y-91892380D01*
X118927428Y-90892380D01*
X117879809Y-91892380D02*
X118213142Y-91416190D01*
X118451238Y-91892380D02*
X118451238Y-90892380D01*
X118070285Y-90892380D01*
X117975047Y-90940000D01*
X117927428Y-90987619D01*
X117879809Y-91082857D01*
X117879809Y-91225714D01*
X117927428Y-91320952D01*
X117975047Y-91368571D01*
X118070285Y-91416190D01*
X118451238Y-91416190D01*
X117498857Y-91844761D02*
X117356000Y-91892380D01*
X117117904Y-91892380D01*
X117022666Y-91844761D01*
X116975047Y-91797142D01*
X116927428Y-91701904D01*
X116927428Y-91606666D01*
X116975047Y-91511428D01*
X117022666Y-91463809D01*
X117117904Y-91416190D01*
X117308380Y-91368571D01*
X117403619Y-91320952D01*
X117451238Y-91273333D01*
X117498857Y-91178095D01*
X117498857Y-91082857D01*
X117451238Y-90987619D01*
X117403619Y-90940000D01*
X117308380Y-90892380D01*
X117070285Y-90892380D01*
X116927428Y-90940000D01*
X116641714Y-90892380D02*
X116070285Y-90892380D01*
X116356000Y-91892380D02*
X116356000Y-90892380D01*
X132706857Y-104592380D02*
X132706857Y-103592380D01*
X132325904Y-103592380D01*
X132230666Y-103640000D01*
X132183047Y-103687619D01*
X132135428Y-103782857D01*
X132135428Y-103925714D01*
X132183047Y-104020952D01*
X132230666Y-104068571D01*
X132325904Y-104116190D01*
X132706857Y-104116190D01*
X131754476Y-104306666D02*
X131278285Y-104306666D01*
X131849714Y-104592380D02*
X131516380Y-103592380D01*
X131183047Y-104592380D01*
X130325904Y-104592380D02*
X130897333Y-104592380D01*
X130611619Y-104592380D02*
X130611619Y-103592380D01*
X130706857Y-103735238D01*
X130802095Y-103830476D01*
X130897333Y-103878095D01*
X129468761Y-103925714D02*
X129468761Y-104592380D01*
X129706857Y-103544761D02*
X129944952Y-104259047D01*
X129325904Y-104259047D01*
X119570285Y-79192380D02*
X119570285Y-78192380D01*
X119189333Y-78192380D01*
X119094095Y-78240000D01*
X119046476Y-78287619D01*
X118998857Y-78382857D01*
X118998857Y-78525714D01*
X119046476Y-78620952D01*
X119094095Y-78668571D01*
X119189333Y-78716190D01*
X119570285Y-78716190D01*
X117998857Y-79097142D02*
X118046476Y-79144761D01*
X118189333Y-79192380D01*
X118284571Y-79192380D01*
X118427428Y-79144761D01*
X118522666Y-79049523D01*
X118570285Y-78954285D01*
X118617904Y-78763809D01*
X118617904Y-78620952D01*
X118570285Y-78430476D01*
X118522666Y-78335238D01*
X118427428Y-78240000D01*
X118284571Y-78192380D01*
X118189333Y-78192380D01*
X118046476Y-78240000D01*
X117998857Y-78287619D01*
X117046476Y-79192380D02*
X117617904Y-79192380D01*
X117332190Y-79192380D02*
X117332190Y-78192380D01*
X117427428Y-78335238D01*
X117522666Y-78430476D01*
X117617904Y-78478095D01*
X116713142Y-78192380D02*
X116094095Y-78192380D01*
X116427428Y-78573333D01*
X116284571Y-78573333D01*
X116189333Y-78620952D01*
X116141714Y-78668571D01*
X116094095Y-78763809D01*
X116094095Y-79001904D01*
X116141714Y-79097142D01*
X116189333Y-79144761D01*
X116284571Y-79192380D01*
X116570285Y-79192380D01*
X116665523Y-79144761D01*
X116713142Y-79097142D01*
X132778285Y-129992380D02*
X132778285Y-128992380D01*
X132397333Y-128992380D01*
X132302095Y-129040000D01*
X132254476Y-129087619D01*
X132206857Y-129182857D01*
X132206857Y-129325714D01*
X132254476Y-129420952D01*
X132302095Y-129468571D01*
X132397333Y-129516190D01*
X132778285Y-129516190D01*
X131444952Y-129468571D02*
X131302095Y-129516190D01*
X131254476Y-129563809D01*
X131206857Y-129659047D01*
X131206857Y-129801904D01*
X131254476Y-129897142D01*
X131302095Y-129944761D01*
X131397333Y-129992380D01*
X131778285Y-129992380D01*
X131778285Y-128992380D01*
X131444952Y-128992380D01*
X131349714Y-129040000D01*
X131302095Y-129087619D01*
X131254476Y-129182857D01*
X131254476Y-129278095D01*
X131302095Y-129373333D01*
X131349714Y-129420952D01*
X131444952Y-129468571D01*
X131778285Y-129468571D01*
X130254476Y-129992380D02*
X130825904Y-129992380D01*
X130540190Y-129992380D02*
X130540190Y-128992380D01*
X130635428Y-129135238D01*
X130730666Y-129230476D01*
X130825904Y-129278095D01*
X129397333Y-129325714D02*
X129397333Y-129992380D01*
X129635428Y-128944761D02*
X129873523Y-129659047D01*
X129254476Y-129659047D01*
D11*
%TO.C,J1*%
X115630000Y-77470000D02*
X112970000Y-77470000D01*
X115630000Y-77470000D02*
X115630000Y-135950000D01*
X115630000Y-74870000D02*
X114300000Y-74870000D01*
X115630000Y-76200000D02*
X115630000Y-74870000D01*
X112970000Y-77470000D02*
X112970000Y-135950000D01*
X115630000Y-135950000D02*
X112970000Y-135950000D01*
%TO.C,J2*%
X135950000Y-77470000D02*
X135950000Y-135950000D01*
X135950000Y-77470000D02*
X133290000Y-77470000D01*
X135950000Y-76200000D02*
X135950000Y-74870000D01*
X133290000Y-77470000D02*
X133290000Y-135950000D01*
X135950000Y-74870000D02*
X134620000Y-74870000D01*
X135950000Y-135950000D02*
X133290000Y-135950000D01*
%TD*%
%LPC*%
D12*
%TO.C,H1*%
X124460000Y-78740000D03*
%TD*%
%TO.C,H2*%
X124460000Y-132080000D03*
%TD*%
D13*
%TO.C,J1*%
X114300000Y-76200000D03*
D14*
X114300000Y-78740000D03*
X114300000Y-81280000D03*
X114300000Y-83820000D03*
X114300000Y-86360000D03*
X114300000Y-88900000D03*
X114300000Y-91440000D03*
X114300000Y-93980000D03*
X114300000Y-96520000D03*
X114300000Y-99060000D03*
X114300000Y-101600000D03*
X114300000Y-104140000D03*
X114300000Y-106680000D03*
X114300000Y-109220000D03*
X114300000Y-111760000D03*
X114300000Y-114300000D03*
X114300000Y-116840000D03*
X114300000Y-119380000D03*
X114300000Y-121920000D03*
X114300000Y-124460000D03*
X114300000Y-127000000D03*
X114300000Y-129540000D03*
X114300000Y-132080000D03*
X114300000Y-134620000D03*
%TD*%
D13*
%TO.C,J2*%
X134620000Y-76200000D03*
D14*
X134620000Y-78740000D03*
X134620000Y-81280000D03*
X134620000Y-83820000D03*
X134620000Y-86360000D03*
X134620000Y-88900000D03*
X134620000Y-91440000D03*
X134620000Y-93980000D03*
X134620000Y-96520000D03*
X134620000Y-99060000D03*
X134620000Y-101600000D03*
X134620000Y-104140000D03*
X134620000Y-106680000D03*
X134620000Y-109220000D03*
X134620000Y-111760000D03*
X134620000Y-114300000D03*
X134620000Y-116840000D03*
X134620000Y-119380000D03*
X134620000Y-121920000D03*
X134620000Y-124460000D03*
X134620000Y-127000000D03*
X134620000Y-129540000D03*
X134620000Y-132080000D03*
X134620000Y-134620000D03*
%TD*%
M02*
