%TF.GenerationSoftware,KiCad,Pcbnew,(6.0.2)*%
%TF.CreationDate,2022-10-19T19:09:35+02:00*%
%TF.ProjectId,adapter_LQFP48,61646170-7465-4725-9f4c-51465034382e,rev?*%
%TF.SameCoordinates,Original*%
%TF.FileFunction,Paste,Top*%
%TF.FilePolarity,Positive*%
%FSLAX46Y46*%
G04 Gerber Fmt 4.6, Leading zero omitted, Abs format (unit mm)*
G04 Created by KiCad (PCBNEW (6.0.2)) date 2022-10-19 19:09:35*
%MOMM*%
%LPD*%
G01*
G04 APERTURE LIST*
G04 Aperture macros list*
%AMRoundRect*
0 Rectangle with rounded corners*
0 $1 Rounding radius*
0 $2 $3 $4 $5 $6 $7 $8 $9 X,Y pos of 4 corners*
0 Add a 4 corners polygon primitive as box body*
4,1,4,$2,$3,$4,$5,$6,$7,$8,$9,$2,$3,0*
0 Add four circle primitives for the rounded corners*
1,1,$1+$1,$2,$3*
1,1,$1+$1,$4,$5*
1,1,$1+$1,$6,$7*
1,1,$1+$1,$8,$9*
0 Add four rect primitives between the rounded corners*
20,1,$1+$1,$2,$3,$4,$5,0*
20,1,$1+$1,$4,$5,$6,$7,0*
20,1,$1+$1,$6,$7,$8,$9,0*
20,1,$1+$1,$8,$9,$2,$3,0*%
G04 Aperture macros list end*
%ADD10RoundRect,0.075000X-0.521491X0.415425X0.415425X-0.521491X0.521491X-0.415425X-0.415425X0.521491X0*%
%ADD11RoundRect,0.075000X-0.521491X-0.415425X-0.415425X-0.521491X0.521491X0.415425X0.415425X0.521491X0*%
G04 APERTURE END LIST*
D10*
%TO.C,U1*%
X123461212Y-100522124D03*
X123107658Y-100875678D03*
X122754105Y-101229231D03*
X122400551Y-101582785D03*
X122046998Y-101936338D03*
X121693445Y-102289891D03*
X121339891Y-102643445D03*
X120986338Y-102996998D03*
X120632785Y-103350551D03*
X120279231Y-103704105D03*
X119925678Y-104057658D03*
X119572124Y-104411212D03*
D11*
X119572124Y-106408788D03*
X119925678Y-106762342D03*
X120279231Y-107115895D03*
X120632785Y-107469449D03*
X120986338Y-107823002D03*
X121339891Y-108176555D03*
X121693445Y-108530109D03*
X122046998Y-108883662D03*
X122400551Y-109237215D03*
X122754105Y-109590769D03*
X123107658Y-109944322D03*
X123461212Y-110297876D03*
D10*
X125458788Y-110297876D03*
X125812342Y-109944322D03*
X126165895Y-109590769D03*
X126519449Y-109237215D03*
X126873002Y-108883662D03*
X127226555Y-108530109D03*
X127580109Y-108176555D03*
X127933662Y-107823002D03*
X128287215Y-107469449D03*
X128640769Y-107115895D03*
X128994322Y-106762342D03*
X129347876Y-106408788D03*
D11*
X129347876Y-104411212D03*
X128994322Y-104057658D03*
X128640769Y-103704105D03*
X128287215Y-103350551D03*
X127933662Y-102996998D03*
X127580109Y-102643445D03*
X127226555Y-102289891D03*
X126873002Y-101936338D03*
X126519449Y-101582785D03*
X126165895Y-101229231D03*
X125812342Y-100875678D03*
X125458788Y-100522124D03*
%TD*%
M02*
