%TF.GenerationSoftware,KiCad,Pcbnew,(6.0.2)*%
%TF.CreationDate,2022-10-19T19:09:35+02:00*%
%TF.ProjectId,adapter_LQFP48,61646170-7465-4725-9f4c-51465034382e,rev?*%
%TF.SameCoordinates,Original*%
%TF.FileFunction,Legend,Top*%
%TF.FilePolarity,Positive*%
%FSLAX46Y46*%
G04 Gerber Fmt 4.6, Leading zero omitted, Abs format (unit mm)*
G04 Created by KiCad (PCBNEW (6.0.2)) date 2022-10-19 19:09:35*
%MOMM*%
%LPD*%
G01*
G04 APERTURE LIST*
G04 Aperture macros list*
%AMRoundRect*
0 Rectangle with rounded corners*
0 $1 Rounding radius*
0 $2 $3 $4 $5 $6 $7 $8 $9 X,Y pos of 4 corners*
0 Add a 4 corners polygon primitive as box body*
4,1,4,$2,$3,$4,$5,$6,$7,$8,$9,$2,$3,0*
0 Add four circle primitives for the rounded corners*
1,1,$1+$1,$2,$3*
1,1,$1+$1,$4,$5*
1,1,$1+$1,$6,$7*
1,1,$1+$1,$8,$9*
0 Add four rect primitives between the rounded corners*
20,1,$1+$1,$2,$3,$4,$5,0*
20,1,$1+$1,$4,$5,$6,$7,0*
20,1,$1+$1,$6,$7,$8,$9,0*
20,1,$1+$1,$8,$9,$2,$3,0*%
G04 Aperture macros list end*
%ADD10C,0.150000*%
%ADD11C,0.120000*%
%ADD12C,3.200000*%
%ADD13RoundRect,0.075000X-0.521491X0.415425X0.415425X-0.521491X0.521491X-0.415425X-0.415425X0.521491X0*%
%ADD14RoundRect,0.075000X-0.521491X-0.415425X-0.415425X-0.521491X0.521491X0.415425X0.415425X0.521491X0*%
%ADD15R,1.700000X1.700000*%
%ADD16O,1.700000X1.700000*%
G04 APERTURE END LIST*
D10*
X115673333Y-107132380D02*
X115673333Y-106132380D01*
X116054285Y-106132380D01*
X116149523Y-106180000D01*
X116197142Y-106227619D01*
X116244761Y-106322857D01*
X116244761Y-106465714D01*
X116197142Y-106560952D01*
X116149523Y-106608571D01*
X116054285Y-106656190D01*
X115673333Y-106656190D01*
X116625714Y-106846666D02*
X117101904Y-106846666D01*
X116530476Y-107132380D02*
X116863809Y-106132380D01*
X117197142Y-107132380D01*
X117435238Y-106132380D02*
X118054285Y-106132380D01*
X117720952Y-106513333D01*
X117863809Y-106513333D01*
X117959047Y-106560952D01*
X118006666Y-106608571D01*
X118054285Y-106703809D01*
X118054285Y-106941904D01*
X118006666Y-107037142D01*
X117959047Y-107084761D01*
X117863809Y-107132380D01*
X117578095Y-107132380D01*
X117482857Y-107084761D01*
X117435238Y-107037142D01*
X129802142Y-112212380D02*
X129802142Y-111212380D01*
X130183095Y-111212380D01*
X130278333Y-111260000D01*
X130325952Y-111307619D01*
X130373571Y-111402857D01*
X130373571Y-111545714D01*
X130325952Y-111640952D01*
X130278333Y-111688571D01*
X130183095Y-111736190D01*
X129802142Y-111736190D01*
X130754523Y-111926666D02*
X131230714Y-111926666D01*
X130659285Y-112212380D02*
X130992619Y-111212380D01*
X131325952Y-112212380D01*
X132183095Y-112212380D02*
X131611666Y-112212380D01*
X131897380Y-112212380D02*
X131897380Y-111212380D01*
X131802142Y-111355238D01*
X131706904Y-111450476D01*
X131611666Y-111498095D01*
X132516428Y-111212380D02*
X133135476Y-111212380D01*
X132802142Y-111593333D01*
X132945000Y-111593333D01*
X133040238Y-111640952D01*
X133087857Y-111688571D01*
X133135476Y-111783809D01*
X133135476Y-112021904D01*
X133087857Y-112117142D01*
X133040238Y-112164761D01*
X132945000Y-112212380D01*
X132659285Y-112212380D01*
X132564047Y-112164761D01*
X132516428Y-112117142D01*
X129730714Y-132532380D02*
X129730714Y-131532380D01*
X130111666Y-131532380D01*
X130206904Y-131580000D01*
X130254523Y-131627619D01*
X130302142Y-131722857D01*
X130302142Y-131865714D01*
X130254523Y-131960952D01*
X130206904Y-132008571D01*
X130111666Y-132056190D01*
X129730714Y-132056190D01*
X131064047Y-132008571D02*
X131206904Y-132056190D01*
X131254523Y-132103809D01*
X131302142Y-132199047D01*
X131302142Y-132341904D01*
X131254523Y-132437142D01*
X131206904Y-132484761D01*
X131111666Y-132532380D01*
X130730714Y-132532380D01*
X130730714Y-131532380D01*
X131064047Y-131532380D01*
X131159285Y-131580000D01*
X131206904Y-131627619D01*
X131254523Y-131722857D01*
X131254523Y-131818095D01*
X131206904Y-131913333D01*
X131159285Y-131960952D01*
X131064047Y-132008571D01*
X130730714Y-132008571D01*
X132254523Y-132532380D02*
X131683095Y-132532380D01*
X131968809Y-132532380D02*
X131968809Y-131532380D01*
X131873571Y-131675238D01*
X131778333Y-131770476D01*
X131683095Y-131818095D01*
X132587857Y-131532380D02*
X133206904Y-131532380D01*
X132873571Y-131913333D01*
X133016428Y-131913333D01*
X133111666Y-131960952D01*
X133159285Y-132008571D01*
X133206904Y-132103809D01*
X133206904Y-132341904D01*
X133159285Y-132437142D01*
X133111666Y-132484761D01*
X133016428Y-132532380D01*
X132730714Y-132532380D01*
X132635476Y-132484761D01*
X132587857Y-132437142D01*
X130913333Y-124912380D02*
X130913333Y-123912380D01*
X131294285Y-123912380D01*
X131389523Y-123960000D01*
X131437142Y-124007619D01*
X131484761Y-124102857D01*
X131484761Y-124245714D01*
X131437142Y-124340952D01*
X131389523Y-124388571D01*
X131294285Y-124436190D01*
X130913333Y-124436190D01*
X131865714Y-124626666D02*
X132341904Y-124626666D01*
X131770476Y-124912380D02*
X132103809Y-123912380D01*
X132437142Y-124912380D01*
X132913333Y-124340952D02*
X132818095Y-124293333D01*
X132770476Y-124245714D01*
X132722857Y-124150476D01*
X132722857Y-124102857D01*
X132770476Y-124007619D01*
X132818095Y-123960000D01*
X132913333Y-123912380D01*
X133103809Y-123912380D01*
X133199047Y-123960000D01*
X133246666Y-124007619D01*
X133294285Y-124102857D01*
X133294285Y-124150476D01*
X133246666Y-124245714D01*
X133199047Y-124293333D01*
X133103809Y-124340952D01*
X132913333Y-124340952D01*
X132818095Y-124388571D01*
X132770476Y-124436190D01*
X132722857Y-124531428D01*
X132722857Y-124721904D01*
X132770476Y-124817142D01*
X132818095Y-124864761D01*
X132913333Y-124912380D01*
X133103809Y-124912380D01*
X133199047Y-124864761D01*
X133246666Y-124817142D01*
X133294285Y-124721904D01*
X133294285Y-124531428D01*
X133246666Y-124436190D01*
X133199047Y-124388571D01*
X133103809Y-124340952D01*
X130841904Y-99512380D02*
X130841904Y-98512380D01*
X131222857Y-98512380D01*
X131318095Y-98560000D01*
X131365714Y-98607619D01*
X131413333Y-98702857D01*
X131413333Y-98845714D01*
X131365714Y-98940952D01*
X131318095Y-98988571D01*
X131222857Y-99036190D01*
X130841904Y-99036190D01*
X132175238Y-98988571D02*
X132318095Y-99036190D01*
X132365714Y-99083809D01*
X132413333Y-99179047D01*
X132413333Y-99321904D01*
X132365714Y-99417142D01*
X132318095Y-99464761D01*
X132222857Y-99512380D01*
X131841904Y-99512380D01*
X131841904Y-98512380D01*
X132175238Y-98512380D01*
X132270476Y-98560000D01*
X132318095Y-98607619D01*
X132365714Y-98702857D01*
X132365714Y-98798095D01*
X132318095Y-98893333D01*
X132270476Y-98940952D01*
X132175238Y-98988571D01*
X131841904Y-98988571D01*
X132746666Y-98512380D02*
X133365714Y-98512380D01*
X133032380Y-98893333D01*
X133175238Y-98893333D01*
X133270476Y-98940952D01*
X133318095Y-98988571D01*
X133365714Y-99083809D01*
X133365714Y-99321904D01*
X133318095Y-99417142D01*
X133270476Y-99464761D01*
X133175238Y-99512380D01*
X132889523Y-99512380D01*
X132794285Y-99464761D01*
X132746666Y-99417142D01*
X130841904Y-94432380D02*
X130841904Y-93432380D01*
X131222857Y-93432380D01*
X131318095Y-93480000D01*
X131365714Y-93527619D01*
X131413333Y-93622857D01*
X131413333Y-93765714D01*
X131365714Y-93860952D01*
X131318095Y-93908571D01*
X131222857Y-93956190D01*
X130841904Y-93956190D01*
X132175238Y-93908571D02*
X132318095Y-93956190D01*
X132365714Y-94003809D01*
X132413333Y-94099047D01*
X132413333Y-94241904D01*
X132365714Y-94337142D01*
X132318095Y-94384761D01*
X132222857Y-94432380D01*
X131841904Y-94432380D01*
X131841904Y-93432380D01*
X132175238Y-93432380D01*
X132270476Y-93480000D01*
X132318095Y-93527619D01*
X132365714Y-93622857D01*
X132365714Y-93718095D01*
X132318095Y-93813333D01*
X132270476Y-93860952D01*
X132175238Y-93908571D01*
X131841904Y-93908571D01*
X133318095Y-93432380D02*
X132841904Y-93432380D01*
X132794285Y-93908571D01*
X132841904Y-93860952D01*
X132937142Y-93813333D01*
X133175238Y-93813333D01*
X133270476Y-93860952D01*
X133318095Y-93908571D01*
X133365714Y-94003809D01*
X133365714Y-94241904D01*
X133318095Y-94337142D01*
X133270476Y-94384761D01*
X133175238Y-94432380D01*
X132937142Y-94432380D01*
X132841904Y-94384761D01*
X132794285Y-94337142D01*
X130841904Y-89352380D02*
X130841904Y-88352380D01*
X131222857Y-88352380D01*
X131318095Y-88400000D01*
X131365714Y-88447619D01*
X131413333Y-88542857D01*
X131413333Y-88685714D01*
X131365714Y-88780952D01*
X131318095Y-88828571D01*
X131222857Y-88876190D01*
X130841904Y-88876190D01*
X132175238Y-88828571D02*
X132318095Y-88876190D01*
X132365714Y-88923809D01*
X132413333Y-89019047D01*
X132413333Y-89161904D01*
X132365714Y-89257142D01*
X132318095Y-89304761D01*
X132222857Y-89352380D01*
X131841904Y-89352380D01*
X131841904Y-88352380D01*
X132175238Y-88352380D01*
X132270476Y-88400000D01*
X132318095Y-88447619D01*
X132365714Y-88542857D01*
X132365714Y-88638095D01*
X132318095Y-88733333D01*
X132270476Y-88780952D01*
X132175238Y-88828571D01*
X131841904Y-88828571D01*
X132746666Y-88352380D02*
X133413333Y-88352380D01*
X132984761Y-89352380D01*
X130746666Y-75652380D02*
X131080000Y-76652380D01*
X131413333Y-75652380D01*
X131746666Y-76652380D02*
X131746666Y-75652380D01*
X131984761Y-75652380D01*
X132127619Y-75700000D01*
X132222857Y-75795238D01*
X132270476Y-75890476D01*
X132318095Y-76080952D01*
X132318095Y-76223809D01*
X132270476Y-76414285D01*
X132222857Y-76509523D01*
X132127619Y-76604761D01*
X131984761Y-76652380D01*
X131746666Y-76652380D01*
X132746666Y-76652380D02*
X132746666Y-75652380D01*
X132984761Y-75652380D01*
X133127619Y-75700000D01*
X133222857Y-75795238D01*
X133270476Y-75890476D01*
X133318095Y-76080952D01*
X133318095Y-76223809D01*
X133270476Y-76414285D01*
X133222857Y-76509523D01*
X133127619Y-76604761D01*
X132984761Y-76652380D01*
X132746666Y-76652380D01*
X115760714Y-127452380D02*
X115760714Y-126452380D01*
X116141666Y-126452380D01*
X116236904Y-126500000D01*
X116284523Y-126547619D01*
X116332142Y-126642857D01*
X116332142Y-126785714D01*
X116284523Y-126880952D01*
X116236904Y-126928571D01*
X116141666Y-126976190D01*
X115760714Y-126976190D01*
X117094047Y-126928571D02*
X117236904Y-126976190D01*
X117284523Y-127023809D01*
X117332142Y-127119047D01*
X117332142Y-127261904D01*
X117284523Y-127357142D01*
X117236904Y-127404761D01*
X117141666Y-127452380D01*
X116760714Y-127452380D01*
X116760714Y-126452380D01*
X117094047Y-126452380D01*
X117189285Y-126500000D01*
X117236904Y-126547619D01*
X117284523Y-126642857D01*
X117284523Y-126738095D01*
X117236904Y-126833333D01*
X117189285Y-126880952D01*
X117094047Y-126928571D01*
X116760714Y-126928571D01*
X118284523Y-127452380D02*
X117713095Y-127452380D01*
X117998809Y-127452380D02*
X117998809Y-126452380D01*
X117903571Y-126595238D01*
X117808333Y-126690476D01*
X117713095Y-126738095D01*
X118903571Y-126452380D02*
X118998809Y-126452380D01*
X119094047Y-126500000D01*
X119141666Y-126547619D01*
X119189285Y-126642857D01*
X119236904Y-126833333D01*
X119236904Y-127071428D01*
X119189285Y-127261904D01*
X119141666Y-127357142D01*
X119094047Y-127404761D01*
X118998809Y-127452380D01*
X118903571Y-127452380D01*
X118808333Y-127404761D01*
X118760714Y-127357142D01*
X118713095Y-127261904D01*
X118665476Y-127071428D01*
X118665476Y-126833333D01*
X118713095Y-126642857D01*
X118760714Y-126547619D01*
X118808333Y-126500000D01*
X118903571Y-126452380D01*
X128976666Y-86288571D02*
X129119523Y-86336190D01*
X129167142Y-86383809D01*
X129214761Y-86479047D01*
X129214761Y-86621904D01*
X129167142Y-86717142D01*
X129119523Y-86764761D01*
X129024285Y-86812380D01*
X128643333Y-86812380D01*
X128643333Y-85812380D01*
X128976666Y-85812380D01*
X129071904Y-85860000D01*
X129119523Y-85907619D01*
X129167142Y-86002857D01*
X129167142Y-86098095D01*
X129119523Y-86193333D01*
X129071904Y-86240952D01*
X128976666Y-86288571D01*
X128643333Y-86288571D01*
X129833809Y-85812380D02*
X130024285Y-85812380D01*
X130119523Y-85860000D01*
X130214761Y-85955238D01*
X130262380Y-86145714D01*
X130262380Y-86479047D01*
X130214761Y-86669523D01*
X130119523Y-86764761D01*
X130024285Y-86812380D01*
X129833809Y-86812380D01*
X129738571Y-86764761D01*
X129643333Y-86669523D01*
X129595714Y-86479047D01*
X129595714Y-86145714D01*
X129643333Y-85955238D01*
X129738571Y-85860000D01*
X129833809Y-85812380D01*
X130881428Y-85812380D02*
X131071904Y-85812380D01*
X131167142Y-85860000D01*
X131262380Y-85955238D01*
X131310000Y-86145714D01*
X131310000Y-86479047D01*
X131262380Y-86669523D01*
X131167142Y-86764761D01*
X131071904Y-86812380D01*
X130881428Y-86812380D01*
X130786190Y-86764761D01*
X130690952Y-86669523D01*
X130643333Y-86479047D01*
X130643333Y-86145714D01*
X130690952Y-85955238D01*
X130786190Y-85860000D01*
X130881428Y-85812380D01*
X131595714Y-85812380D02*
X132167142Y-85812380D01*
X131881428Y-86812380D02*
X131881428Y-85812380D01*
X132690952Y-85812380D02*
X132786190Y-85812380D01*
X132881428Y-85860000D01*
X132929047Y-85907619D01*
X132976666Y-86002857D01*
X133024285Y-86193333D01*
X133024285Y-86431428D01*
X132976666Y-86621904D01*
X132929047Y-86717142D01*
X132881428Y-86764761D01*
X132786190Y-86812380D01*
X132690952Y-86812380D01*
X132595714Y-86764761D01*
X132548095Y-86717142D01*
X132500476Y-86621904D01*
X132452857Y-86431428D01*
X132452857Y-86193333D01*
X132500476Y-86002857D01*
X132548095Y-85907619D01*
X132595714Y-85860000D01*
X132690952Y-85812380D01*
X115761904Y-89352380D02*
X115761904Y-88352380D01*
X116142857Y-88352380D01*
X116238095Y-88400000D01*
X116285714Y-88447619D01*
X116333333Y-88542857D01*
X116333333Y-88685714D01*
X116285714Y-88780952D01*
X116238095Y-88828571D01*
X116142857Y-88876190D01*
X115761904Y-88876190D01*
X116761904Y-89352380D02*
X116761904Y-88352380D01*
X117000000Y-88352380D01*
X117142857Y-88400000D01*
X117238095Y-88495238D01*
X117285714Y-88590476D01*
X117333333Y-88780952D01*
X117333333Y-88923809D01*
X117285714Y-89114285D01*
X117238095Y-89209523D01*
X117142857Y-89304761D01*
X117000000Y-89352380D01*
X116761904Y-89352380D01*
X118285714Y-89352380D02*
X117714285Y-89352380D01*
X118000000Y-89352380D02*
X118000000Y-88352380D01*
X117904761Y-88495238D01*
X117809523Y-88590476D01*
X117714285Y-88638095D01*
X130841904Y-81732380D02*
X130841904Y-80732380D01*
X131222857Y-80732380D01*
X131318095Y-80780000D01*
X131365714Y-80827619D01*
X131413333Y-80922857D01*
X131413333Y-81065714D01*
X131365714Y-81160952D01*
X131318095Y-81208571D01*
X131222857Y-81256190D01*
X130841904Y-81256190D01*
X132175238Y-81208571D02*
X132318095Y-81256190D01*
X132365714Y-81303809D01*
X132413333Y-81399047D01*
X132413333Y-81541904D01*
X132365714Y-81637142D01*
X132318095Y-81684761D01*
X132222857Y-81732380D01*
X131841904Y-81732380D01*
X131841904Y-80732380D01*
X132175238Y-80732380D01*
X132270476Y-80780000D01*
X132318095Y-80827619D01*
X132365714Y-80922857D01*
X132365714Y-81018095D01*
X132318095Y-81113333D01*
X132270476Y-81160952D01*
X132175238Y-81208571D01*
X131841904Y-81208571D01*
X132889523Y-81732380D02*
X133080000Y-81732380D01*
X133175238Y-81684761D01*
X133222857Y-81637142D01*
X133318095Y-81494285D01*
X133365714Y-81303809D01*
X133365714Y-80922857D01*
X133318095Y-80827619D01*
X133270476Y-80780000D01*
X133175238Y-80732380D01*
X132984761Y-80732380D01*
X132889523Y-80780000D01*
X132841904Y-80827619D01*
X132794285Y-80922857D01*
X132794285Y-81160952D01*
X132841904Y-81256190D01*
X132889523Y-81303809D01*
X132984761Y-81351428D01*
X133175238Y-81351428D01*
X133270476Y-81303809D01*
X133318095Y-81256190D01*
X133365714Y-81160952D01*
X115673333Y-114752380D02*
X115673333Y-113752380D01*
X116054285Y-113752380D01*
X116149523Y-113800000D01*
X116197142Y-113847619D01*
X116244761Y-113942857D01*
X116244761Y-114085714D01*
X116197142Y-114180952D01*
X116149523Y-114228571D01*
X116054285Y-114276190D01*
X115673333Y-114276190D01*
X116625714Y-114466666D02*
X117101904Y-114466666D01*
X116530476Y-114752380D02*
X116863809Y-113752380D01*
X117197142Y-114752380D01*
X117959047Y-113752380D02*
X117768571Y-113752380D01*
X117673333Y-113800000D01*
X117625714Y-113847619D01*
X117530476Y-113990476D01*
X117482857Y-114180952D01*
X117482857Y-114561904D01*
X117530476Y-114657142D01*
X117578095Y-114704761D01*
X117673333Y-114752380D01*
X117863809Y-114752380D01*
X117959047Y-114704761D01*
X118006666Y-114657142D01*
X118054285Y-114561904D01*
X118054285Y-114323809D01*
X118006666Y-114228571D01*
X117959047Y-114180952D01*
X117863809Y-114133333D01*
X117673333Y-114133333D01*
X117578095Y-114180952D01*
X117530476Y-114228571D01*
X117482857Y-114323809D01*
X115760714Y-81732380D02*
X115760714Y-80732380D01*
X116141666Y-80732380D01*
X116236904Y-80780000D01*
X116284523Y-80827619D01*
X116332142Y-80922857D01*
X116332142Y-81065714D01*
X116284523Y-81160952D01*
X116236904Y-81208571D01*
X116141666Y-81256190D01*
X115760714Y-81256190D01*
X117332142Y-81637142D02*
X117284523Y-81684761D01*
X117141666Y-81732380D01*
X117046428Y-81732380D01*
X116903571Y-81684761D01*
X116808333Y-81589523D01*
X116760714Y-81494285D01*
X116713095Y-81303809D01*
X116713095Y-81160952D01*
X116760714Y-80970476D01*
X116808333Y-80875238D01*
X116903571Y-80780000D01*
X117046428Y-80732380D01*
X117141666Y-80732380D01*
X117284523Y-80780000D01*
X117332142Y-80827619D01*
X118284523Y-81732380D02*
X117713095Y-81732380D01*
X117998809Y-81732380D02*
X117998809Y-80732380D01*
X117903571Y-80875238D01*
X117808333Y-80970476D01*
X117713095Y-81018095D01*
X119141666Y-81065714D02*
X119141666Y-81732380D01*
X118903571Y-80684761D02*
X118665476Y-81399047D01*
X119284523Y-81399047D01*
X115601904Y-124912380D02*
X115601904Y-123912380D01*
X115982857Y-123912380D01*
X116078095Y-123960000D01*
X116125714Y-124007619D01*
X116173333Y-124102857D01*
X116173333Y-124245714D01*
X116125714Y-124340952D01*
X116078095Y-124388571D01*
X115982857Y-124436190D01*
X115601904Y-124436190D01*
X116935238Y-124388571D02*
X117078095Y-124436190D01*
X117125714Y-124483809D01*
X117173333Y-124579047D01*
X117173333Y-124721904D01*
X117125714Y-124817142D01*
X117078095Y-124864761D01*
X116982857Y-124912380D01*
X116601904Y-124912380D01*
X116601904Y-123912380D01*
X116935238Y-123912380D01*
X117030476Y-123960000D01*
X117078095Y-124007619D01*
X117125714Y-124102857D01*
X117125714Y-124198095D01*
X117078095Y-124293333D01*
X117030476Y-124340952D01*
X116935238Y-124388571D01*
X116601904Y-124388571D01*
X117554285Y-124007619D02*
X117601904Y-123960000D01*
X117697142Y-123912380D01*
X117935238Y-123912380D01*
X118030476Y-123960000D01*
X118078095Y-124007619D01*
X118125714Y-124102857D01*
X118125714Y-124198095D01*
X118078095Y-124340952D01*
X117506666Y-124912380D01*
X118125714Y-124912380D01*
X129802142Y-114752380D02*
X129802142Y-113752380D01*
X130183095Y-113752380D01*
X130278333Y-113800000D01*
X130325952Y-113847619D01*
X130373571Y-113942857D01*
X130373571Y-114085714D01*
X130325952Y-114180952D01*
X130278333Y-114228571D01*
X130183095Y-114276190D01*
X129802142Y-114276190D01*
X130754523Y-114466666D02*
X131230714Y-114466666D01*
X130659285Y-114752380D02*
X130992619Y-113752380D01*
X131325952Y-114752380D01*
X132183095Y-114752380D02*
X131611666Y-114752380D01*
X131897380Y-114752380D02*
X131897380Y-113752380D01*
X131802142Y-113895238D01*
X131706904Y-113990476D01*
X131611666Y-114038095D01*
X132564047Y-113847619D02*
X132611666Y-113800000D01*
X132706904Y-113752380D01*
X132945000Y-113752380D01*
X133040238Y-113800000D01*
X133087857Y-113847619D01*
X133135476Y-113942857D01*
X133135476Y-114038095D01*
X133087857Y-114180952D01*
X132516428Y-114752380D01*
X133135476Y-114752380D01*
X115506666Y-134072380D02*
X115840000Y-135072380D01*
X116173333Y-134072380D01*
X116506666Y-135072380D02*
X116506666Y-134072380D01*
X116744761Y-134072380D01*
X116887619Y-134120000D01*
X116982857Y-134215238D01*
X117030476Y-134310476D01*
X117078095Y-134500952D01*
X117078095Y-134643809D01*
X117030476Y-134834285D01*
X116982857Y-134929523D01*
X116887619Y-135024761D01*
X116744761Y-135072380D01*
X116506666Y-135072380D01*
X117506666Y-135072380D02*
X117506666Y-134072380D01*
X117744761Y-134072380D01*
X117887619Y-134120000D01*
X117982857Y-134215238D01*
X118030476Y-134310476D01*
X118078095Y-134500952D01*
X118078095Y-134643809D01*
X118030476Y-134834285D01*
X117982857Y-134929523D01*
X117887619Y-135024761D01*
X117744761Y-135072380D01*
X117506666Y-135072380D01*
X115832142Y-91892380D02*
X115832142Y-90892380D01*
X116403571Y-91892380D01*
X116403571Y-90892380D01*
X117451190Y-91892380D02*
X117117857Y-91416190D01*
X116879761Y-91892380D02*
X116879761Y-90892380D01*
X117260714Y-90892380D01*
X117355952Y-90940000D01*
X117403571Y-90987619D01*
X117451190Y-91082857D01*
X117451190Y-91225714D01*
X117403571Y-91320952D01*
X117355952Y-91368571D01*
X117260714Y-91416190D01*
X116879761Y-91416190D01*
X117832142Y-91844761D02*
X117975000Y-91892380D01*
X118213095Y-91892380D01*
X118308333Y-91844761D01*
X118355952Y-91797142D01*
X118403571Y-91701904D01*
X118403571Y-91606666D01*
X118355952Y-91511428D01*
X118308333Y-91463809D01*
X118213095Y-91416190D01*
X118022619Y-91368571D01*
X117927380Y-91320952D01*
X117879761Y-91273333D01*
X117832142Y-91178095D01*
X117832142Y-91082857D01*
X117879761Y-90987619D01*
X117927380Y-90940000D01*
X118022619Y-90892380D01*
X118260714Y-90892380D01*
X118403571Y-90940000D01*
X118689285Y-90892380D02*
X119260714Y-90892380D01*
X118975000Y-91892380D02*
X118975000Y-90892380D01*
X115601904Y-122372380D02*
X115601904Y-121372380D01*
X115982857Y-121372380D01*
X116078095Y-121420000D01*
X116125714Y-121467619D01*
X116173333Y-121562857D01*
X116173333Y-121705714D01*
X116125714Y-121800952D01*
X116078095Y-121848571D01*
X115982857Y-121896190D01*
X115601904Y-121896190D01*
X116935238Y-121848571D02*
X117078095Y-121896190D01*
X117125714Y-121943809D01*
X117173333Y-122039047D01*
X117173333Y-122181904D01*
X117125714Y-122277142D01*
X117078095Y-122324761D01*
X116982857Y-122372380D01*
X116601904Y-122372380D01*
X116601904Y-121372380D01*
X116935238Y-121372380D01*
X117030476Y-121420000D01*
X117078095Y-121467619D01*
X117125714Y-121562857D01*
X117125714Y-121658095D01*
X117078095Y-121753333D01*
X117030476Y-121800952D01*
X116935238Y-121848571D01*
X116601904Y-121848571D01*
X118125714Y-122372380D02*
X117554285Y-122372380D01*
X117840000Y-122372380D02*
X117840000Y-121372380D01*
X117744761Y-121515238D01*
X117649523Y-121610476D01*
X117554285Y-121658095D01*
X115760714Y-79192380D02*
X115760714Y-78192380D01*
X116141666Y-78192380D01*
X116236904Y-78240000D01*
X116284523Y-78287619D01*
X116332142Y-78382857D01*
X116332142Y-78525714D01*
X116284523Y-78620952D01*
X116236904Y-78668571D01*
X116141666Y-78716190D01*
X115760714Y-78716190D01*
X117332142Y-79097142D02*
X117284523Y-79144761D01*
X117141666Y-79192380D01*
X117046428Y-79192380D01*
X116903571Y-79144761D01*
X116808333Y-79049523D01*
X116760714Y-78954285D01*
X116713095Y-78763809D01*
X116713095Y-78620952D01*
X116760714Y-78430476D01*
X116808333Y-78335238D01*
X116903571Y-78240000D01*
X117046428Y-78192380D01*
X117141666Y-78192380D01*
X117284523Y-78240000D01*
X117332142Y-78287619D01*
X118284523Y-79192380D02*
X117713095Y-79192380D01*
X117998809Y-79192380D02*
X117998809Y-78192380D01*
X117903571Y-78335238D01*
X117808333Y-78430476D01*
X117713095Y-78478095D01*
X118617857Y-78192380D02*
X119236904Y-78192380D01*
X118903571Y-78573333D01*
X119046428Y-78573333D01*
X119141666Y-78620952D01*
X119189285Y-78668571D01*
X119236904Y-78763809D01*
X119236904Y-79001904D01*
X119189285Y-79097142D01*
X119141666Y-79144761D01*
X119046428Y-79192380D01*
X118760714Y-79192380D01*
X118665476Y-79144761D01*
X118617857Y-79097142D01*
X130183142Y-104592380D02*
X130183142Y-103592380D01*
X130564095Y-103592380D01*
X130659333Y-103640000D01*
X130706952Y-103687619D01*
X130754571Y-103782857D01*
X130754571Y-103925714D01*
X130706952Y-104020952D01*
X130659333Y-104068571D01*
X130564095Y-104116190D01*
X130183142Y-104116190D01*
X131135523Y-104306666D02*
X131611714Y-104306666D01*
X131040285Y-104592380D02*
X131373619Y-103592380D01*
X131706952Y-104592380D01*
X132564095Y-104592380D02*
X131992666Y-104592380D01*
X132278380Y-104592380D02*
X132278380Y-103592380D01*
X132183142Y-103735238D01*
X132087904Y-103830476D01*
X131992666Y-103878095D01*
X133421238Y-103925714D02*
X133421238Y-104592380D01*
X133183142Y-103544761D02*
X132945047Y-104259047D01*
X133564095Y-104259047D01*
X115761904Y-86812380D02*
X115761904Y-85812380D01*
X116142857Y-85812380D01*
X116238095Y-85860000D01*
X116285714Y-85907619D01*
X116333333Y-86002857D01*
X116333333Y-86145714D01*
X116285714Y-86240952D01*
X116238095Y-86288571D01*
X116142857Y-86336190D01*
X115761904Y-86336190D01*
X116761904Y-86812380D02*
X116761904Y-85812380D01*
X117000000Y-85812380D01*
X117142857Y-85860000D01*
X117238095Y-85955238D01*
X117285714Y-86050476D01*
X117333333Y-86240952D01*
X117333333Y-86383809D01*
X117285714Y-86574285D01*
X117238095Y-86669523D01*
X117142857Y-86764761D01*
X117000000Y-86812380D01*
X116761904Y-86812380D01*
X117952380Y-85812380D02*
X118047619Y-85812380D01*
X118142857Y-85860000D01*
X118190476Y-85907619D01*
X118238095Y-86002857D01*
X118285714Y-86193333D01*
X118285714Y-86431428D01*
X118238095Y-86621904D01*
X118190476Y-86717142D01*
X118142857Y-86764761D01*
X118047619Y-86812380D01*
X117952380Y-86812380D01*
X117857142Y-86764761D01*
X117809523Y-86717142D01*
X117761904Y-86621904D01*
X117714285Y-86431428D01*
X117714285Y-86193333D01*
X117761904Y-86002857D01*
X117809523Y-85907619D01*
X117857142Y-85860000D01*
X117952380Y-85812380D01*
X130841904Y-96972380D02*
X130841904Y-95972380D01*
X131222857Y-95972380D01*
X131318095Y-96020000D01*
X131365714Y-96067619D01*
X131413333Y-96162857D01*
X131413333Y-96305714D01*
X131365714Y-96400952D01*
X131318095Y-96448571D01*
X131222857Y-96496190D01*
X130841904Y-96496190D01*
X132175238Y-96448571D02*
X132318095Y-96496190D01*
X132365714Y-96543809D01*
X132413333Y-96639047D01*
X132413333Y-96781904D01*
X132365714Y-96877142D01*
X132318095Y-96924761D01*
X132222857Y-96972380D01*
X131841904Y-96972380D01*
X131841904Y-95972380D01*
X132175238Y-95972380D01*
X132270476Y-96020000D01*
X132318095Y-96067619D01*
X132365714Y-96162857D01*
X132365714Y-96258095D01*
X132318095Y-96353333D01*
X132270476Y-96400952D01*
X132175238Y-96448571D01*
X131841904Y-96448571D01*
X133270476Y-96305714D02*
X133270476Y-96972380D01*
X133032380Y-95924761D02*
X132794285Y-96639047D01*
X133413333Y-96639047D01*
X129730714Y-129992380D02*
X129730714Y-128992380D01*
X130111666Y-128992380D01*
X130206904Y-129040000D01*
X130254523Y-129087619D01*
X130302142Y-129182857D01*
X130302142Y-129325714D01*
X130254523Y-129420952D01*
X130206904Y-129468571D01*
X130111666Y-129516190D01*
X129730714Y-129516190D01*
X131064047Y-129468571D02*
X131206904Y-129516190D01*
X131254523Y-129563809D01*
X131302142Y-129659047D01*
X131302142Y-129801904D01*
X131254523Y-129897142D01*
X131206904Y-129944761D01*
X131111666Y-129992380D01*
X130730714Y-129992380D01*
X130730714Y-128992380D01*
X131064047Y-128992380D01*
X131159285Y-129040000D01*
X131206904Y-129087619D01*
X131254523Y-129182857D01*
X131254523Y-129278095D01*
X131206904Y-129373333D01*
X131159285Y-129420952D01*
X131064047Y-129468571D01*
X130730714Y-129468571D01*
X132254523Y-129992380D02*
X131683095Y-129992380D01*
X131968809Y-129992380D02*
X131968809Y-128992380D01*
X131873571Y-129135238D01*
X131778333Y-129230476D01*
X131683095Y-129278095D01*
X133111666Y-129325714D02*
X133111666Y-129992380D01*
X132873571Y-128944761D02*
X132635476Y-129659047D01*
X133254523Y-129659047D01*
X115673333Y-102052380D02*
X115673333Y-101052380D01*
X116054285Y-101052380D01*
X116149523Y-101100000D01*
X116197142Y-101147619D01*
X116244761Y-101242857D01*
X116244761Y-101385714D01*
X116197142Y-101480952D01*
X116149523Y-101528571D01*
X116054285Y-101576190D01*
X115673333Y-101576190D01*
X116625714Y-101766666D02*
X117101904Y-101766666D01*
X116530476Y-102052380D02*
X116863809Y-101052380D01*
X117197142Y-102052380D01*
X118054285Y-102052380D02*
X117482857Y-102052380D01*
X117768571Y-102052380D02*
X117768571Y-101052380D01*
X117673333Y-101195238D01*
X117578095Y-101290476D01*
X117482857Y-101338095D01*
X115601904Y-119832380D02*
X115601904Y-118832380D01*
X115982857Y-118832380D01*
X116078095Y-118880000D01*
X116125714Y-118927619D01*
X116173333Y-119022857D01*
X116173333Y-119165714D01*
X116125714Y-119260952D01*
X116078095Y-119308571D01*
X115982857Y-119356190D01*
X115601904Y-119356190D01*
X116935238Y-119308571D02*
X117078095Y-119356190D01*
X117125714Y-119403809D01*
X117173333Y-119499047D01*
X117173333Y-119641904D01*
X117125714Y-119737142D01*
X117078095Y-119784761D01*
X116982857Y-119832380D01*
X116601904Y-119832380D01*
X116601904Y-118832380D01*
X116935238Y-118832380D01*
X117030476Y-118880000D01*
X117078095Y-118927619D01*
X117125714Y-119022857D01*
X117125714Y-119118095D01*
X117078095Y-119213333D01*
X117030476Y-119260952D01*
X116935238Y-119308571D01*
X116601904Y-119308571D01*
X117792380Y-118832380D02*
X117887619Y-118832380D01*
X117982857Y-118880000D01*
X118030476Y-118927619D01*
X118078095Y-119022857D01*
X118125714Y-119213333D01*
X118125714Y-119451428D01*
X118078095Y-119641904D01*
X118030476Y-119737142D01*
X117982857Y-119784761D01*
X117887619Y-119832380D01*
X117792380Y-119832380D01*
X117697142Y-119784761D01*
X117649523Y-119737142D01*
X117601904Y-119641904D01*
X117554285Y-119451428D01*
X117554285Y-119213333D01*
X117601904Y-119022857D01*
X117649523Y-118927619D01*
X117697142Y-118880000D01*
X117792380Y-118832380D01*
X130794285Y-108672380D02*
X131127619Y-109672380D01*
X131460952Y-108672380D01*
X131746666Y-109624761D02*
X131889523Y-109672380D01*
X132127619Y-109672380D01*
X132222857Y-109624761D01*
X132270476Y-109577142D01*
X132318095Y-109481904D01*
X132318095Y-109386666D01*
X132270476Y-109291428D01*
X132222857Y-109243809D01*
X132127619Y-109196190D01*
X131937142Y-109148571D01*
X131841904Y-109100952D01*
X131794285Y-109053333D01*
X131746666Y-108958095D01*
X131746666Y-108862857D01*
X131794285Y-108767619D01*
X131841904Y-108720000D01*
X131937142Y-108672380D01*
X132175238Y-108672380D01*
X132318095Y-108720000D01*
X132699047Y-109624761D02*
X132841904Y-109672380D01*
X133080000Y-109672380D01*
X133175238Y-109624761D01*
X133222857Y-109577142D01*
X133270476Y-109481904D01*
X133270476Y-109386666D01*
X133222857Y-109291428D01*
X133175238Y-109243809D01*
X133080000Y-109196190D01*
X132889523Y-109148571D01*
X132794285Y-109100952D01*
X132746666Y-109053333D01*
X132699047Y-108958095D01*
X132699047Y-108862857D01*
X132746666Y-108767619D01*
X132794285Y-108720000D01*
X132889523Y-108672380D01*
X133127619Y-108672380D01*
X133270476Y-108720000D01*
X115673333Y-117292380D02*
X115673333Y-116292380D01*
X116054285Y-116292380D01*
X116149523Y-116340000D01*
X116197142Y-116387619D01*
X116244761Y-116482857D01*
X116244761Y-116625714D01*
X116197142Y-116720952D01*
X116149523Y-116768571D01*
X116054285Y-116816190D01*
X115673333Y-116816190D01*
X116625714Y-117006666D02*
X117101904Y-117006666D01*
X116530476Y-117292380D02*
X116863809Y-116292380D01*
X117197142Y-117292380D01*
X117435238Y-116292380D02*
X118101904Y-116292380D01*
X117673333Y-117292380D01*
X115673333Y-112212380D02*
X115673333Y-111212380D01*
X116054285Y-111212380D01*
X116149523Y-111260000D01*
X116197142Y-111307619D01*
X116244761Y-111402857D01*
X116244761Y-111545714D01*
X116197142Y-111640952D01*
X116149523Y-111688571D01*
X116054285Y-111736190D01*
X115673333Y-111736190D01*
X116625714Y-111926666D02*
X117101904Y-111926666D01*
X116530476Y-112212380D02*
X116863809Y-111212380D01*
X117197142Y-112212380D01*
X118006666Y-111212380D02*
X117530476Y-111212380D01*
X117482857Y-111688571D01*
X117530476Y-111640952D01*
X117625714Y-111593333D01*
X117863809Y-111593333D01*
X117959047Y-111640952D01*
X118006666Y-111688571D01*
X118054285Y-111783809D01*
X118054285Y-112021904D01*
X118006666Y-112117142D01*
X117959047Y-112164761D01*
X117863809Y-112212380D01*
X117625714Y-112212380D01*
X117530476Y-112164761D01*
X117482857Y-112117142D01*
X115633714Y-93432380D02*
X115967047Y-94432380D01*
X116300380Y-93432380D01*
X116586095Y-94384761D02*
X116728952Y-94432380D01*
X116967047Y-94432380D01*
X117062285Y-94384761D01*
X117109904Y-94337142D01*
X117157523Y-94241904D01*
X117157523Y-94146666D01*
X117109904Y-94051428D01*
X117062285Y-94003809D01*
X116967047Y-93956190D01*
X116776571Y-93908571D01*
X116681333Y-93860952D01*
X116633714Y-93813333D01*
X116586095Y-93718095D01*
X116586095Y-93622857D01*
X116633714Y-93527619D01*
X116681333Y-93480000D01*
X116776571Y-93432380D01*
X117014666Y-93432380D01*
X117157523Y-93480000D01*
X117538476Y-94384761D02*
X117681333Y-94432380D01*
X117919428Y-94432380D01*
X118014666Y-94384761D01*
X118062285Y-94337142D01*
X118109904Y-94241904D01*
X118109904Y-94146666D01*
X118062285Y-94051428D01*
X118014666Y-94003809D01*
X117919428Y-93956190D01*
X117728952Y-93908571D01*
X117633714Y-93860952D01*
X117586095Y-93813333D01*
X117538476Y-93718095D01*
X117538476Y-93622857D01*
X117586095Y-93527619D01*
X117633714Y-93480000D01*
X117728952Y-93432380D01*
X117967047Y-93432380D01*
X118109904Y-93480000D01*
X118490857Y-94146666D02*
X118967047Y-94146666D01*
X118395619Y-94432380D02*
X118728952Y-93432380D01*
X119062285Y-94432380D01*
X115673333Y-104592380D02*
X115673333Y-103592380D01*
X116054285Y-103592380D01*
X116149523Y-103640000D01*
X116197142Y-103687619D01*
X116244761Y-103782857D01*
X116244761Y-103925714D01*
X116197142Y-104020952D01*
X116149523Y-104068571D01*
X116054285Y-104116190D01*
X115673333Y-104116190D01*
X116625714Y-104306666D02*
X117101904Y-104306666D01*
X116530476Y-104592380D02*
X116863809Y-103592380D01*
X117197142Y-104592380D01*
X117482857Y-103687619D02*
X117530476Y-103640000D01*
X117625714Y-103592380D01*
X117863809Y-103592380D01*
X117959047Y-103640000D01*
X118006666Y-103687619D01*
X118054285Y-103782857D01*
X118054285Y-103878095D01*
X118006666Y-104020952D01*
X117435238Y-104592380D01*
X118054285Y-104592380D01*
X129730714Y-127452380D02*
X129730714Y-126452380D01*
X130111666Y-126452380D01*
X130206904Y-126500000D01*
X130254523Y-126547619D01*
X130302142Y-126642857D01*
X130302142Y-126785714D01*
X130254523Y-126880952D01*
X130206904Y-126928571D01*
X130111666Y-126976190D01*
X129730714Y-126976190D01*
X131064047Y-126928571D02*
X131206904Y-126976190D01*
X131254523Y-127023809D01*
X131302142Y-127119047D01*
X131302142Y-127261904D01*
X131254523Y-127357142D01*
X131206904Y-127404761D01*
X131111666Y-127452380D01*
X130730714Y-127452380D01*
X130730714Y-126452380D01*
X131064047Y-126452380D01*
X131159285Y-126500000D01*
X131206904Y-126547619D01*
X131254523Y-126642857D01*
X131254523Y-126738095D01*
X131206904Y-126833333D01*
X131159285Y-126880952D01*
X131064047Y-126928571D01*
X130730714Y-126928571D01*
X132254523Y-127452380D02*
X131683095Y-127452380D01*
X131968809Y-127452380D02*
X131968809Y-126452380D01*
X131873571Y-126595238D01*
X131778333Y-126690476D01*
X131683095Y-126738095D01*
X133159285Y-126452380D02*
X132683095Y-126452380D01*
X132635476Y-126928571D01*
X132683095Y-126880952D01*
X132778333Y-126833333D01*
X133016428Y-126833333D01*
X133111666Y-126880952D01*
X133159285Y-126928571D01*
X133206904Y-127023809D01*
X133206904Y-127261904D01*
X133159285Y-127357142D01*
X133111666Y-127404761D01*
X133016428Y-127452380D01*
X132778333Y-127452380D01*
X132683095Y-127404761D01*
X132635476Y-127357142D01*
X129802142Y-119832380D02*
X129802142Y-118832380D01*
X130183095Y-118832380D01*
X130278333Y-118880000D01*
X130325952Y-118927619D01*
X130373571Y-119022857D01*
X130373571Y-119165714D01*
X130325952Y-119260952D01*
X130278333Y-119308571D01*
X130183095Y-119356190D01*
X129802142Y-119356190D01*
X130754523Y-119546666D02*
X131230714Y-119546666D01*
X130659285Y-119832380D02*
X130992619Y-118832380D01*
X131325952Y-119832380D01*
X132183095Y-119832380D02*
X131611666Y-119832380D01*
X131897380Y-119832380D02*
X131897380Y-118832380D01*
X131802142Y-118975238D01*
X131706904Y-119070476D01*
X131611666Y-119118095D01*
X132802142Y-118832380D02*
X132897380Y-118832380D01*
X132992619Y-118880000D01*
X133040238Y-118927619D01*
X133087857Y-119022857D01*
X133135476Y-119213333D01*
X133135476Y-119451428D01*
X133087857Y-119641904D01*
X133040238Y-119737142D01*
X132992619Y-119784761D01*
X132897380Y-119832380D01*
X132802142Y-119832380D01*
X132706904Y-119784761D01*
X132659285Y-119737142D01*
X132611666Y-119641904D01*
X132564047Y-119451428D01*
X132564047Y-119213333D01*
X132611666Y-119022857D01*
X132659285Y-118927619D01*
X132706904Y-118880000D01*
X132802142Y-118832380D01*
X130913333Y-122372380D02*
X130913333Y-121372380D01*
X131294285Y-121372380D01*
X131389523Y-121420000D01*
X131437142Y-121467619D01*
X131484761Y-121562857D01*
X131484761Y-121705714D01*
X131437142Y-121800952D01*
X131389523Y-121848571D01*
X131294285Y-121896190D01*
X130913333Y-121896190D01*
X131865714Y-122086666D02*
X132341904Y-122086666D01*
X131770476Y-122372380D02*
X132103809Y-121372380D01*
X132437142Y-122372380D01*
X132818095Y-122372380D02*
X133008571Y-122372380D01*
X133103809Y-122324761D01*
X133151428Y-122277142D01*
X133246666Y-122134285D01*
X133294285Y-121943809D01*
X133294285Y-121562857D01*
X133246666Y-121467619D01*
X133199047Y-121420000D01*
X133103809Y-121372380D01*
X132913333Y-121372380D01*
X132818095Y-121420000D01*
X132770476Y-121467619D01*
X132722857Y-121562857D01*
X132722857Y-121800952D01*
X132770476Y-121896190D01*
X132818095Y-121943809D01*
X132913333Y-121991428D01*
X133103809Y-121991428D01*
X133199047Y-121943809D01*
X133246666Y-121896190D01*
X133294285Y-121800952D01*
X129802142Y-117292380D02*
X129802142Y-116292380D01*
X130183095Y-116292380D01*
X130278333Y-116340000D01*
X130325952Y-116387619D01*
X130373571Y-116482857D01*
X130373571Y-116625714D01*
X130325952Y-116720952D01*
X130278333Y-116768571D01*
X130183095Y-116816190D01*
X129802142Y-116816190D01*
X130754523Y-117006666D02*
X131230714Y-117006666D01*
X130659285Y-117292380D02*
X130992619Y-116292380D01*
X131325952Y-117292380D01*
X132183095Y-117292380D02*
X131611666Y-117292380D01*
X131897380Y-117292380D02*
X131897380Y-116292380D01*
X131802142Y-116435238D01*
X131706904Y-116530476D01*
X131611666Y-116578095D01*
X133135476Y-117292380D02*
X132564047Y-117292380D01*
X132849761Y-117292380D02*
X132849761Y-116292380D01*
X132754523Y-116435238D01*
X132659285Y-116530476D01*
X132564047Y-116578095D01*
X130183142Y-102052380D02*
X130183142Y-101052380D01*
X130564095Y-101052380D01*
X130659333Y-101100000D01*
X130706952Y-101147619D01*
X130754571Y-101242857D01*
X130754571Y-101385714D01*
X130706952Y-101480952D01*
X130659333Y-101528571D01*
X130564095Y-101576190D01*
X130183142Y-101576190D01*
X131135523Y-101766666D02*
X131611714Y-101766666D01*
X131040285Y-102052380D02*
X131373619Y-101052380D01*
X131706952Y-102052380D01*
X132564095Y-102052380D02*
X131992666Y-102052380D01*
X132278380Y-102052380D02*
X132278380Y-101052380D01*
X132183142Y-101195238D01*
X132087904Y-101290476D01*
X131992666Y-101338095D01*
X133468857Y-101052380D02*
X132992666Y-101052380D01*
X132945047Y-101528571D01*
X132992666Y-101480952D01*
X133087904Y-101433333D01*
X133326000Y-101433333D01*
X133421238Y-101480952D01*
X133468857Y-101528571D01*
X133516476Y-101623809D01*
X133516476Y-101861904D01*
X133468857Y-101957142D01*
X133421238Y-102004761D01*
X133326000Y-102052380D01*
X133087904Y-102052380D01*
X132992666Y-102004761D01*
X132945047Y-101957142D01*
X130794285Y-78192380D02*
X131127619Y-79192380D01*
X131460952Y-78192380D01*
X131746666Y-79144761D02*
X131889523Y-79192380D01*
X132127619Y-79192380D01*
X132222857Y-79144761D01*
X132270476Y-79097142D01*
X132318095Y-79001904D01*
X132318095Y-78906666D01*
X132270476Y-78811428D01*
X132222857Y-78763809D01*
X132127619Y-78716190D01*
X131937142Y-78668571D01*
X131841904Y-78620952D01*
X131794285Y-78573333D01*
X131746666Y-78478095D01*
X131746666Y-78382857D01*
X131794285Y-78287619D01*
X131841904Y-78240000D01*
X131937142Y-78192380D01*
X132175238Y-78192380D01*
X132318095Y-78240000D01*
X132699047Y-79144761D02*
X132841904Y-79192380D01*
X133080000Y-79192380D01*
X133175238Y-79144761D01*
X133222857Y-79097142D01*
X133270476Y-79001904D01*
X133270476Y-78906666D01*
X133222857Y-78811428D01*
X133175238Y-78763809D01*
X133080000Y-78716190D01*
X132889523Y-78668571D01*
X132794285Y-78620952D01*
X132746666Y-78573333D01*
X132699047Y-78478095D01*
X132699047Y-78382857D01*
X132746666Y-78287619D01*
X132794285Y-78240000D01*
X132889523Y-78192380D01*
X133127619Y-78192380D01*
X133270476Y-78240000D01*
X115760714Y-84272380D02*
X115760714Y-83272380D01*
X116141666Y-83272380D01*
X116236904Y-83320000D01*
X116284523Y-83367619D01*
X116332142Y-83462857D01*
X116332142Y-83605714D01*
X116284523Y-83700952D01*
X116236904Y-83748571D01*
X116141666Y-83796190D01*
X115760714Y-83796190D01*
X117332142Y-84177142D02*
X117284523Y-84224761D01*
X117141666Y-84272380D01*
X117046428Y-84272380D01*
X116903571Y-84224761D01*
X116808333Y-84129523D01*
X116760714Y-84034285D01*
X116713095Y-83843809D01*
X116713095Y-83700952D01*
X116760714Y-83510476D01*
X116808333Y-83415238D01*
X116903571Y-83320000D01*
X117046428Y-83272380D01*
X117141666Y-83272380D01*
X117284523Y-83320000D01*
X117332142Y-83367619D01*
X118284523Y-84272380D02*
X117713095Y-84272380D01*
X117998809Y-84272380D02*
X117998809Y-83272380D01*
X117903571Y-83415238D01*
X117808333Y-83510476D01*
X117713095Y-83558095D01*
X119189285Y-83272380D02*
X118713095Y-83272380D01*
X118665476Y-83748571D01*
X118713095Y-83700952D01*
X118808333Y-83653333D01*
X119046428Y-83653333D01*
X119141666Y-83700952D01*
X119189285Y-83748571D01*
X119236904Y-83843809D01*
X119236904Y-84081904D01*
X119189285Y-84177142D01*
X119141666Y-84224761D01*
X119046428Y-84272380D01*
X118808333Y-84272380D01*
X118713095Y-84224761D01*
X118665476Y-84177142D01*
X115673333Y-109672380D02*
X115673333Y-108672380D01*
X116054285Y-108672380D01*
X116149523Y-108720000D01*
X116197142Y-108767619D01*
X116244761Y-108862857D01*
X116244761Y-109005714D01*
X116197142Y-109100952D01*
X116149523Y-109148571D01*
X116054285Y-109196190D01*
X115673333Y-109196190D01*
X116625714Y-109386666D02*
X117101904Y-109386666D01*
X116530476Y-109672380D02*
X116863809Y-108672380D01*
X117197142Y-109672380D01*
X117959047Y-109005714D02*
X117959047Y-109672380D01*
X117720952Y-108624761D02*
X117482857Y-109339047D01*
X118101904Y-109339047D01*
X115554285Y-131532380D02*
X115887619Y-132532380D01*
X116220952Y-131532380D01*
X116506666Y-132484761D02*
X116649523Y-132532380D01*
X116887619Y-132532380D01*
X116982857Y-132484761D01*
X117030476Y-132437142D01*
X117078095Y-132341904D01*
X117078095Y-132246666D01*
X117030476Y-132151428D01*
X116982857Y-132103809D01*
X116887619Y-132056190D01*
X116697142Y-132008571D01*
X116601904Y-131960952D01*
X116554285Y-131913333D01*
X116506666Y-131818095D01*
X116506666Y-131722857D01*
X116554285Y-131627619D01*
X116601904Y-131580000D01*
X116697142Y-131532380D01*
X116935238Y-131532380D01*
X117078095Y-131580000D01*
X117459047Y-132484761D02*
X117601904Y-132532380D01*
X117840000Y-132532380D01*
X117935238Y-132484761D01*
X117982857Y-132437142D01*
X118030476Y-132341904D01*
X118030476Y-132246666D01*
X117982857Y-132151428D01*
X117935238Y-132103809D01*
X117840000Y-132056190D01*
X117649523Y-132008571D01*
X117554285Y-131960952D01*
X117506666Y-131913333D01*
X117459047Y-131818095D01*
X117459047Y-131722857D01*
X117506666Y-131627619D01*
X117554285Y-131580000D01*
X117649523Y-131532380D01*
X117887619Y-131532380D01*
X118030476Y-131580000D01*
X126012380Y-126832380D02*
X125012380Y-126832380D01*
X125393333Y-126832380D02*
X125345714Y-126737142D01*
X125345714Y-126546666D01*
X125393333Y-126451428D01*
X125440952Y-126403809D01*
X125536190Y-126356190D01*
X125821904Y-126356190D01*
X125917142Y-126403809D01*
X125964761Y-126451428D01*
X126012380Y-126546666D01*
X126012380Y-126737142D01*
X125964761Y-126832380D01*
X126012380Y-125927619D02*
X125345714Y-125927619D01*
X125536190Y-125927619D02*
X125440952Y-125880000D01*
X125393333Y-125832380D01*
X125345714Y-125737142D01*
X125345714Y-125641904D01*
X125964761Y-124927619D02*
X126012380Y-125022857D01*
X126012380Y-125213333D01*
X125964761Y-125308571D01*
X125869523Y-125356190D01*
X125488571Y-125356190D01*
X125393333Y-125308571D01*
X125345714Y-125213333D01*
X125345714Y-125022857D01*
X125393333Y-124927619D01*
X125488571Y-124880000D01*
X125583809Y-124880000D01*
X125679047Y-125356190D01*
X126012380Y-124022857D02*
X125488571Y-124022857D01*
X125393333Y-124070476D01*
X125345714Y-124165714D01*
X125345714Y-124356190D01*
X125393333Y-124451428D01*
X125964761Y-124022857D02*
X126012380Y-124118095D01*
X126012380Y-124356190D01*
X125964761Y-124451428D01*
X125869523Y-124499047D01*
X125774285Y-124499047D01*
X125679047Y-124451428D01*
X125631428Y-124356190D01*
X125631428Y-124118095D01*
X125583809Y-124022857D01*
X126012380Y-123546666D02*
X125012380Y-123546666D01*
X125631428Y-123451428D02*
X126012380Y-123165714D01*
X125345714Y-123165714D02*
X125726666Y-123546666D01*
X126012380Y-122594285D02*
X125964761Y-122689523D01*
X125917142Y-122737142D01*
X125821904Y-122784761D01*
X125536190Y-122784761D01*
X125440952Y-122737142D01*
X125393333Y-122689523D01*
X125345714Y-122594285D01*
X125345714Y-122451428D01*
X125393333Y-122356190D01*
X125440952Y-122308571D01*
X125536190Y-122260952D01*
X125821904Y-122260952D01*
X125917142Y-122308571D01*
X125964761Y-122356190D01*
X126012380Y-122451428D01*
X126012380Y-122594285D01*
X125345714Y-121403809D02*
X126012380Y-121403809D01*
X125345714Y-121832380D02*
X125869523Y-121832380D01*
X125964761Y-121784761D01*
X126012380Y-121689523D01*
X126012380Y-121546666D01*
X125964761Y-121451428D01*
X125917142Y-121403809D01*
X125345714Y-121070476D02*
X125345714Y-120689523D01*
X125012380Y-120927619D02*
X125869523Y-120927619D01*
X125964761Y-120880000D01*
X126012380Y-120784761D01*
X126012380Y-120689523D01*
X126012380Y-119594285D02*
X125012380Y-119594285D01*
X125393333Y-119594285D02*
X125345714Y-119499047D01*
X125345714Y-119308571D01*
X125393333Y-119213333D01*
X125440952Y-119165714D01*
X125536190Y-119118095D01*
X125821904Y-119118095D01*
X125917142Y-119165714D01*
X125964761Y-119213333D01*
X126012380Y-119308571D01*
X126012380Y-119499047D01*
X125964761Y-119594285D01*
X126012380Y-118546666D02*
X125964761Y-118641904D01*
X125917142Y-118689523D01*
X125821904Y-118737142D01*
X125536190Y-118737142D01*
X125440952Y-118689523D01*
X125393333Y-118641904D01*
X125345714Y-118546666D01*
X125345714Y-118403809D01*
X125393333Y-118308571D01*
X125440952Y-118260952D01*
X125536190Y-118213333D01*
X125821904Y-118213333D01*
X125917142Y-118260952D01*
X125964761Y-118308571D01*
X126012380Y-118403809D01*
X126012380Y-118546666D01*
X126012380Y-117356190D02*
X125488571Y-117356190D01*
X125393333Y-117403809D01*
X125345714Y-117499047D01*
X125345714Y-117689523D01*
X125393333Y-117784761D01*
X125964761Y-117356190D02*
X126012380Y-117451428D01*
X126012380Y-117689523D01*
X125964761Y-117784761D01*
X125869523Y-117832380D01*
X125774285Y-117832380D01*
X125679047Y-117784761D01*
X125631428Y-117689523D01*
X125631428Y-117451428D01*
X125583809Y-117356190D01*
X126012380Y-116880000D02*
X125345714Y-116880000D01*
X125536190Y-116880000D02*
X125440952Y-116832380D01*
X125393333Y-116784761D01*
X125345714Y-116689523D01*
X125345714Y-116594285D01*
X126012380Y-115832380D02*
X125012380Y-115832380D01*
X125964761Y-115832380D02*
X126012380Y-115927619D01*
X126012380Y-116118095D01*
X125964761Y-116213333D01*
X125917142Y-116260952D01*
X125821904Y-116308571D01*
X125536190Y-116308571D01*
X125440952Y-116260952D01*
X125393333Y-116213333D01*
X125345714Y-116118095D01*
X125345714Y-115927619D01*
X125393333Y-115832380D01*
X125345714Y-114689523D02*
X126012380Y-114451428D01*
X125345714Y-114213333D01*
X126012380Y-113308571D02*
X126012380Y-113880000D01*
X126012380Y-113594285D02*
X125012380Y-113594285D01*
X125155238Y-113689523D01*
X125250476Y-113784761D01*
X125298095Y-113880000D01*
X125917142Y-112880000D02*
X125964761Y-112832380D01*
X126012380Y-112880000D01*
X125964761Y-112927619D01*
X125917142Y-112880000D01*
X126012380Y-112880000D01*
X125012380Y-112213333D02*
X125012380Y-112118095D01*
X125060000Y-112022857D01*
X125107619Y-111975238D01*
X125202857Y-111927619D01*
X125393333Y-111880000D01*
X125631428Y-111880000D01*
X125821904Y-111927619D01*
X125917142Y-111975238D01*
X125964761Y-112022857D01*
X126012380Y-112118095D01*
X126012380Y-112213333D01*
X125964761Y-112308571D01*
X125917142Y-112356190D01*
X125821904Y-112403809D01*
X125631428Y-112451428D01*
X125393333Y-112451428D01*
X125202857Y-112403809D01*
X125107619Y-112356190D01*
X125060000Y-112308571D01*
X125012380Y-112213333D01*
X115832142Y-75652380D02*
X116165476Y-76652380D01*
X116498809Y-75652380D01*
X117165476Y-76128571D02*
X117308333Y-76176190D01*
X117355952Y-76223809D01*
X117403571Y-76319047D01*
X117403571Y-76461904D01*
X117355952Y-76557142D01*
X117308333Y-76604761D01*
X117213095Y-76652380D01*
X116832142Y-76652380D01*
X116832142Y-75652380D01*
X117165476Y-75652380D01*
X117260714Y-75700000D01*
X117308333Y-75747619D01*
X117355952Y-75842857D01*
X117355952Y-75938095D01*
X117308333Y-76033333D01*
X117260714Y-76080952D01*
X117165476Y-76128571D01*
X116832142Y-76128571D01*
X117784523Y-76366666D02*
X118260714Y-76366666D01*
X117689285Y-76652380D02*
X118022619Y-75652380D01*
X118355952Y-76652380D01*
X118546428Y-75652380D02*
X119117857Y-75652380D01*
X118832142Y-76652380D02*
X118832142Y-75652380D01*
X130746666Y-106132380D02*
X131080000Y-107132380D01*
X131413333Y-106132380D01*
X131746666Y-107132380D02*
X131746666Y-106132380D01*
X131984761Y-106132380D01*
X132127619Y-106180000D01*
X132222857Y-106275238D01*
X132270476Y-106370476D01*
X132318095Y-106560952D01*
X132318095Y-106703809D01*
X132270476Y-106894285D01*
X132222857Y-106989523D01*
X132127619Y-107084761D01*
X131984761Y-107132380D01*
X131746666Y-107132380D01*
X132746666Y-107132380D02*
X132746666Y-106132380D01*
X132984761Y-106132380D01*
X133127619Y-106180000D01*
X133222857Y-106275238D01*
X133270476Y-106370476D01*
X133318095Y-106560952D01*
X133318095Y-106703809D01*
X133270476Y-106894285D01*
X133222857Y-106989523D01*
X133127619Y-107084761D01*
X132984761Y-107132380D01*
X132746666Y-107132380D01*
X115760714Y-129992380D02*
X115760714Y-128992380D01*
X116141666Y-128992380D01*
X116236904Y-129040000D01*
X116284523Y-129087619D01*
X116332142Y-129182857D01*
X116332142Y-129325714D01*
X116284523Y-129420952D01*
X116236904Y-129468571D01*
X116141666Y-129516190D01*
X115760714Y-129516190D01*
X117094047Y-129468571D02*
X117236904Y-129516190D01*
X117284523Y-129563809D01*
X117332142Y-129659047D01*
X117332142Y-129801904D01*
X117284523Y-129897142D01*
X117236904Y-129944761D01*
X117141666Y-129992380D01*
X116760714Y-129992380D01*
X116760714Y-128992380D01*
X117094047Y-128992380D01*
X117189285Y-129040000D01*
X117236904Y-129087619D01*
X117284523Y-129182857D01*
X117284523Y-129278095D01*
X117236904Y-129373333D01*
X117189285Y-129420952D01*
X117094047Y-129468571D01*
X116760714Y-129468571D01*
X118284523Y-129992380D02*
X117713095Y-129992380D01*
X117998809Y-129992380D02*
X117998809Y-128992380D01*
X117903571Y-129135238D01*
X117808333Y-129230476D01*
X117713095Y-129278095D01*
X119236904Y-129992380D02*
X118665476Y-129992380D01*
X118951190Y-129992380D02*
X118951190Y-128992380D01*
X118855952Y-129135238D01*
X118760714Y-129230476D01*
X118665476Y-129278095D01*
X130841904Y-84272380D02*
X130841904Y-83272380D01*
X131222857Y-83272380D01*
X131318095Y-83320000D01*
X131365714Y-83367619D01*
X131413333Y-83462857D01*
X131413333Y-83605714D01*
X131365714Y-83700952D01*
X131318095Y-83748571D01*
X131222857Y-83796190D01*
X130841904Y-83796190D01*
X132175238Y-83748571D02*
X132318095Y-83796190D01*
X132365714Y-83843809D01*
X132413333Y-83939047D01*
X132413333Y-84081904D01*
X132365714Y-84177142D01*
X132318095Y-84224761D01*
X132222857Y-84272380D01*
X131841904Y-84272380D01*
X131841904Y-83272380D01*
X132175238Y-83272380D01*
X132270476Y-83320000D01*
X132318095Y-83367619D01*
X132365714Y-83462857D01*
X132365714Y-83558095D01*
X132318095Y-83653333D01*
X132270476Y-83700952D01*
X132175238Y-83748571D01*
X131841904Y-83748571D01*
X132984761Y-83700952D02*
X132889523Y-83653333D01*
X132841904Y-83605714D01*
X132794285Y-83510476D01*
X132794285Y-83462857D01*
X132841904Y-83367619D01*
X132889523Y-83320000D01*
X132984761Y-83272380D01*
X133175238Y-83272380D01*
X133270476Y-83320000D01*
X133318095Y-83367619D01*
X133365714Y-83462857D01*
X133365714Y-83510476D01*
X133318095Y-83605714D01*
X133270476Y-83653333D01*
X133175238Y-83700952D01*
X132984761Y-83700952D01*
X132889523Y-83748571D01*
X132841904Y-83796190D01*
X132794285Y-83891428D01*
X132794285Y-84081904D01*
X132841904Y-84177142D01*
X132889523Y-84224761D01*
X132984761Y-84272380D01*
X133175238Y-84272380D01*
X133270476Y-84224761D01*
X133318095Y-84177142D01*
X133365714Y-84081904D01*
X133365714Y-83891428D01*
X133318095Y-83796190D01*
X133270476Y-83748571D01*
X133175238Y-83700952D01*
X130841904Y-91892380D02*
X130841904Y-90892380D01*
X131222857Y-90892380D01*
X131318095Y-90940000D01*
X131365714Y-90987619D01*
X131413333Y-91082857D01*
X131413333Y-91225714D01*
X131365714Y-91320952D01*
X131318095Y-91368571D01*
X131222857Y-91416190D01*
X130841904Y-91416190D01*
X132175238Y-91368571D02*
X132318095Y-91416190D01*
X132365714Y-91463809D01*
X132413333Y-91559047D01*
X132413333Y-91701904D01*
X132365714Y-91797142D01*
X132318095Y-91844761D01*
X132222857Y-91892380D01*
X131841904Y-91892380D01*
X131841904Y-90892380D01*
X132175238Y-90892380D01*
X132270476Y-90940000D01*
X132318095Y-90987619D01*
X132365714Y-91082857D01*
X132365714Y-91178095D01*
X132318095Y-91273333D01*
X132270476Y-91320952D01*
X132175238Y-91368571D01*
X131841904Y-91368571D01*
X133270476Y-90892380D02*
X133080000Y-90892380D01*
X132984761Y-90940000D01*
X132937142Y-90987619D01*
X132841904Y-91130476D01*
X132794285Y-91320952D01*
X132794285Y-91701904D01*
X132841904Y-91797142D01*
X132889523Y-91844761D01*
X132984761Y-91892380D01*
X133175238Y-91892380D01*
X133270476Y-91844761D01*
X133318095Y-91797142D01*
X133365714Y-91701904D01*
X133365714Y-91463809D01*
X133318095Y-91368571D01*
X133270476Y-91320952D01*
X133175238Y-91273333D01*
X132984761Y-91273333D01*
X132889523Y-91320952D01*
X132841904Y-91368571D01*
X132794285Y-91463809D01*
X115713095Y-95972380D02*
X116046428Y-96972380D01*
X116379761Y-95972380D01*
X116713095Y-96972380D02*
X116713095Y-95972380D01*
X116951190Y-95972380D01*
X117094047Y-96020000D01*
X117189285Y-96115238D01*
X117236904Y-96210476D01*
X117284523Y-96400952D01*
X117284523Y-96543809D01*
X117236904Y-96734285D01*
X117189285Y-96829523D01*
X117094047Y-96924761D01*
X116951190Y-96972380D01*
X116713095Y-96972380D01*
X117713095Y-96972380D02*
X117713095Y-95972380D01*
X117951190Y-95972380D01*
X118094047Y-96020000D01*
X118189285Y-96115238D01*
X118236904Y-96210476D01*
X118284523Y-96400952D01*
X118284523Y-96543809D01*
X118236904Y-96734285D01*
X118189285Y-96829523D01*
X118094047Y-96924761D01*
X117951190Y-96972380D01*
X117713095Y-96972380D01*
X118665476Y-96686666D02*
X119141666Y-96686666D01*
X118570238Y-96972380D02*
X118903571Y-95972380D01*
X119236904Y-96972380D01*
X129730714Y-135072380D02*
X129730714Y-134072380D01*
X130111666Y-134072380D01*
X130206904Y-134120000D01*
X130254523Y-134167619D01*
X130302142Y-134262857D01*
X130302142Y-134405714D01*
X130254523Y-134500952D01*
X130206904Y-134548571D01*
X130111666Y-134596190D01*
X129730714Y-134596190D01*
X131064047Y-134548571D02*
X131206904Y-134596190D01*
X131254523Y-134643809D01*
X131302142Y-134739047D01*
X131302142Y-134881904D01*
X131254523Y-134977142D01*
X131206904Y-135024761D01*
X131111666Y-135072380D01*
X130730714Y-135072380D01*
X130730714Y-134072380D01*
X131064047Y-134072380D01*
X131159285Y-134120000D01*
X131206904Y-134167619D01*
X131254523Y-134262857D01*
X131254523Y-134358095D01*
X131206904Y-134453333D01*
X131159285Y-134500952D01*
X131064047Y-134548571D01*
X130730714Y-134548571D01*
X132254523Y-135072380D02*
X131683095Y-135072380D01*
X131968809Y-135072380D02*
X131968809Y-134072380D01*
X131873571Y-134215238D01*
X131778333Y-134310476D01*
X131683095Y-134358095D01*
X132635476Y-134167619D02*
X132683095Y-134120000D01*
X132778333Y-134072380D01*
X133016428Y-134072380D01*
X133111666Y-134120000D01*
X133159285Y-134167619D01*
X133206904Y-134262857D01*
X133206904Y-134358095D01*
X133159285Y-134500952D01*
X132587857Y-135072380D01*
X133206904Y-135072380D01*
X115673333Y-99512380D02*
X115673333Y-98512380D01*
X116054285Y-98512380D01*
X116149523Y-98560000D01*
X116197142Y-98607619D01*
X116244761Y-98702857D01*
X116244761Y-98845714D01*
X116197142Y-98940952D01*
X116149523Y-98988571D01*
X116054285Y-99036190D01*
X115673333Y-99036190D01*
X116625714Y-99226666D02*
X117101904Y-99226666D01*
X116530476Y-99512380D02*
X116863809Y-98512380D01*
X117197142Y-99512380D01*
X117720952Y-98512380D02*
X117816190Y-98512380D01*
X117911428Y-98560000D01*
X117959047Y-98607619D01*
X118006666Y-98702857D01*
X118054285Y-98893333D01*
X118054285Y-99131428D01*
X118006666Y-99321904D01*
X117959047Y-99417142D01*
X117911428Y-99464761D01*
X117816190Y-99512380D01*
X117720952Y-99512380D01*
X117625714Y-99464761D01*
X117578095Y-99417142D01*
X117530476Y-99321904D01*
X117482857Y-99131428D01*
X117482857Y-98893333D01*
X117530476Y-98702857D01*
X117578095Y-98607619D01*
X117625714Y-98560000D01*
X117720952Y-98512380D01*
X124229761Y-124237142D02*
X124277380Y-124094285D01*
X124277380Y-123856190D01*
X124229761Y-123760952D01*
X124182142Y-123713333D01*
X124086904Y-123665714D01*
X123991666Y-123665714D01*
X123896428Y-123713333D01*
X123848809Y-123760952D01*
X123801190Y-123856190D01*
X123753571Y-124046666D01*
X123705952Y-124141904D01*
X123658333Y-124189523D01*
X123563095Y-124237142D01*
X123467857Y-124237142D01*
X123372619Y-124189523D01*
X123325000Y-124141904D01*
X123277380Y-124046666D01*
X123277380Y-123808571D01*
X123325000Y-123665714D01*
X123277380Y-123380000D02*
X123277380Y-122808571D01*
X124277380Y-123094285D02*
X123277380Y-123094285D01*
X124277380Y-122475238D02*
X123277380Y-122475238D01*
X123991666Y-122141904D01*
X123277380Y-121808571D01*
X124277380Y-121808571D01*
X123277380Y-121427619D02*
X123277380Y-120808571D01*
X123658333Y-121141904D01*
X123658333Y-120999047D01*
X123705952Y-120903809D01*
X123753571Y-120856190D01*
X123848809Y-120808571D01*
X124086904Y-120808571D01*
X124182142Y-120856190D01*
X124229761Y-120903809D01*
X124277380Y-120999047D01*
X124277380Y-121284761D01*
X124229761Y-121380000D01*
X124182142Y-121427619D01*
X123372619Y-120427619D02*
X123325000Y-120380000D01*
X123277380Y-120284761D01*
X123277380Y-120046666D01*
X123325000Y-119951428D01*
X123372619Y-119903809D01*
X123467857Y-119856190D01*
X123563095Y-119856190D01*
X123705952Y-119903809D01*
X124277380Y-120475238D01*
X124277380Y-119856190D01*
X123753571Y-119094285D02*
X123753571Y-119427619D01*
X124277380Y-119427619D02*
X123277380Y-119427619D01*
X123277380Y-118951428D01*
X124277380Y-118046666D02*
X124277380Y-118618095D01*
X124277380Y-118332380D02*
X123277380Y-118332380D01*
X123420238Y-118427619D01*
X123515476Y-118522857D01*
X123563095Y-118618095D01*
X123277380Y-117427619D02*
X123277380Y-117332380D01*
X123325000Y-117237142D01*
X123372619Y-117189523D01*
X123467857Y-117141904D01*
X123658333Y-117094285D01*
X123896428Y-117094285D01*
X124086904Y-117141904D01*
X124182142Y-117189523D01*
X124229761Y-117237142D01*
X124277380Y-117332380D01*
X124277380Y-117427619D01*
X124229761Y-117522857D01*
X124182142Y-117570476D01*
X124086904Y-117618095D01*
X123896428Y-117665714D01*
X123658333Y-117665714D01*
X123467857Y-117618095D01*
X123372619Y-117570476D01*
X123325000Y-117522857D01*
X123277380Y-117427619D01*
X123277380Y-116760952D02*
X123277380Y-116141904D01*
X123658333Y-116475238D01*
X123658333Y-116332380D01*
X123705952Y-116237142D01*
X123753571Y-116189523D01*
X123848809Y-116141904D01*
X124086904Y-116141904D01*
X124182142Y-116189523D01*
X124229761Y-116237142D01*
X124277380Y-116332380D01*
X124277380Y-116618095D01*
X124229761Y-116713333D01*
X124182142Y-116760952D01*
X124277380Y-115808571D02*
X123610714Y-115284761D01*
X123610714Y-115808571D02*
X124277380Y-115284761D01*
X124277380Y-114999047D02*
X123610714Y-114475238D01*
X123610714Y-114999047D02*
X124277380Y-114475238D01*
%TO.C,G\u002A\u002A\u002A*%
G36*
X125572948Y-91200018D02*
G01*
X125604395Y-91207954D01*
X125632268Y-91224011D01*
X125658768Y-91248545D01*
X125679969Y-91277319D01*
X125690610Y-91300986D01*
X125693134Y-91316297D01*
X125695164Y-91342352D01*
X125696708Y-91377111D01*
X125697776Y-91418536D01*
X125698377Y-91464588D01*
X125698521Y-91513228D01*
X125698215Y-91562417D01*
X125697471Y-91610117D01*
X125696296Y-91654289D01*
X125694700Y-91692893D01*
X125692693Y-91723892D01*
X125690283Y-91745247D01*
X125688573Y-91752800D01*
X125674055Y-91779182D01*
X125650842Y-91805353D01*
X125622791Y-91827857D01*
X125593761Y-91843240D01*
X125584181Y-91846277D01*
X125541416Y-91850762D01*
X125500327Y-91843173D01*
X125462829Y-91824401D01*
X125430841Y-91795334D01*
X125410772Y-91765765D01*
X125406844Y-91757938D01*
X125403706Y-91749597D01*
X125401252Y-91739221D01*
X125399375Y-91725288D01*
X125397970Y-91706277D01*
X125396929Y-91680668D01*
X125396146Y-91646939D01*
X125395516Y-91603568D01*
X125394931Y-91549035D01*
X125394819Y-91537576D01*
X125394445Y-91473948D01*
X125394627Y-91419309D01*
X125395347Y-91374516D01*
X125396585Y-91340427D01*
X125398325Y-91317898D01*
X125399667Y-91310033D01*
X125417016Y-91270094D01*
X125445682Y-91235933D01*
X125463458Y-91221742D01*
X125495437Y-91206307D01*
X125533429Y-91198920D01*
X125572948Y-91200018D01*
G37*
G36*
X122620227Y-94867867D02*
G01*
X122667131Y-94868028D01*
X122704062Y-94868400D01*
X122732517Y-94869068D01*
X122753993Y-94870117D01*
X122769986Y-94871633D01*
X122781993Y-94873701D01*
X122791510Y-94876406D01*
X122800034Y-94879832D01*
X122803880Y-94881602D01*
X122838208Y-94904670D01*
X122864978Y-94937129D01*
X122881600Y-94974357D01*
X122888384Y-95000791D01*
X122890029Y-95021755D01*
X122886502Y-95043694D01*
X122881177Y-95062320D01*
X122863540Y-95099398D01*
X122836659Y-95130834D01*
X122804822Y-95152498D01*
X122796616Y-95156199D01*
X122787948Y-95159158D01*
X122777338Y-95161457D01*
X122763304Y-95163180D01*
X122744366Y-95164409D01*
X122719042Y-95165226D01*
X122685852Y-95165716D01*
X122643315Y-95165960D01*
X122589949Y-95166041D01*
X122562446Y-95166046D01*
X122348056Y-95166046D01*
X122313280Y-95147937D01*
X122278326Y-95122958D01*
X122253475Y-95090217D01*
X122239417Y-95050870D01*
X122236366Y-95019152D01*
X122241406Y-94973833D01*
X122256714Y-94936309D01*
X122282567Y-94906108D01*
X122315961Y-94884357D01*
X122349121Y-94867833D01*
X122561854Y-94867833D01*
X122620227Y-94867867D01*
G37*
G36*
X125530500Y-97239875D02*
G01*
X125494736Y-97241064D01*
X125448541Y-97242160D01*
X125392759Y-97243164D01*
X125328236Y-97244076D01*
X125255815Y-97244895D01*
X125176342Y-97245621D01*
X125090662Y-97246255D01*
X124999619Y-97246796D01*
X124904058Y-97247245D01*
X124804823Y-97247601D01*
X124702760Y-97247865D01*
X124598713Y-97248036D01*
X124493527Y-97248114D01*
X124388046Y-97248100D01*
X124283116Y-97247994D01*
X124179581Y-97247795D01*
X124078286Y-97247503D01*
X123980075Y-97247119D01*
X123885794Y-97246642D01*
X123796286Y-97246073D01*
X123712398Y-97245411D01*
X123634973Y-97244656D01*
X123564856Y-97243809D01*
X123502893Y-97242870D01*
X123449927Y-97241838D01*
X123406803Y-97240713D01*
X123374367Y-97239496D01*
X123353463Y-97238186D01*
X123346162Y-97237219D01*
X123279373Y-97215025D01*
X123218626Y-97181818D01*
X123164870Y-97138507D01*
X123119052Y-97085999D01*
X123082119Y-97025205D01*
X123055385Y-96958229D01*
X123054324Y-96954459D01*
X123053328Y-96949971D01*
X123052395Y-96944363D01*
X123051522Y-96937232D01*
X123050709Y-96928174D01*
X123049952Y-96916787D01*
X123049250Y-96902667D01*
X123048600Y-96885411D01*
X123048001Y-96864616D01*
X123047451Y-96839879D01*
X123046947Y-96810798D01*
X123046488Y-96776968D01*
X123046071Y-96737986D01*
X123045694Y-96693451D01*
X123045356Y-96642958D01*
X123045054Y-96586104D01*
X123044786Y-96522487D01*
X123044551Y-96451703D01*
X123044345Y-96373349D01*
X123044168Y-96287023D01*
X123044017Y-96192320D01*
X123043890Y-96088838D01*
X123043784Y-95976174D01*
X123043699Y-95853925D01*
X123043631Y-95721687D01*
X123043580Y-95579058D01*
X123043542Y-95425634D01*
X123043516Y-95261013D01*
X123043499Y-95084790D01*
X123043490Y-94896564D01*
X123043487Y-94695931D01*
X123043487Y-94615000D01*
X123182869Y-94615000D01*
X123182870Y-94819604D01*
X123182874Y-95011647D01*
X123182883Y-95191533D01*
X123182900Y-95359668D01*
X123182926Y-95516457D01*
X123182965Y-95662303D01*
X123183018Y-95797612D01*
X123183087Y-95922789D01*
X123183175Y-96038238D01*
X123183284Y-96144364D01*
X123183417Y-96241571D01*
X123183574Y-96330266D01*
X123183759Y-96410851D01*
X123183974Y-96483733D01*
X123184221Y-96549316D01*
X123184502Y-96608004D01*
X123184820Y-96660202D01*
X123185176Y-96706316D01*
X123185574Y-96746750D01*
X123186014Y-96781908D01*
X123186500Y-96812196D01*
X123187034Y-96838017D01*
X123187617Y-96859778D01*
X123188253Y-96877883D01*
X123188943Y-96892736D01*
X123189689Y-96904742D01*
X123190494Y-96914306D01*
X123191360Y-96921832D01*
X123192289Y-96927727D01*
X123193284Y-96932393D01*
X123194347Y-96936237D01*
X123195479Y-96939662D01*
X123195654Y-96940162D01*
X123218006Y-96985645D01*
X123250610Y-97027368D01*
X123290803Y-97062697D01*
X123335918Y-97088994D01*
X123352969Y-97095783D01*
X123357791Y-97097317D01*
X123363452Y-97098712D01*
X123370554Y-97099977D01*
X123379694Y-97101117D01*
X123391473Y-97102139D01*
X123406491Y-97103049D01*
X123425347Y-97103854D01*
X123448640Y-97104560D01*
X123476971Y-97105174D01*
X123510938Y-97105701D01*
X123551142Y-97106150D01*
X123598183Y-97106525D01*
X123652659Y-97106833D01*
X123715170Y-97107081D01*
X123786316Y-97107276D01*
X123866698Y-97107423D01*
X123956913Y-97107529D01*
X124057562Y-97107601D01*
X124169245Y-97107645D01*
X124292561Y-97107667D01*
X124428109Y-97107674D01*
X124460000Y-97107675D01*
X125532920Y-97107675D01*
X125567150Y-97093637D01*
X125617117Y-97066677D01*
X125660426Y-97030314D01*
X125695138Y-96986551D01*
X125719317Y-96937389D01*
X125719850Y-96935878D01*
X125720766Y-96932388D01*
X125721627Y-96927070D01*
X125722433Y-96919527D01*
X125723188Y-96909364D01*
X125723891Y-96896184D01*
X125724547Y-96879592D01*
X125725155Y-96859193D01*
X125725719Y-96834590D01*
X125726239Y-96805387D01*
X125726719Y-96771189D01*
X125727158Y-96731600D01*
X125727560Y-96686224D01*
X125727925Y-96634665D01*
X125728256Y-96576528D01*
X125728555Y-96511416D01*
X125728824Y-96438934D01*
X125729063Y-96358687D01*
X125729275Y-96270277D01*
X125729462Y-96173310D01*
X125729626Y-96067390D01*
X125729767Y-95952120D01*
X125729889Y-95827106D01*
X125729993Y-95691950D01*
X125730080Y-95546258D01*
X125730153Y-95389634D01*
X125730213Y-95221681D01*
X125730263Y-95042005D01*
X125730302Y-94850208D01*
X125730335Y-94645896D01*
X125730339Y-94616847D01*
X125730363Y-94411151D01*
X125730378Y-94218023D01*
X125730382Y-94037063D01*
X125730372Y-93867874D01*
X125730347Y-93710057D01*
X125730306Y-93563213D01*
X125730246Y-93426944D01*
X125730166Y-93300852D01*
X125730064Y-93184537D01*
X125729939Y-93077602D01*
X125729788Y-92979648D01*
X125729610Y-92890277D01*
X125729403Y-92809089D01*
X125729166Y-92735687D01*
X125728896Y-92669673D01*
X125728592Y-92610647D01*
X125728252Y-92558211D01*
X125727874Y-92511967D01*
X125727457Y-92471516D01*
X125726999Y-92436459D01*
X125726498Y-92406399D01*
X125725953Y-92380937D01*
X125725361Y-92359674D01*
X125724721Y-92342212D01*
X125724030Y-92328152D01*
X125723289Y-92317097D01*
X125722494Y-92308646D01*
X125721644Y-92302403D01*
X125720737Y-92297967D01*
X125720151Y-92295969D01*
X125696628Y-92246095D01*
X125662472Y-92201778D01*
X125619482Y-92164894D01*
X125569456Y-92137321D01*
X125567150Y-92136363D01*
X125532920Y-92122325D01*
X124460000Y-92122325D01*
X124321648Y-92122330D01*
X124195661Y-92122348D01*
X124081442Y-92122387D01*
X123978389Y-92122452D01*
X123885903Y-92122550D01*
X123803385Y-92122687D01*
X123730236Y-92122871D01*
X123665854Y-92123106D01*
X123609642Y-92123401D01*
X123560999Y-92123760D01*
X123519325Y-92124192D01*
X123484021Y-92124701D01*
X123454488Y-92125295D01*
X123430125Y-92125980D01*
X123410334Y-92126762D01*
X123394514Y-92127649D01*
X123382066Y-92128645D01*
X123372390Y-92129758D01*
X123364887Y-92130995D01*
X123358957Y-92132361D01*
X123354000Y-92133863D01*
X123352969Y-92134216D01*
X123306727Y-92156589D01*
X123264443Y-92188948D01*
X123228780Y-92228658D01*
X123202403Y-92273082D01*
X123195654Y-92289838D01*
X123194511Y-92293235D01*
X123193438Y-92296991D01*
X123192433Y-92301509D01*
X123191495Y-92307195D01*
X123190619Y-92314453D01*
X123189805Y-92323687D01*
X123189050Y-92335304D01*
X123188352Y-92349706D01*
X123187709Y-92367301D01*
X123187118Y-92388491D01*
X123186577Y-92413681D01*
X123186084Y-92443278D01*
X123185637Y-92477684D01*
X123185233Y-92517306D01*
X123184870Y-92562547D01*
X123184547Y-92613813D01*
X123184261Y-92671508D01*
X123184009Y-92736037D01*
X123183789Y-92807805D01*
X123183600Y-92887217D01*
X123183438Y-92974676D01*
X123183303Y-93070589D01*
X123183190Y-93175360D01*
X123183099Y-93289394D01*
X123183027Y-93413095D01*
X123182972Y-93546868D01*
X123182931Y-93691117D01*
X123182903Y-93846249D01*
X123182885Y-94012667D01*
X123182875Y-94190776D01*
X123182870Y-94380981D01*
X123182869Y-94583687D01*
X123182869Y-94615000D01*
X123043487Y-94615000D01*
X123043488Y-94409465D01*
X123043495Y-94216493D01*
X123043508Y-94035680D01*
X123043530Y-93866624D01*
X123043564Y-93708921D01*
X123043610Y-93562169D01*
X123043671Y-93425964D01*
X123043749Y-93299903D01*
X123043846Y-93183583D01*
X123043965Y-93076601D01*
X123044107Y-92978554D01*
X123044274Y-92889039D01*
X123044468Y-92807652D01*
X123044692Y-92733991D01*
X123044947Y-92667653D01*
X123045235Y-92608233D01*
X123045559Y-92555330D01*
X123045921Y-92508541D01*
X123046322Y-92467461D01*
X123046764Y-92431689D01*
X123047251Y-92400820D01*
X123047783Y-92374452D01*
X123048363Y-92352182D01*
X123048993Y-92333606D01*
X123049674Y-92318323D01*
X123050410Y-92305927D01*
X123051201Y-92296017D01*
X123052051Y-92288189D01*
X123052960Y-92282040D01*
X123053932Y-92277168D01*
X123054968Y-92273168D01*
X123055385Y-92271771D01*
X123082658Y-92203715D01*
X123119748Y-92143052D01*
X123165706Y-92090691D01*
X123219587Y-92047541D01*
X123280442Y-92014510D01*
X123346162Y-91992781D01*
X123358529Y-91991407D01*
X123383017Y-91990125D01*
X123418781Y-91988936D01*
X123464977Y-91987839D01*
X123520758Y-91986835D01*
X123585282Y-91985924D01*
X123657702Y-91985105D01*
X123737175Y-91984379D01*
X123822855Y-91983745D01*
X123913899Y-91983203D01*
X124009460Y-91982755D01*
X124108695Y-91982399D01*
X124210758Y-91982135D01*
X124314805Y-91981964D01*
X124419991Y-91981885D01*
X124525471Y-91981899D01*
X124630402Y-91982006D01*
X124733937Y-91982205D01*
X124835232Y-91982497D01*
X124933443Y-91982881D01*
X125027724Y-91983358D01*
X125117231Y-91983927D01*
X125201120Y-91984589D01*
X125278545Y-91985343D01*
X125348661Y-91986190D01*
X125410625Y-91987130D01*
X125463591Y-91988162D01*
X125506714Y-91989286D01*
X125539150Y-91990504D01*
X125560054Y-91991813D01*
X125567355Y-91992781D01*
X125634667Y-92015057D01*
X125695548Y-92048313D01*
X125749324Y-92091908D01*
X125795321Y-92145203D01*
X125832863Y-92207560D01*
X125857957Y-92268190D01*
X125859036Y-92271670D01*
X125860050Y-92275802D01*
X125860999Y-92280991D01*
X125861888Y-92287642D01*
X125862716Y-92296157D01*
X125863488Y-92306942D01*
X125864205Y-92320399D01*
X125864869Y-92336933D01*
X125865482Y-92356948D01*
X125866047Y-92380847D01*
X125866566Y-92409035D01*
X125867042Y-92441916D01*
X125867475Y-92479893D01*
X125867869Y-92523371D01*
X125868226Y-92572754D01*
X125868548Y-92628444D01*
X125868837Y-92690848D01*
X125869096Y-92760367D01*
X125869326Y-92837407D01*
X125869530Y-92922371D01*
X125869710Y-93015663D01*
X125869869Y-93117688D01*
X125870007Y-93228848D01*
X125870129Y-93349549D01*
X125870235Y-93480193D01*
X125870329Y-93621186D01*
X125870412Y-93772930D01*
X125870487Y-93935831D01*
X125870555Y-94110291D01*
X125870619Y-94296715D01*
X125870682Y-94495507D01*
X125870712Y-94595551D01*
X125870755Y-94767342D01*
X125870784Y-94935890D01*
X125870797Y-95100727D01*
X125870796Y-95261387D01*
X125870781Y-95417404D01*
X125870753Y-95568309D01*
X125870711Y-95713637D01*
X125870656Y-95852921D01*
X125870588Y-95985692D01*
X125870508Y-96111486D01*
X125870417Y-96229834D01*
X125870314Y-96340271D01*
X125870200Y-96442328D01*
X125870076Y-96535540D01*
X125869941Y-96619439D01*
X125869797Y-96693559D01*
X125869643Y-96757432D01*
X125869480Y-96810592D01*
X125869309Y-96852572D01*
X125869129Y-96882905D01*
X125868942Y-96901125D01*
X125868781Y-96906705D01*
X125853522Y-96973119D01*
X125826830Y-97035417D01*
X125789942Y-97092244D01*
X125744094Y-97142245D01*
X125690522Y-97184063D01*
X125630463Y-97216344D01*
X125567355Y-97237219D01*
X125554988Y-97238593D01*
X125532920Y-97239748D01*
X125530500Y-97239875D01*
G37*
G36*
X123402854Y-91203275D02*
G01*
X123440763Y-91218093D01*
X123472885Y-91242753D01*
X123497358Y-91275774D01*
X123512322Y-91315678D01*
X123513408Y-91320951D01*
X123515260Y-91337697D01*
X123516752Y-91364884D01*
X123517886Y-91400341D01*
X123518666Y-91441898D01*
X123519093Y-91487385D01*
X123519171Y-91534631D01*
X123518903Y-91581467D01*
X123518290Y-91625722D01*
X123517335Y-91665226D01*
X123516042Y-91697808D01*
X123514412Y-91721298D01*
X123512903Y-91731941D01*
X123497062Y-91773811D01*
X123471913Y-91807252D01*
X123438692Y-91831279D01*
X123398636Y-91844905D01*
X123367632Y-91847728D01*
X123323380Y-91841842D01*
X123284915Y-91824444D01*
X123252873Y-91795920D01*
X123232518Y-91765765D01*
X123228590Y-91757938D01*
X123225452Y-91749597D01*
X123222998Y-91739221D01*
X123221121Y-91725288D01*
X123219716Y-91706277D01*
X123218675Y-91680668D01*
X123217892Y-91646939D01*
X123217261Y-91603568D01*
X123216677Y-91549035D01*
X123216565Y-91537576D01*
X123216062Y-91475543D01*
X123215995Y-91424970D01*
X123216540Y-91384352D01*
X123217871Y-91352188D01*
X123220166Y-91326973D01*
X123223600Y-91307205D01*
X123228349Y-91291379D01*
X123234589Y-91277992D01*
X123242495Y-91265541D01*
X123249495Y-91256081D01*
X123279065Y-91226806D01*
X123315100Y-91208274D01*
X123358692Y-91199933D01*
X123361017Y-91199778D01*
X123402854Y-91203275D01*
G37*
G36*
X122777688Y-92689882D02*
G01*
X122809860Y-92707558D01*
X122834765Y-92725006D01*
X122856675Y-92746744D01*
X122861618Y-92753195D01*
X122872543Y-92770765D01*
X122878837Y-92787689D01*
X122881974Y-92809102D01*
X122883014Y-92827749D01*
X122882220Y-92865584D01*
X122876322Y-92893029D01*
X122874685Y-92897031D01*
X122855362Y-92927712D01*
X122828110Y-92954731D01*
X122797171Y-92974165D01*
X122786764Y-92978283D01*
X122776230Y-92981184D01*
X122763130Y-92983446D01*
X122745971Y-92985119D01*
X122723258Y-92986257D01*
X122693497Y-92986910D01*
X122655193Y-92987132D01*
X122606854Y-92986973D01*
X122549711Y-92986511D01*
X122492367Y-92985933D01*
X122446481Y-92985335D01*
X122410547Y-92984614D01*
X122383057Y-92983664D01*
X122362505Y-92982379D01*
X122347384Y-92980655D01*
X122336186Y-92978386D01*
X122327405Y-92975468D01*
X122319534Y-92971795D01*
X122316597Y-92970248D01*
X122282063Y-92945295D01*
X122257243Y-92913986D01*
X122242079Y-92878408D01*
X122236516Y-92840647D01*
X122240495Y-92802787D01*
X122253962Y-92766915D01*
X122276858Y-92735116D01*
X122309129Y-92709476D01*
X122323885Y-92701759D01*
X122332012Y-92698481D01*
X122341535Y-92695861D01*
X122353919Y-92693828D01*
X122370627Y-92692308D01*
X122393125Y-92691229D01*
X122422876Y-92690519D01*
X122461345Y-92690105D01*
X122509996Y-92689913D01*
X122563752Y-92689872D01*
X122777688Y-92689882D01*
G37*
G36*
X122664712Y-95581262D02*
G01*
X122701177Y-95581575D01*
X122729252Y-95582191D01*
X122750462Y-95583208D01*
X122766332Y-95584722D01*
X122778388Y-95586832D01*
X122788154Y-95589634D01*
X122797155Y-95593227D01*
X122804854Y-95596745D01*
X122839784Y-95619892D01*
X122866148Y-95652095D01*
X122882617Y-95691654D01*
X122884189Y-95698291D01*
X122888380Y-95718116D01*
X122890071Y-95731030D01*
X122889102Y-95742558D01*
X122885310Y-95758226D01*
X122882095Y-95770119D01*
X122865405Y-95809479D01*
X122838581Y-95840808D01*
X122805769Y-95862288D01*
X122771901Y-95879165D01*
X122560859Y-95879023D01*
X122502256Y-95878929D01*
X122455142Y-95878684D01*
X122418037Y-95878213D01*
X122389465Y-95877439D01*
X122367948Y-95876286D01*
X122352007Y-95874679D01*
X122340165Y-95872542D01*
X122330945Y-95869798D01*
X122323885Y-95866849D01*
X122288094Y-95843772D01*
X122261307Y-95813273D01*
X122243955Y-95777564D01*
X122236469Y-95738856D01*
X122239279Y-95699360D01*
X122252815Y-95661287D01*
X122277212Y-95627161D01*
X122288842Y-95615263D01*
X122299838Y-95605620D01*
X122311663Y-95597995D01*
X122325779Y-95592150D01*
X122343648Y-95587847D01*
X122366732Y-95584850D01*
X122396492Y-95582921D01*
X122434392Y-95581823D01*
X122481892Y-95581318D01*
X122540454Y-95581168D01*
X122560511Y-95581158D01*
X122618332Y-95581155D01*
X122664712Y-95581262D01*
G37*
G36*
X126409955Y-92696096D02*
G01*
X126457364Y-92696252D01*
X126494731Y-92696612D01*
X126523520Y-92697256D01*
X126545192Y-92698267D01*
X126561210Y-92699726D01*
X126573037Y-92701714D01*
X126582134Y-92704312D01*
X126589965Y-92707601D01*
X126593951Y-92709577D01*
X126628508Y-92733869D01*
X126654583Y-92765838D01*
X126671303Y-92803057D01*
X126677797Y-92843097D01*
X126673190Y-92883532D01*
X126664835Y-92906756D01*
X126642999Y-92940200D01*
X126612833Y-92967499D01*
X126580690Y-92984275D01*
X126565467Y-92987247D01*
X126539377Y-92989734D01*
X126504474Y-92991733D01*
X126462812Y-92993238D01*
X126416444Y-92994247D01*
X126367424Y-92994754D01*
X126317806Y-92994756D01*
X126269643Y-92994248D01*
X126224990Y-92993225D01*
X126185900Y-92991684D01*
X126154426Y-92989620D01*
X126132623Y-92987029D01*
X126125044Y-92985222D01*
X126090238Y-92966315D01*
X126060518Y-92937649D01*
X126038303Y-92902158D01*
X126026579Y-92866012D01*
X126025951Y-92829557D01*
X126035996Y-92792266D01*
X126055067Y-92757347D01*
X126081518Y-92728007D01*
X126106056Y-92711142D01*
X126114089Y-92707055D01*
X126122025Y-92703782D01*
X126131333Y-92701233D01*
X126143482Y-92699318D01*
X126159943Y-92697945D01*
X126182185Y-92697026D01*
X126211678Y-92696468D01*
X126249891Y-92696181D01*
X126298294Y-92696076D01*
X126351043Y-92696062D01*
X126409955Y-92696096D01*
G37*
G36*
X126352659Y-95587577D02*
G01*
X126414895Y-95587684D01*
X126465626Y-95588071D01*
X126506313Y-95588974D01*
X126538415Y-95590632D01*
X126563393Y-95593281D01*
X126582707Y-95597159D01*
X126597819Y-95602502D01*
X126610189Y-95609549D01*
X126621277Y-95618535D01*
X126632543Y-95629699D01*
X126636305Y-95633644D01*
X126660194Y-95667555D01*
X126674007Y-95706592D01*
X126677198Y-95747607D01*
X126669220Y-95787449D01*
X126664835Y-95798129D01*
X126651947Y-95819691D01*
X126635075Y-95840644D01*
X126630942Y-95844801D01*
X126619339Y-95855462D01*
X126608317Y-95864086D01*
X126596402Y-95870888D01*
X126582119Y-95876084D01*
X126563994Y-95879890D01*
X126540552Y-95882519D01*
X126510320Y-95884189D01*
X126471822Y-95885113D01*
X126423584Y-95885508D01*
X126364131Y-95885587D01*
X126351594Y-95885585D01*
X126293980Y-95885547D01*
X126247800Y-95885406D01*
X126211521Y-95885063D01*
X126183612Y-95884419D01*
X126162539Y-95883374D01*
X126146772Y-95881829D01*
X126134778Y-95879685D01*
X126125024Y-95876842D01*
X126115979Y-95873202D01*
X126108664Y-95869855D01*
X126074271Y-95847479D01*
X126049058Y-95818076D01*
X126033036Y-95783783D01*
X126026215Y-95746741D01*
X126028606Y-95709088D01*
X126040221Y-95672963D01*
X126061069Y-95640506D01*
X126091161Y-95613855D01*
X126107336Y-95604518D01*
X126141617Y-95587435D01*
X126352659Y-95587577D01*
G37*
G36*
X126399880Y-94142006D02*
G01*
X126448115Y-94142738D01*
X126490256Y-94143885D01*
X126524472Y-94145387D01*
X126548934Y-94147185D01*
X126559812Y-94148698D01*
X126599640Y-94163276D01*
X126632158Y-94187179D01*
X126656420Y-94218438D01*
X126671480Y-94255080D01*
X126676390Y-94295136D01*
X126670204Y-94336633D01*
X126661358Y-94360160D01*
X126638188Y-94395120D01*
X126605809Y-94421567D01*
X126565666Y-94438380D01*
X126558360Y-94440158D01*
X126538457Y-94442735D01*
X126505627Y-94444545D01*
X126459884Y-94445588D01*
X126401243Y-94445864D01*
X126330317Y-94445378D01*
X126274720Y-94444714D01*
X126230530Y-94444030D01*
X126196187Y-94443210D01*
X126170131Y-94442140D01*
X126150804Y-94440707D01*
X126136646Y-94438795D01*
X126126097Y-94436290D01*
X126117599Y-94433078D01*
X126109898Y-94429210D01*
X126072969Y-94403062D01*
X126047259Y-94370433D01*
X126032648Y-94331118D01*
X126028862Y-94293110D01*
X126034765Y-94249465D01*
X126051785Y-94211556D01*
X126078889Y-94180777D01*
X126115043Y-94158520D01*
X126133674Y-94151751D01*
X126146858Y-94148608D01*
X126163796Y-94146161D01*
X126186077Y-94144335D01*
X126215288Y-94143055D01*
X126253017Y-94142248D01*
X126300853Y-94141839D01*
X126347381Y-94141748D01*
X126399880Y-94142006D01*
G37*
G36*
X122564454Y-96306584D02*
G01*
X122613611Y-96307088D01*
X122660606Y-96308067D01*
X122703312Y-96309507D01*
X122739600Y-96311398D01*
X122767341Y-96313726D01*
X122784407Y-96316480D01*
X122785175Y-96316697D01*
X122821885Y-96333940D01*
X122851680Y-96360534D01*
X122873429Y-96394225D01*
X122886001Y-96432759D01*
X122888264Y-96473882D01*
X122881465Y-96508480D01*
X122866030Y-96538977D01*
X122841593Y-96567603D01*
X122811968Y-96590534D01*
X122788487Y-96601744D01*
X122777585Y-96604704D01*
X122763218Y-96607044D01*
X122743905Y-96608828D01*
X122718165Y-96610122D01*
X122684516Y-96610991D01*
X122641477Y-96611500D01*
X122587569Y-96611715D01*
X122561729Y-96611733D01*
X122492216Y-96611451D01*
X122435331Y-96610609D01*
X122391151Y-96609209D01*
X122359754Y-96607252D01*
X122341219Y-96604743D01*
X122339174Y-96604209D01*
X122310241Y-96590408D01*
X122281872Y-96568268D01*
X122258618Y-96541790D01*
X122248593Y-96524575D01*
X122239370Y-96492353D01*
X122236818Y-96454918D01*
X122240934Y-96418175D01*
X122248593Y-96394194D01*
X122266965Y-96366048D01*
X122293499Y-96340555D01*
X122323795Y-96321430D01*
X122343342Y-96314194D01*
X122360762Y-96311599D01*
X122388793Y-96309551D01*
X122425306Y-96308038D01*
X122468173Y-96307047D01*
X122515265Y-96306567D01*
X122564454Y-96306584D01*
G37*
G36*
X124816121Y-97384886D02*
G01*
X124852170Y-97396543D01*
X124885073Y-97417667D01*
X124912892Y-97448503D01*
X124922501Y-97464234D01*
X124926408Y-97471998D01*
X124929527Y-97480227D01*
X124931959Y-97490435D01*
X124933804Y-97504132D01*
X124935164Y-97522830D01*
X124936140Y-97548042D01*
X124936834Y-97581278D01*
X124937345Y-97624051D01*
X124937775Y-97677873D01*
X124937889Y-97694377D01*
X124938176Y-97755921D01*
X124938081Y-97805815D01*
X124937561Y-97845368D01*
X124936575Y-97875891D01*
X124935080Y-97898694D01*
X124933035Y-97915089D01*
X124930416Y-97926324D01*
X124911458Y-97965990D01*
X124883025Y-97997204D01*
X124852974Y-98015915D01*
X124811514Y-98028846D01*
X124770413Y-98030101D01*
X124731636Y-98020627D01*
X124697145Y-98001370D01*
X124668901Y-97973277D01*
X124648868Y-97937295D01*
X124641988Y-97914148D01*
X124639790Y-97896806D01*
X124638015Y-97868761D01*
X124636664Y-97832268D01*
X124635734Y-97789584D01*
X124635226Y-97742964D01*
X124635139Y-97694664D01*
X124635472Y-97646939D01*
X124636224Y-97602046D01*
X124637395Y-97562241D01*
X124638984Y-97529778D01*
X124640990Y-97506913D01*
X124642118Y-97499930D01*
X124656406Y-97459966D01*
X124679160Y-97427989D01*
X124708443Y-97404246D01*
X124742322Y-97388984D01*
X124778860Y-97382448D01*
X124816121Y-97384886D01*
G37*
G36*
X124097876Y-97385194D02*
G01*
X124133095Y-97396859D01*
X124164523Y-97417107D01*
X124190226Y-97445692D01*
X124208267Y-97482367D01*
X124213053Y-97499930D01*
X124214645Y-97513933D01*
X124216032Y-97538731D01*
X124217198Y-97572157D01*
X124218129Y-97612040D01*
X124218812Y-97656212D01*
X124219232Y-97702505D01*
X124219374Y-97748749D01*
X124219224Y-97792776D01*
X124218768Y-97832417D01*
X124217992Y-97865504D01*
X124216881Y-97889867D01*
X124215707Y-97901830D01*
X124202893Y-97944111D01*
X124180640Y-97979120D01*
X124150788Y-98005880D01*
X124115173Y-98023413D01*
X124075633Y-98030740D01*
X124034007Y-98026885D01*
X124001721Y-98015694D01*
X123967690Y-97993091D01*
X123940449Y-97961491D01*
X123922793Y-97924230D01*
X123921561Y-97919946D01*
X123919520Y-97905152D01*
X123917967Y-97878266D01*
X123916920Y-97840155D01*
X123916397Y-97791684D01*
X123916416Y-97733718D01*
X123916718Y-97692423D01*
X123917306Y-97635654D01*
X123917920Y-97590329D01*
X123918666Y-97554927D01*
X123919651Y-97527927D01*
X123920981Y-97507808D01*
X123922763Y-97493048D01*
X123925102Y-97482127D01*
X123928105Y-97473523D01*
X123931878Y-97465716D01*
X123932671Y-97464234D01*
X123957809Y-97429289D01*
X123988834Y-97404159D01*
X124023810Y-97388597D01*
X124060803Y-97382357D01*
X124097876Y-97385194D01*
G37*
G36*
X126599676Y-94892189D02*
G01*
X126633901Y-94915777D01*
X126657483Y-94945745D01*
X126671098Y-94983230D01*
X126675272Y-95019550D01*
X126675487Y-95043875D01*
X126674605Y-95063821D01*
X126672819Y-95075154D01*
X126672766Y-95075286D01*
X126654982Y-95105699D01*
X126629355Y-95134019D01*
X126600736Y-95154946D01*
X126568429Y-95172529D01*
X126352556Y-95172529D01*
X126293671Y-95172493D01*
X126246280Y-95172330D01*
X126208909Y-95171960D01*
X126180084Y-95171301D01*
X126158335Y-95170272D01*
X126142186Y-95168792D01*
X126130166Y-95166780D01*
X126120802Y-95164156D01*
X126112621Y-95160837D01*
X126108988Y-95159123D01*
X126073781Y-95135135D01*
X126047316Y-95101820D01*
X126031493Y-95064421D01*
X126025282Y-95021148D01*
X126031784Y-94979250D01*
X126050746Y-94940048D01*
X126056913Y-94931463D01*
X126067638Y-94917811D01*
X126077747Y-94906685D01*
X126088650Y-94897814D01*
X126101757Y-94890927D01*
X126118481Y-94885752D01*
X126140230Y-94882017D01*
X126168417Y-94879452D01*
X126204450Y-94877786D01*
X126249742Y-94876747D01*
X126305703Y-94876064D01*
X126346943Y-94875695D01*
X126564538Y-94873833D01*
X126599676Y-94892189D01*
G37*
G36*
X123536243Y-96660859D02*
G01*
X123525336Y-96647981D01*
X123517503Y-96634489D01*
X123512255Y-96617998D01*
X123509105Y-96596123D01*
X123507566Y-96566479D01*
X123507150Y-96526681D01*
X123507156Y-96518541D01*
X123508704Y-96470411D01*
X123513424Y-96433484D01*
X123521731Y-96406295D01*
X123534037Y-96387379D01*
X123546981Y-96377251D01*
X123553314Y-96375169D01*
X123565118Y-96373355D01*
X123583319Y-96371778D01*
X123608848Y-96370404D01*
X123642632Y-96369201D01*
X123685601Y-96368136D01*
X123738684Y-96367176D01*
X123802808Y-96366289D01*
X123878903Y-96365443D01*
X123884834Y-96365383D01*
X124207550Y-96362141D01*
X123867234Y-95906639D01*
X123805613Y-95824082D01*
X123751382Y-95751242D01*
X123704100Y-95687503D01*
X123663326Y-95632248D01*
X123628617Y-95584860D01*
X123599533Y-95544724D01*
X123575631Y-95511223D01*
X123556471Y-95483741D01*
X123541611Y-95461662D01*
X123530609Y-95444368D01*
X123523025Y-95431244D01*
X123518416Y-95421673D01*
X123516966Y-95417624D01*
X123513420Y-95398626D01*
X123510615Y-95369679D01*
X123508806Y-95337675D01*
X123779296Y-95337675D01*
X123783085Y-95343925D01*
X123793984Y-95359456D01*
X123811288Y-95383337D01*
X123834294Y-95414637D01*
X123862297Y-95452427D01*
X123894594Y-95495776D01*
X123930481Y-95543752D01*
X123969253Y-95595426D01*
X124010207Y-95649867D01*
X124052639Y-95706143D01*
X124095845Y-95763326D01*
X124139120Y-95820483D01*
X124181761Y-95876685D01*
X124223065Y-95931000D01*
X124262326Y-95982499D01*
X124298842Y-96030250D01*
X124331907Y-96073323D01*
X124360819Y-96110788D01*
X124384872Y-96141713D01*
X124403364Y-96165168D01*
X124415591Y-96180223D01*
X124420847Y-96185947D01*
X124420982Y-96185957D01*
X124425726Y-96179968D01*
X124437670Y-96164665D01*
X124456082Y-96140994D01*
X124480229Y-96109897D01*
X124509379Y-96072318D01*
X124542800Y-96029201D01*
X124579760Y-95981490D01*
X124619527Y-95930127D01*
X124646425Y-95895372D01*
X124691717Y-95836870D01*
X124737980Y-95777169D01*
X124783979Y-95717861D01*
X124828477Y-95660535D01*
X124870240Y-95606783D01*
X124908033Y-95558195D01*
X124940619Y-95516362D01*
X124966764Y-95482874D01*
X124971183Y-95477225D01*
X124999159Y-95441324D01*
X125024314Y-95408728D01*
X125045588Y-95380836D01*
X125061921Y-95359049D01*
X125072253Y-95344765D01*
X125075547Y-95339464D01*
X125069255Y-95338785D01*
X125050865Y-95338135D01*
X125021244Y-95337519D01*
X124981259Y-95336944D01*
X124931778Y-95336417D01*
X124873667Y-95335944D01*
X124807795Y-95335532D01*
X124735029Y-95335187D01*
X124656236Y-95334916D01*
X124572283Y-95334725D01*
X124484037Y-95334620D01*
X124427586Y-95334602D01*
X124337108Y-95334632D01*
X124250379Y-95334719D01*
X124168268Y-95334860D01*
X124091641Y-95335050D01*
X124021368Y-95335284D01*
X123958315Y-95335560D01*
X123903352Y-95335872D01*
X123857345Y-95336218D01*
X123821163Y-95336591D01*
X123795674Y-95336989D01*
X123781745Y-95337408D01*
X123779296Y-95337675D01*
X123508806Y-95337675D01*
X123508559Y-95333298D01*
X123507258Y-95292000D01*
X123506719Y-95248300D01*
X123506949Y-95204714D01*
X123507955Y-95163758D01*
X123509743Y-95127948D01*
X123512319Y-95099800D01*
X123515692Y-95081829D01*
X123516067Y-95080707D01*
X123519739Y-95070837D01*
X123523812Y-95061742D01*
X123529140Y-95052628D01*
X123536580Y-95042702D01*
X123546987Y-95031168D01*
X123561218Y-95017235D01*
X123580127Y-95000107D01*
X123604572Y-94978992D01*
X123635407Y-94953095D01*
X123673490Y-94921623D01*
X123719675Y-94883781D01*
X123774818Y-94838777D01*
X123792262Y-94824555D01*
X123839101Y-94786363D01*
X123891053Y-94743994D01*
X123948761Y-94696922D01*
X124012869Y-94644622D01*
X124084021Y-94586570D01*
X124162861Y-94522238D01*
X124250032Y-94451102D01*
X124346179Y-94372637D01*
X124414620Y-94316781D01*
X124465301Y-94275419D01*
X124521707Y-94229388D01*
X124580720Y-94181230D01*
X124639224Y-94133490D01*
X124694101Y-94088711D01*
X124742236Y-94049436D01*
X124744817Y-94047329D01*
X124903218Y-93918088D01*
X124231568Y-93914847D01*
X123559919Y-93911605D01*
X123542355Y-93895398D01*
X123536622Y-93890235D01*
X123531544Y-93885437D01*
X123527082Y-93880229D01*
X123523195Y-93873836D01*
X123519844Y-93865481D01*
X123516990Y-93854389D01*
X123514592Y-93839785D01*
X123512612Y-93820892D01*
X123511008Y-93796936D01*
X123509743Y-93767139D01*
X123508775Y-93730727D01*
X123508066Y-93686925D01*
X123507576Y-93634955D01*
X123507264Y-93574043D01*
X123507092Y-93503413D01*
X123507019Y-93422289D01*
X123507006Y-93329896D01*
X123507014Y-93225458D01*
X123507014Y-93204536D01*
X123507031Y-93098852D01*
X123507089Y-93005364D01*
X123507200Y-92923306D01*
X123507376Y-92851908D01*
X123507631Y-92790403D01*
X123507974Y-92738021D01*
X123508420Y-92693995D01*
X123508979Y-92657556D01*
X123509664Y-92627936D01*
X123510487Y-92604367D01*
X123511459Y-92586079D01*
X123512594Y-92572305D01*
X123513903Y-92562276D01*
X123515398Y-92555224D01*
X123517091Y-92550381D01*
X123517297Y-92549935D01*
X123529003Y-92530729D01*
X123544376Y-92517506D01*
X123565950Y-92509111D01*
X123596259Y-92504386D01*
X123620599Y-92502790D01*
X123662470Y-92502774D01*
X123694078Y-92507466D01*
X123717481Y-92517535D01*
X123734734Y-92533649D01*
X123740232Y-92541703D01*
X123742625Y-92545898D01*
X123744706Y-92550690D01*
X123746499Y-92556958D01*
X123748024Y-92565580D01*
X123749303Y-92577438D01*
X123750358Y-92593409D01*
X123751210Y-92614375D01*
X123751882Y-92641214D01*
X123752394Y-92674807D01*
X123752769Y-92716032D01*
X123753028Y-92765770D01*
X123753193Y-92824900D01*
X123753285Y-92894301D01*
X123753327Y-92974853D01*
X123753340Y-93067437D01*
X123753340Y-93073690D01*
X123753364Y-93584219D01*
X124323859Y-93584219D01*
X124323859Y-93107404D01*
X124323856Y-93015065D01*
X124323884Y-92934805D01*
X124324005Y-92865735D01*
X124324276Y-92806967D01*
X124324759Y-92757614D01*
X124325512Y-92716789D01*
X124326594Y-92683602D01*
X124328065Y-92657168D01*
X124329986Y-92636597D01*
X124332414Y-92621003D01*
X124335410Y-92609497D01*
X124339033Y-92601192D01*
X124343343Y-92595200D01*
X124348398Y-92590633D01*
X124354260Y-92586603D01*
X124358956Y-92583574D01*
X124370062Y-92578449D01*
X124386311Y-92575170D01*
X124410269Y-92573421D01*
X124444505Y-92572887D01*
X124445932Y-92572886D01*
X124478017Y-92573159D01*
X124500058Y-92574286D01*
X124514970Y-92576729D01*
X124525668Y-92580953D01*
X124534465Y-92586941D01*
X124541066Y-92592134D01*
X124546800Y-92597216D01*
X124551728Y-92603084D01*
X124555912Y-92610639D01*
X124559411Y-92620779D01*
X124562288Y-92634403D01*
X124564603Y-92652411D01*
X124566417Y-92675702D01*
X124567791Y-92705173D01*
X124568786Y-92741726D01*
X124569463Y-92786258D01*
X124569883Y-92839669D01*
X124570107Y-92902858D01*
X124570196Y-92976724D01*
X124570211Y-93062166D01*
X124570209Y-93114000D01*
X124570209Y-93584219D01*
X125160153Y-93584219D01*
X125160153Y-93062023D01*
X125160179Y-92965947D01*
X125160265Y-92882005D01*
X125160426Y-92809367D01*
X125160678Y-92747202D01*
X125161035Y-92694678D01*
X125161512Y-92650965D01*
X125162125Y-92615232D01*
X125162887Y-92586647D01*
X125163814Y-92564380D01*
X125164921Y-92547599D01*
X125166222Y-92535473D01*
X125167733Y-92527173D01*
X125169468Y-92521865D01*
X125169841Y-92521095D01*
X125179496Y-92505271D01*
X125190912Y-92494348D01*
X125206571Y-92487455D01*
X125228953Y-92483719D01*
X125260537Y-92482267D01*
X125280655Y-92482126D01*
X125313094Y-92482385D01*
X125335441Y-92483460D01*
X125350562Y-92485798D01*
X125361325Y-92489847D01*
X125370599Y-92496055D01*
X125370759Y-92496180D01*
X125376553Y-92500631D01*
X125381686Y-92504838D01*
X125386197Y-92509574D01*
X125390126Y-92515609D01*
X125393513Y-92523713D01*
X125396399Y-92534656D01*
X125398823Y-92549210D01*
X125400826Y-92568146D01*
X125402447Y-92592233D01*
X125403726Y-92622243D01*
X125404704Y-92658945D01*
X125405421Y-92703112D01*
X125405915Y-92755513D01*
X125406229Y-92816919D01*
X125406401Y-92888100D01*
X125406471Y-92969828D01*
X125406481Y-93062872D01*
X125406468Y-93168004D01*
X125406467Y-93183692D01*
X125406392Y-93298720D01*
X125406182Y-93403514D01*
X125405840Y-93497775D01*
X125405370Y-93581201D01*
X125404773Y-93653493D01*
X125404054Y-93714350D01*
X125403215Y-93763471D01*
X125402260Y-93800556D01*
X125401191Y-93825305D01*
X125400011Y-93837417D01*
X125399895Y-93837894D01*
X125394435Y-93853069D01*
X125385880Y-93868447D01*
X125373071Y-93885237D01*
X125354850Y-93904644D01*
X125330059Y-93927876D01*
X125297539Y-93956140D01*
X125256131Y-93990643D01*
X125242812Y-94001565D01*
X125222525Y-94018149D01*
X125193010Y-94042263D01*
X125155086Y-94073239D01*
X125109570Y-94110409D01*
X125057281Y-94153104D01*
X124999037Y-94200658D01*
X124935655Y-94252402D01*
X124867953Y-94307669D01*
X124796751Y-94365790D01*
X124722865Y-94426098D01*
X124647114Y-94487925D01*
X124570845Y-94550171D01*
X124010820Y-95007215D01*
X124682306Y-95010457D01*
X125353792Y-95013698D01*
X125373810Y-95032878D01*
X125384655Y-95044512D01*
X125392913Y-95057185D01*
X125398880Y-95072726D01*
X125402850Y-95092963D01*
X125405118Y-95119727D01*
X125405980Y-95154845D01*
X125405732Y-95200148D01*
X125405270Y-95227855D01*
X125404163Y-95275288D01*
X125402760Y-95311643D01*
X125400896Y-95338809D01*
X125398409Y-95358672D01*
X125395134Y-95373121D01*
X125391909Y-95381888D01*
X125384931Y-95393798D01*
X125371146Y-95414141D01*
X125351807Y-95441190D01*
X125328162Y-95473218D01*
X125301462Y-95508498D01*
X125281600Y-95534236D01*
X125193254Y-95647815D01*
X125110811Y-95753867D01*
X125034441Y-95852173D01*
X124964311Y-95942513D01*
X124900592Y-96024671D01*
X124843452Y-96098426D01*
X124793060Y-96163561D01*
X124749585Y-96219856D01*
X124713197Y-96267094D01*
X124684064Y-96305056D01*
X124662355Y-96333523D01*
X124648240Y-96352276D01*
X124641888Y-96361098D01*
X124641521Y-96361777D01*
X124647808Y-96362457D01*
X124665882Y-96363099D01*
X124694565Y-96363690D01*
X124732678Y-96364217D01*
X124779044Y-96364669D01*
X124832483Y-96365033D01*
X124891819Y-96365297D01*
X124955871Y-96365448D01*
X124993219Y-96365478D01*
X125075126Y-96365575D01*
X125144879Y-96365828D01*
X125203288Y-96366255D01*
X125251163Y-96366875D01*
X125289313Y-96367706D01*
X125318550Y-96368765D01*
X125339684Y-96370070D01*
X125353525Y-96371639D01*
X125360884Y-96373490D01*
X125361123Y-96373604D01*
X125373674Y-96384121D01*
X125386793Y-96401498D01*
X125391917Y-96410538D01*
X125398000Y-96423861D01*
X125402075Y-96437218D01*
X125404494Y-96453515D01*
X125405607Y-96475659D01*
X125405766Y-96506556D01*
X125405621Y-96523967D01*
X125405077Y-96557035D01*
X125404227Y-96586447D01*
X125403182Y-96609214D01*
X125402055Y-96622345D01*
X125401926Y-96623097D01*
X125395873Y-96636526D01*
X125383881Y-96653380D01*
X125377732Y-96660374D01*
X125356351Y-96683045D01*
X123557167Y-96683045D01*
X123536243Y-96660859D01*
G37*
G36*
X126491311Y-93423402D02*
G01*
X126523475Y-93424734D01*
X126548690Y-93427029D01*
X126568459Y-93430463D01*
X126584285Y-93435212D01*
X126597672Y-93441452D01*
X126610123Y-93449358D01*
X126619583Y-93456358D01*
X126648857Y-93485928D01*
X126667390Y-93521963D01*
X126675731Y-93565555D01*
X126675886Y-93567880D01*
X126676257Y-93593182D01*
X126672644Y-93613212D01*
X126663536Y-93634898D01*
X126659610Y-93642565D01*
X126643118Y-93668719D01*
X126623012Y-93687968D01*
X126606606Y-93698836D01*
X126592449Y-93706716D01*
X126577940Y-93713053D01*
X126561564Y-93717988D01*
X126541806Y-93721662D01*
X126517152Y-93724216D01*
X126486088Y-93725792D01*
X126447100Y-93726530D01*
X126398672Y-93726572D01*
X126339291Y-93726058D01*
X126317351Y-93725795D01*
X126264921Y-93725093D01*
X126223749Y-93724361D01*
X126192126Y-93723455D01*
X126168345Y-93722233D01*
X126150698Y-93720549D01*
X126137477Y-93718262D01*
X126126975Y-93715227D01*
X126117484Y-93711300D01*
X126111670Y-93708510D01*
X126074717Y-93683747D01*
X126048053Y-93651381D01*
X126032294Y-93612401D01*
X126027936Y-93574494D01*
X126033821Y-93530243D01*
X126051219Y-93491778D01*
X126079744Y-93459736D01*
X126109898Y-93439381D01*
X126117725Y-93435453D01*
X126126066Y-93432315D01*
X126136443Y-93429861D01*
X126150376Y-93427984D01*
X126169386Y-93426578D01*
X126194996Y-93425537D01*
X126228725Y-93424755D01*
X126272095Y-93424124D01*
X126326628Y-93423539D01*
X126338087Y-93423427D01*
X126400120Y-93422925D01*
X126450694Y-93422858D01*
X126491311Y-93423402D01*
G37*
G36*
X126344698Y-96314587D02*
G01*
X126367192Y-96314797D01*
X126424073Y-96315385D01*
X126469505Y-96315998D01*
X126505008Y-96316742D01*
X126532098Y-96317723D01*
X126552293Y-96319046D01*
X126567112Y-96320818D01*
X126578071Y-96323144D01*
X126586689Y-96326130D01*
X126594483Y-96329881D01*
X126596116Y-96330754D01*
X126632333Y-96356616D01*
X126658803Y-96389249D01*
X126667084Y-96405693D01*
X126674862Y-96436343D01*
X126676586Y-96472360D01*
X126672358Y-96507697D01*
X126664924Y-96531058D01*
X126647269Y-96558215D01*
X126621615Y-96583569D01*
X126592512Y-96603121D01*
X126574343Y-96610692D01*
X126560744Y-96612766D01*
X126536227Y-96614517D01*
X126502835Y-96615938D01*
X126462612Y-96617026D01*
X126417600Y-96617775D01*
X126369844Y-96618180D01*
X126321387Y-96618237D01*
X126274273Y-96617940D01*
X126230544Y-96617284D01*
X126192245Y-96616265D01*
X126161419Y-96614877D01*
X126140110Y-96613116D01*
X126132320Y-96611765D01*
X126095465Y-96595083D01*
X126064267Y-96568222D01*
X126040823Y-96533471D01*
X126028279Y-96498209D01*
X126024348Y-96456276D01*
X126032489Y-96417582D01*
X126053069Y-96380824D01*
X126065763Y-96365367D01*
X126078340Y-96351940D01*
X126090494Y-96341010D01*
X126103660Y-96332337D01*
X126119273Y-96325679D01*
X126138768Y-96320797D01*
X126163580Y-96317450D01*
X126195143Y-96315395D01*
X126234894Y-96314394D01*
X126284267Y-96314205D01*
X126344698Y-96314587D01*
G37*
G36*
X123360366Y-97381085D02*
G01*
X123397165Y-97392993D01*
X123431453Y-97414854D01*
X123459196Y-97443745D01*
X123469456Y-97460112D01*
X123487565Y-97494888D01*
X123486981Y-97703221D01*
X123486663Y-97754834D01*
X123486036Y-97803026D01*
X123485150Y-97846068D01*
X123484051Y-97882229D01*
X123482788Y-97909779D01*
X123481409Y-97926988D01*
X123480666Y-97931261D01*
X123469490Y-97954217D01*
X123450476Y-97978978D01*
X123427342Y-98001467D01*
X123403806Y-98017610D01*
X123400408Y-98019260D01*
X123361578Y-98030152D01*
X123320381Y-98030103D01*
X123280295Y-98019747D01*
X123244800Y-97999716D01*
X123232184Y-97988656D01*
X123221206Y-97977300D01*
X123212299Y-97966437D01*
X123205245Y-97954618D01*
X123199827Y-97940395D01*
X123195828Y-97922319D01*
X123193030Y-97898942D01*
X123191217Y-97868814D01*
X123190171Y-97830486D01*
X123189675Y-97782512D01*
X123189511Y-97723441D01*
X123189494Y-97704001D01*
X123189474Y-97645693D01*
X123189560Y-97598869D01*
X123189845Y-97562049D01*
X123190423Y-97533750D01*
X123191386Y-97512491D01*
X123192827Y-97496791D01*
X123194838Y-97485169D01*
X123197514Y-97476144D01*
X123200946Y-97468233D01*
X123204731Y-97460892D01*
X123228838Y-97428040D01*
X123261086Y-97402513D01*
X123298512Y-97385829D01*
X123338154Y-97379508D01*
X123360366Y-97381085D01*
G37*
G36*
X124139502Y-91204899D02*
G01*
X124177898Y-91222224D01*
X124209918Y-91249299D01*
X124233335Y-91284654D01*
X124236012Y-91290685D01*
X124239064Y-91304727D01*
X124241614Y-91329683D01*
X124243659Y-91363561D01*
X124245198Y-91404370D01*
X124246232Y-91450117D01*
X124246759Y-91498813D01*
X124246777Y-91548465D01*
X124246287Y-91597083D01*
X124245287Y-91642675D01*
X124243777Y-91683249D01*
X124241755Y-91716814D01*
X124239221Y-91741379D01*
X124236218Y-91754851D01*
X124214224Y-91791654D01*
X124185386Y-91819558D01*
X124151703Y-91838473D01*
X124115175Y-91848311D01*
X124077804Y-91848982D01*
X124041587Y-91840398D01*
X124008525Y-91822469D01*
X123980619Y-91795105D01*
X123963644Y-91767000D01*
X123959335Y-91757472D01*
X123955898Y-91748396D01*
X123953234Y-91738239D01*
X123951244Y-91725469D01*
X123949830Y-91708555D01*
X123948891Y-91685964D01*
X123948329Y-91656164D01*
X123948044Y-91617623D01*
X123947937Y-91568808D01*
X123947914Y-91524069D01*
X123947959Y-91462346D01*
X123948278Y-91412115D01*
X123949086Y-91371900D01*
X123950600Y-91340227D01*
X123953032Y-91315622D01*
X123956601Y-91296611D01*
X123961519Y-91281719D01*
X123968004Y-91269472D01*
X123976269Y-91258394D01*
X123986530Y-91247013D01*
X123988698Y-91244721D01*
X124022690Y-91217786D01*
X124062294Y-91202493D01*
X124096958Y-91198797D01*
X124139502Y-91204899D01*
G37*
G36*
X122570910Y-94136199D02*
G01*
X122583201Y-94136332D01*
X122638797Y-94136995D01*
X122682987Y-94137680D01*
X122717330Y-94138500D01*
X122743386Y-94139569D01*
X122762713Y-94141003D01*
X122776872Y-94142915D01*
X122787420Y-94145419D01*
X122795918Y-94148631D01*
X122803619Y-94152499D01*
X122839837Y-94178362D01*
X122866307Y-94210994D01*
X122874587Y-94227438D01*
X122881309Y-94253074D01*
X122884015Y-94284497D01*
X122882654Y-94316049D01*
X122877178Y-94342072D01*
X122875652Y-94345959D01*
X122855349Y-94378890D01*
X122826654Y-94407630D01*
X122804425Y-94422418D01*
X122796228Y-94426517D01*
X122787640Y-94429773D01*
X122777089Y-94432302D01*
X122763001Y-94434222D01*
X122743804Y-94435650D01*
X122717927Y-94436702D01*
X122683795Y-94437496D01*
X122639838Y-94438149D01*
X122584699Y-94438775D01*
X122520651Y-94439281D01*
X122468078Y-94439193D01*
X122425494Y-94438348D01*
X122391417Y-94436581D01*
X122364361Y-94433730D01*
X122342842Y-94429630D01*
X122325376Y-94424118D01*
X122310479Y-94417030D01*
X122296666Y-94408202D01*
X122294709Y-94406799D01*
X122268189Y-94380214D01*
X122248608Y-94345596D01*
X122237878Y-94306863D01*
X122236429Y-94287266D01*
X122241908Y-94250020D01*
X122257005Y-94213514D01*
X122279504Y-94182201D01*
X122296066Y-94167444D01*
X122309530Y-94158542D01*
X122323794Y-94151373D01*
X122340343Y-94145777D01*
X122360666Y-94141592D01*
X122386249Y-94138657D01*
X122418578Y-94136812D01*
X122459140Y-94135894D01*
X122509422Y-94135744D01*
X122570910Y-94136199D01*
G37*
G36*
X122619432Y-93418933D02*
G01*
X122666841Y-93419074D01*
X122704194Y-93419412D01*
X122732943Y-93420030D01*
X122754543Y-93421011D01*
X122770449Y-93422440D01*
X122782114Y-93424400D01*
X122790993Y-93426975D01*
X122798540Y-93430248D01*
X122803619Y-93432898D01*
X122839837Y-93458760D01*
X122866307Y-93491393D01*
X122874587Y-93507837D01*
X122882956Y-93540755D01*
X122884200Y-93578201D01*
X122878486Y-93614291D01*
X122871013Y-93634451D01*
X122847485Y-93668291D01*
X122815300Y-93694980D01*
X122795724Y-93705135D01*
X122786576Y-93707689D01*
X122771812Y-93709734D01*
X122750238Y-93711313D01*
X122720661Y-93712473D01*
X122681886Y-93713256D01*
X122632721Y-93713708D01*
X122571970Y-93713874D01*
X122561459Y-93713877D01*
X122348056Y-93713877D01*
X122313380Y-93695762D01*
X122280110Y-93671839D01*
X122256282Y-93641206D01*
X122241871Y-93606010D01*
X122236853Y-93568401D01*
X122241202Y-93530527D01*
X122254893Y-93494536D01*
X122277903Y-93462579D01*
X122310206Y-93436803D01*
X122316408Y-93433303D01*
X122324081Y-93429403D01*
X122331928Y-93426279D01*
X122341408Y-93423846D01*
X122353980Y-93422016D01*
X122371103Y-93420705D01*
X122394237Y-93419825D01*
X122424840Y-93419292D01*
X122464372Y-93419018D01*
X122514292Y-93418918D01*
X122560511Y-93418905D01*
X122619432Y-93418933D01*
G37*
G36*
X124835149Y-91199830D02*
G01*
X124875032Y-91210748D01*
X124910592Y-91231695D01*
X124924820Y-91244721D01*
X124935495Y-91256334D01*
X124944126Y-91267350D01*
X124950928Y-91279245D01*
X124956113Y-91293492D01*
X124959893Y-91311566D01*
X124962483Y-91334943D01*
X124964093Y-91365096D01*
X124964939Y-91403501D01*
X124965232Y-91451633D01*
X124965185Y-91510965D01*
X124965155Y-91524069D01*
X124964790Y-91584884D01*
X124964035Y-91638062D01*
X124962922Y-91682530D01*
X124961486Y-91717219D01*
X124959762Y-91741056D01*
X124957844Y-91752800D01*
X124939076Y-91789106D01*
X124912481Y-91816949D01*
X124880151Y-91836214D01*
X124844182Y-91846784D01*
X124806666Y-91848545D01*
X124769696Y-91841381D01*
X124735367Y-91825178D01*
X124705772Y-91799819D01*
X124684306Y-91767867D01*
X124667453Y-91734047D01*
X124667489Y-91529488D01*
X124667727Y-91469409D01*
X124668394Y-91416425D01*
X124669454Y-91371734D01*
X124670871Y-91336536D01*
X124672609Y-91312031D01*
X124674403Y-91300159D01*
X124686745Y-91273772D01*
X124707514Y-91246982D01*
X124732992Y-91223919D01*
X124754972Y-91210607D01*
X124794082Y-91199573D01*
X124835149Y-91199830D01*
G37*
G36*
X125568318Y-97388530D02*
G01*
X125604872Y-97407629D01*
X125635066Y-97435950D01*
X125652413Y-97463324D01*
X125656057Y-97471422D01*
X125658971Y-97480024D01*
X125661234Y-97490599D01*
X125662925Y-97504616D01*
X125664123Y-97523545D01*
X125664905Y-97548854D01*
X125665352Y-97582012D01*
X125665542Y-97624488D01*
X125665553Y-97677752D01*
X125665518Y-97707769D01*
X125665420Y-97766464D01*
X125665243Y-97813669D01*
X125664892Y-97850859D01*
X125664271Y-97879508D01*
X125663284Y-97901093D01*
X125661835Y-97917088D01*
X125659829Y-97928968D01*
X125657171Y-97938208D01*
X125653764Y-97946285D01*
X125649512Y-97954673D01*
X125649502Y-97954693D01*
X125625062Y-97989688D01*
X125593577Y-98013980D01*
X125554643Y-98027800D01*
X125515178Y-98031488D01*
X125475434Y-98025797D01*
X125438750Y-98009965D01*
X125407513Y-97985853D01*
X125384106Y-97955321D01*
X125370914Y-97920228D01*
X125370627Y-97918726D01*
X125369779Y-97907423D01*
X125369122Y-97884894D01*
X125368669Y-97852879D01*
X125368434Y-97813116D01*
X125368430Y-97767345D01*
X125368671Y-97717303D01*
X125368887Y-97691136D01*
X125369473Y-97633478D01*
X125370089Y-97587289D01*
X125370836Y-97551070D01*
X125371812Y-97523322D01*
X125373117Y-97502549D01*
X125374850Y-97487252D01*
X125377111Y-97475934D01*
X125380000Y-97467096D01*
X125383615Y-97459241D01*
X125384384Y-97457751D01*
X125406768Y-97427613D01*
X125438171Y-97402781D01*
X125474908Y-97385961D01*
X125486279Y-97382913D01*
X125527942Y-97379883D01*
X125568318Y-97388530D01*
G37*
D11*
%TO.C,U1*%
X124460000Y-110515311D02*
X124778198Y-110197113D01*
X129565311Y-105410000D02*
X129247113Y-105728198D01*
X124460000Y-100304689D02*
X124141802Y-100622887D01*
X124141802Y-100622887D02*
X123229634Y-99710719D01*
X124141802Y-110197113D02*
X124460000Y-110515311D01*
X119354689Y-105410000D02*
X119672887Y-105091802D01*
X124778198Y-100622887D02*
X124460000Y-100304689D01*
X119672887Y-105728198D02*
X119354689Y-105410000D01*
X129247113Y-105091802D02*
X129565311Y-105410000D01*
%TD*%
%LPC*%
D12*
%TO.C,H1*%
X124460000Y-78740000D03*
%TD*%
D13*
%TO.C,U1*%
X123461212Y-100522124D03*
X123107658Y-100875678D03*
X122754105Y-101229231D03*
X122400551Y-101582785D03*
X122046998Y-101936338D03*
X121693445Y-102289891D03*
X121339891Y-102643445D03*
X120986338Y-102996998D03*
X120632785Y-103350551D03*
X120279231Y-103704105D03*
X119925678Y-104057658D03*
X119572124Y-104411212D03*
D14*
X119572124Y-106408788D03*
X119925678Y-106762342D03*
X120279231Y-107115895D03*
X120632785Y-107469449D03*
X120986338Y-107823002D03*
X121339891Y-108176555D03*
X121693445Y-108530109D03*
X122046998Y-108883662D03*
X122400551Y-109237215D03*
X122754105Y-109590769D03*
X123107658Y-109944322D03*
X123461212Y-110297876D03*
D13*
X125458788Y-110297876D03*
X125812342Y-109944322D03*
X126165895Y-109590769D03*
X126519449Y-109237215D03*
X126873002Y-108883662D03*
X127226555Y-108530109D03*
X127580109Y-108176555D03*
X127933662Y-107823002D03*
X128287215Y-107469449D03*
X128640769Y-107115895D03*
X128994322Y-106762342D03*
X129347876Y-106408788D03*
D14*
X129347876Y-104411212D03*
X128994322Y-104057658D03*
X128640769Y-103704105D03*
X128287215Y-103350551D03*
X127933662Y-102996998D03*
X127580109Y-102643445D03*
X127226555Y-102289891D03*
X126873002Y-101936338D03*
X126519449Y-101582785D03*
X126165895Y-101229231D03*
X125812342Y-100875678D03*
X125458788Y-100522124D03*
%TD*%
D12*
%TO.C,H2*%
X124460000Y-132080000D03*
%TD*%
D15*
%TO.C,J1*%
X114300000Y-76200000D03*
D16*
X114300000Y-78740000D03*
X114300000Y-81280000D03*
X114300000Y-83820000D03*
X114300000Y-86360000D03*
X114300000Y-88900000D03*
X114300000Y-91440000D03*
X114300000Y-93980000D03*
X114300000Y-96520000D03*
X114300000Y-99060000D03*
X114300000Y-101600000D03*
X114300000Y-104140000D03*
X114300000Y-106680000D03*
X114300000Y-109220000D03*
X114300000Y-111760000D03*
X114300000Y-114300000D03*
X114300000Y-116840000D03*
X114300000Y-119380000D03*
X114300000Y-121920000D03*
X114300000Y-124460000D03*
X114300000Y-127000000D03*
X114300000Y-129540000D03*
X114300000Y-132080000D03*
X114300000Y-134620000D03*
%TD*%
D15*
%TO.C,J2*%
X134620000Y-76200000D03*
D16*
X134620000Y-78740000D03*
X134620000Y-81280000D03*
X134620000Y-83820000D03*
X134620000Y-86360000D03*
X134620000Y-88900000D03*
X134620000Y-91440000D03*
X134620000Y-93980000D03*
X134620000Y-96520000D03*
X134620000Y-99060000D03*
X134620000Y-101600000D03*
X134620000Y-104140000D03*
X134620000Y-106680000D03*
X134620000Y-109220000D03*
X134620000Y-111760000D03*
X134620000Y-114300000D03*
X134620000Y-116840000D03*
X134620000Y-119380000D03*
X134620000Y-121920000D03*
X134620000Y-124460000D03*
X134620000Y-127000000D03*
X134620000Y-129540000D03*
X134620000Y-132080000D03*
X134620000Y-134620000D03*
%TD*%
M02*
